<svg xmlns="http://www.w3.org/2000/svg" viewBox="0 0 1301.04 257"><defs><style>.cls-1,.cls-2,.cls-3{fill:#fff;}.cls-2{fill-rule:evenodd;}.cls-3{stroke:#fff;stroke-miterlimit:10;stroke-width:3px;}</style></defs><g id="Layer_2" data-name="Layer 2"><g id="Layer_1-2" data-name="Layer 1"><path class="cls-1" d="M6.09,244A10.34,10.34,0,0,1,9,240.76H68.17c1.16,0,2.8,2.12,3.48,3.19Z"/><path class="cls-1" d="M0,250.33V257H77.16v-6.67c0-.7-1.74-2.42-2.61-3.19H2.9A4.31,4.31,0,0,0,0,250.33Z"/><path class="cls-1" d="M204.5,242.5a10.11,10.11,0,0,1,2.9-3.19h59.17c1.16,0,2.81,2.12,3.48,3.19Z"/><path class="cls-1" d="M198.41,248.88v6.67h77.15v-6.67c0-.7-1.74-2.42-2.61-3.19H201.31A4.31,4.31,0,0,0,198.41,248.88Z"/><path class="cls-1" d="M50.76,240.47H60.91c7-16.25,65.56-79.09,95.44-101.24C106.92,171.72,65.36,220.26,50.76,240.47Z"/><path class="cls-1" d="M165.34,128.21c-75,32-128.5,88-145.91,112H45.25C51.92,226.25,121,154.32,165.34,128.21Z"/><path class="cls-1" d="M181,80.64l15.67,29.59C93.17,150.37,33.65,211.46,16.82,237c4.16-9,18.74-38.46,43.8-84.4C95.43,111.73,155.38,87.6,181,80.64Z"/><path class="cls-1" d="M139.23,0,65.85,141.55c36.66-39.45,91.08-59.17,113.7-64.1Z"/><path class="cls-1" d="M214.3,142.58l-38.11,20.55c-2.89-1.47-1.95-5.32-1.11-7,9.82-5.41,30.29-16.63,33.58-18.26C213.57,138.21,214.46,141.16,214.3,142.58Z"/><path class="cls-1" d="M211,227l38.11-20.54c2.89,1.47,1.95,5.32,1.12,7.06-9.83,5.4-30.3,16.61-33.6,18.23C211.7,231.38,210.8,228.44,211,227Z"/><path class="cls-2" d="M110.63,248c2.8-.62,4.31-1,10.77-4.53,3.34-1.84,12.29-7.21,23-13.63,16.37-9.81,36.86-22.09,47.79-28.09l-4-7.45-73.71,37.58-1,.6c-2.8,1.59-4.58,2.6-9.47,7.13l.07.12c-2.83-.33-9.12,3.29-10.72,6.68-3.1,6.53,3.73,7.86,6.39,7.73a14.17,14.17,0,0,0,9.6-6l-1.13-1.87c.53.81,1,1.51,1.26,2Z"/><path class="cls-1" d="M224.9,157.85l-41.49,22.32c1,1.92,2.44,2.23,3.06,2.14,12.41-6.64,37.55-20.09,38.83-20.73A4.38,4.38,0,0,0,224.9,157.85Z"/><path class="cls-1" d="M201.34,212.24l41.2-22.85c-1-1.91-2.46-2.19-3.09-2.1-12.32,6.8-37.28,20.57-38.55,21.22A4.36,4.36,0,0,0,201.34,212.24Z"/><path class="cls-1" d="M225.05,162.18l-38.25,20.3,1.45,2.54,38.25-20.7Z"/><path class="cls-1" d="M238,184.8,199.69,205l1.44,2.55,38.32-20.57Z"/><path class="cls-1" d="M237.55,184.43,227,164.59,188.62,185.1a15.45,15.45,0,0,0,.91,2.28,8.37,8.37,0,0,0-1.27,6.39l3.92,7.37c1.69,1.72,4.6,2,5.85,1.93l.91,1.61Z"/><path class="cls-1" d="M185.4,177.1c5.47-10.79-2.2-12.91-6.83-12.79,8.56-5,29.57-15.69,35.49-19.33-4.6,9.62,2,12,8,12C213.31,161.85,192.24,173,185.4,177.1Z"/><path class="cls-1" d="M211.13,224.56c3.87-8-1.17-12.31-6-12.18,8.95-5.22,28.41-16.32,34.62-20.15-4.82,10.13,2,13.23,6.72,13C237.3,210.36,218.29,220.22,211.13,224.56Z"/><path class="cls-1" d="M348.53,110.52a4.9,4.9,0,0,0-.31,3.52,4.16,4.16,0,0,0,1.76,2.22,4.63,4.63,0,0,0,2.48.78h.93v1H331.24v-1h.93a9.65,9.65,0,0,0,4.92-1.5,11.05,11.05,0,0,0,4.19-5Zm22.26-67,.41,12.63-25.68,61.6H338l26.81-60.67c.21-.41.57-1.19,1.09-2.33s1.07-2.43,1.66-3.88,1.12-2.85,1.6-4.19a10.27,10.27,0,0,0,.73-3.16Zm10.87,49.9v4.35H351.22V93.43Zm-10.87-49.9,33.85,73.92H386L364.47,63.51Zm12.42,67h18.12a11.84,11.84,0,0,0,4.24,5,9.41,9.41,0,0,0,4.87,1.5h.83v1H378.35v-1h.93a4.74,4.74,0,0,0,3.62-1.71Q384.46,113.62,383.21,110.52Z"/><path class="cls-1" d="M421,53.16h-.31a6.68,6.68,0,0,0-2-4.61,6.31,6.31,0,0,0-4.61-1.91h-1.34v-1H421Zm0,57.36v7.55h-8.28v-1h1.34a6.28,6.28,0,0,0,4.61-1.92,6.64,6.64,0,0,0,2-4.6ZM436.22,45.6v72.47H420.69V45.6Zm6.42,0a46.65,46.65,0,0,1,13.51,1.81,19.83,19.83,0,0,1,9.37,5.7q3.42,3.89,3.42,10.2a16.71,16.71,0,0,1-1.81,8.07,13.09,13.09,0,0,1-4.72,5.07,15.46,15.46,0,0,1-6.1,2.18,21.51,21.51,0,0,1,9.37,2.9,18.06,18.06,0,0,1,6.57,6.62,19.21,19.21,0,0,1,2.38,9.74A17.25,17.25,0,0,1,471,109a22,22,0,0,1-10.2,6.78,46.57,46.57,0,0,1-15.27,2.27H435.29c.07-1.58.1-3.14.1-4.65H441a18.42,18.42,0,0,0,8.23-1.76,12.61,12.61,0,0,0,5.59-5.49,19.86,19.86,0,0,0,2-9.53,19.43,19.43,0,0,0-1.39-7.76,14,14,0,0,0-9.17-8.18,22.59,22.59,0,0,0-6.52-.93v-.93a14.29,14.29,0,0,0,4.66-.78,11.61,11.61,0,0,0,4.09-2.43,11.2,11.2,0,0,0,2.85-4.4,18.67,18.67,0,0,0,1-6.58,19.09,19.09,0,0,0-1.6-8.49,9.93,9.93,0,0,0-4.61-4.66,15.85,15.85,0,0,0-6.94-1.45H425.76c0-.06-.08-.46-.26-1.19s-.43-1.81-.77-3.26Z"/><path class="cls-1" d="M489.44,110.72v7.35h-8.6v-1h2a6.37,6.37,0,0,0,6.32-6.32Zm-.52-66.67,14.91,15.84.1,58.18h-14.8V57a76.07,76.07,0,0,0-1.25-12.94Zm0,0L555,107l1.25,12.52L490.16,56.68Zm15,66.67a6.35,6.35,0,0,0,6.32,6.32h2v1h-8.59v-7.35ZM532.82,45.6h8.59V53h-.21a6.52,6.52,0,0,0-1.91-4.5,6.11,6.11,0,0,0-4.51-1.81h-2Zm23.08,0v60.67a67.64,67.64,0,0,0,.32,6.89c.2,2,.51,4.16.93,6.36h-.93l-15-16.77V45.6Zm8.29,0v1h-1.87a6.15,6.15,0,0,0-4.45,1.81,6.41,6.41,0,0,0-2,4.5h-.31V45.6Z"/><path class="cls-1" d="M578.27,53.16H578a6.68,6.68,0,0,0-2-4.61,6.31,6.31,0,0,0-4.61-1.91H570v-1h8.28Zm0,57.36v7.55H570v-1h1.34a6.28,6.28,0,0,0,4.61-1.92,6.64,6.64,0,0,0,2-4.6ZM593.49,45.6v72.47H578V45.6Zm28.57,0v4.45H593.18V45.6ZM617,80.18v4.35H593.18V80.18Zm3.83,33.44,2.49,4.45H593.18v-4.45Zm7.56-16.77-4.76,21.22h-20.3l3.73-4.45a19.63,19.63,0,0,0,9.11-2,19.15,19.15,0,0,0,6.73-5.79,30.4,30.4,0,0,0,4.45-9ZM617,70.45v9.94h-9.84v-.21a8.83,8.83,0,0,0,6.32-2.64A8.71,8.71,0,0,0,616,71.17v-.72Zm0,13.87v9.94h-1v-.83a8.52,8.52,0,0,0-2.48-6.31,8.91,8.91,0,0,0-6.32-2.59v-.21Zm5.07-40.58v3L609.43,45.6a39.27,39.27,0,0,0,4.82-.31q2.54-.32,4.71-.72A16.2,16.2,0,0,0,622.06,43.74Zm0,6V61.86h-1V60.61A10.47,10.47,0,0,0,618.18,53a10.67,10.67,0,0,0-7.71-3v-.21Z"/><path class="cls-1" d="M632.52,43.63a17.8,17.8,0,0,0,3.16.83c1.41.28,3,.52,4.71.73a41.62,41.62,0,0,0,4.76.31l-12.63,1.14Zm66.26,1.87v4.35H632.52V45.5Zm-54.77,4v.31a10.64,10.64,0,0,0-7.61,2.95,10.42,10.42,0,0,0-2.85,7.71v1.14l-1,.1V49.54Zm14.19,61v7.55h-8.29v-1h1.35a6.29,6.29,0,0,0,4.61-1.92,6.68,6.68,0,0,0,2-4.6Zm15.22-64.61v72.16H657.89V45.91Zm-.31,64.61h.31a6.63,6.63,0,0,0,2,4.6A6.29,6.29,0,0,0,680,117h1.35v1h-8.28Zm25.67-66.89v3L686.15,45.5a41.05,41.05,0,0,0,4.81-.31c1.69-.21,3.27-.45,4.72-.73A15,15,0,0,0,698.78,43.63Zm0,5.91V61.75l-1-.1V60.51a10.42,10.42,0,0,0-2.85-7.71,10.76,10.76,0,0,0-7.71-2.95v-.31Z"/><path class="cls-1" d="M754.69,44.15c1.38,0,3.09.07,5.12.21s4.14.33,6.32.57,4.07.48,5.69.72a15,15,0,0,1,3.37.78l-1.24,14h-1a10.62,10.62,0,0,0-4-8.65q-4-3.25-10.61-3.26-6,0-9.68,2.9a9.33,9.33,0,0,0-3.88,7,7.29,7.29,0,0,0,2,5.38A24,24,0,0,0,752,68.07l19.77,12.84a17.55,17.55,0,0,1,9.32,17.18q-.52,10.16-7.77,15.79t-19.67,5.64a49.39,49.39,0,0,1-8.85-.77,35.87,35.87,0,0,1-7.61-2.18,16.32,16.32,0,0,1-5.28-3.36,14.75,14.75,0,0,1-.72-5.49,28.3,28.3,0,0,1,1-6.52,20.41,20.41,0,0,1,2.23-5.49h.93a17.86,17.86,0,0,0,1.91,9.79,17.46,17.46,0,0,0,6.84,7.14,20.1,20.1,0,0,0,10.71,2.54q6.84-.11,10.56-3.47a10.54,10.54,0,0,0,3.73-8.13,9.51,9.51,0,0,0-1.92-5.8,19.07,19.07,0,0,0-6.26-5l-18.12-12a19.23,19.23,0,0,1-8-8,19,19,0,0,1-2-10.56,20.58,20.58,0,0,1,3.21-9.47,18.07,18.07,0,0,1,7.4-6.37A25.61,25.61,0,0,1,754.69,44.15Zm20.6,1-.21,2.17H762.87V45.19Z"/><path class="cls-1" d="M831.61,44.15q12.43,0,21.59,4.61a33.75,33.75,0,0,1,14.18,13q5,8.39,5,20.09t-5,20a33.63,33.63,0,0,1-14.18,13q-9.16,4.6-21.59,4.6T810,114.92a33.55,33.55,0,0,1-14.14-13q-5-8.39-5-20.08t5-20a33.45,33.45,0,0,1,14.14-13Q819.2,44.16,831.61,44.15Zm0,71a20.05,20.05,0,0,0,12.63-4.09,26.19,26.19,0,0,0,8.18-11.55,48.63,48.63,0,0,0,2.9-17.7,48.65,48.65,0,0,0-2.9-17.71,26.15,26.15,0,0,0-8.18-11.54,21.47,21.47,0,0,0-25.21,0,26,26,0,0,0-8.23,11.54,48.86,48.86,0,0,0-2.9,17.71,48.84,48.84,0,0,0,2.9,17.7A26,26,0,0,0,819,111.09,20.13,20.13,0,0,0,831.61,115.18Z"/><path class="cls-1" d="M887.42,53.16h-.31a6.68,6.68,0,0,0-2-4.61,6.31,6.31,0,0,0-4.61-1.91h-1.34v-1h8.28Zm0,57.36v7.55h-8.28v-1h1.34a6.28,6.28,0,0,0,4.61-1.92,6.64,6.64,0,0,0,2-4.6ZM902.64,45.6v72.47H887.11V45.6Zm-.31,7.56V45.6h8.28v1h-1.35a6.28,6.28,0,0,0-4.6,1.91,6.68,6.68,0,0,0-2,4.61ZM930,113.62l2.49,4.45H902.33v-4.45Zm7.56-16.77-4.76,21.22h-20.3l3.73-4.45a19.63,19.63,0,0,0,9.11-2,19.15,19.15,0,0,0,6.73-5.79,30.4,30.4,0,0,0,4.45-9Z"/><path class="cls-1" d="M983.6,44.15q12.42,0,21.59,4.61a33.81,33.81,0,0,1,14.18,13q5,8.39,5,20.09t-5,20a33.69,33.69,0,0,1-14.18,13q-9.16,4.6-21.59,4.6T962,114.92a33.52,33.52,0,0,1-14.13-13q-5-8.39-5-20.08t5-20a33.42,33.42,0,0,1,14.13-13Q971.18,44.16,983.6,44.15Zm0,71a20.05,20.05,0,0,0,12.63-4.09,26.19,26.19,0,0,0,8.18-11.55,48.84,48.84,0,0,0,2.9-17.7,48.86,48.86,0,0,0-2.9-17.71,26.15,26.15,0,0,0-8.18-11.54,21.47,21.47,0,0,0-25.21,0,26,26,0,0,0-8.23,11.54,48.86,48.86,0,0,0-2.9,17.71,48.84,48.84,0,0,0,2.9,17.7A26,26,0,0,0,971,111.09,20.13,20.13,0,0,0,983.6,115.18Z"/><path class="cls-1" d="M1038.48,110.52v7.55H1027v-1h1.66a7.83,7.83,0,0,0,5-1.71,7,7,0,0,0,2.59-4.81Zm6.31-66.37h.93l3.63,10.36-6.94,63.56h-7.25Zm-1.76,68v.52a4.65,4.65,0,0,0,1.19,3.06,3.61,3.61,0,0,0,2.85,1.39h1.55v.93h-6.31v-5.9Zm2.69-68,33.86,55.6-5.9,20.4L1043,68.69Zm63,0,.83,11.29-30.75,53.32a44.5,44.5,0,0,0-3,6.21,14.42,14.42,0,0,0-1,5.18h-1l-4-9Zm-6.52,68h.72v5.9h-6.31v-.93h1.55a3.58,3.58,0,0,0,2.9-1.39,4.75,4.75,0,0,0,1.14-3.06v-.52Zm7.45-68,9.84,73.92h-16.67l-5.18-47.62,11.08-26.3Zm6.63,66.37h2.17a7.43,7.43,0,0,0,2.7,4.81A7.65,7.65,0,0,0,1126,117h1.66v1h-11.39Z"/><path class="cls-1" d="M1171.41,44.15q12.43,0,21.59,4.61a33.75,33.75,0,0,1,14.18,13q5,8.39,5,20.09t-5,20a33.63,33.63,0,0,1-14.18,13q-9.16,4.6-21.59,4.6t-21.58-4.6a33.55,33.55,0,0,1-14.14-13q-5-8.39-5-20.08t5-20a33.45,33.45,0,0,1,14.14-13Q1159,44.16,1171.41,44.15Zm0,71a20.05,20.05,0,0,0,12.63-4.09,26.19,26.19,0,0,0,8.18-11.55,48.84,48.84,0,0,0,2.9-17.7,48.86,48.86,0,0,0-2.9-17.71A26.15,26.15,0,0,0,1184,52.59a21.47,21.47,0,0,0-25.21,0,26,26,0,0,0-8.23,11.54,48.86,48.86,0,0,0-2.9,17.71,48.84,48.84,0,0,0,2.9,17.7,26,26,0,0,0,8.23,11.55A20.13,20.13,0,0,0,1171.41,115.18Z"/><path class="cls-1" d="M1226.29,110.72v7.35h-8.6v-1h2a6.37,6.37,0,0,0,6.32-6.32Zm-.52-66.67,14.91,15.84.1,58.18H1226V57a76.07,76.07,0,0,0-1.25-12.94Zm0,0,66,63,1.25,12.52L1227,56.68Zm15,66.67a6.37,6.37,0,0,0,6.32,6.32h2v1h-8.59v-7.35Zm28.89-65.12h8.59V53h-.21a6.48,6.48,0,0,0-1.91-4.5,6.11,6.11,0,0,0-4.51-1.81h-2Zm23.09,0v60.67a67.84,67.84,0,0,0,.31,6.89c.2,2,.51,4.16.93,6.36h-.93l-15-16.77V45.6Zm8.28,0v1h-1.87a6.17,6.17,0,0,0-4.45,1.81,6.36,6.36,0,0,0-2,4.5h-.32V45.6Z"/><path class="cls-1" d="M555.05,169.36h-.26a5.61,5.61,0,0,0-1.7-3.87,5.28,5.28,0,0,0-3.87-1.61h-1.13V163h7Zm0,48.14v6.35h-7V223h1.13a5.28,5.28,0,0,0,3.87-1.61,5.61,5.61,0,0,0,1.7-3.87ZM567.82,163v60.84h-13V163Zm-.26,6.35V163h7v.87h-1.13a5.28,5.28,0,0,0-3.87,1.61,5.57,5.57,0,0,0-1.7,3.87Zm23.21,50.75,2.08,3.74H567.56v-3.74ZM597.11,206l-4,17.82h-17l3.13-3.74a16.55,16.55,0,0,0,7.65-1.69,16.19,16.19,0,0,0,5.65-4.87,25.55,25.55,0,0,0,3.73-7.52Z"/><path class="cls-1" d="M610.15,217.5a4.15,4.15,0,0,0-.26,3,3.57,3.57,0,0,0,1.47,1.87,4,4,0,0,0,2.09.65h.78v.87h-18.6V223h.79a8.08,8.08,0,0,0,4.12-1.26,9.25,9.25,0,0,0,3.52-4.22Zm18.68-56.23.35,10.61-21.55,51.71h-6.35l22.51-50.93c.18-.35.48-1,.91-2s.9-2,1.4-3.26.94-2.39,1.34-3.52a8.36,8.36,0,0,0,.61-2.65ZM638,203.16v3.65H612.41v-3.65Zm-9.13-41.89,28.42,62.06H641.61l-18.08-45.28Zm10.43,56.23h15.21a10,10,0,0,0,3.57,4.22,7.87,7.87,0,0,0,4.08,1.26h.7v.87H635.18V223H636a4,4,0,0,0,3-1.43Q640.31,220.11,639.26,217.5Z"/><path class="cls-1" d="M671.77,169.27H657.6a7.74,7.74,0,0,0-3.39-4.13,8.79,8.79,0,0,0-4.26-1.26h-.69V163h26.51v.87H675a3.82,3.82,0,0,0-2.91,1.39Q670.81,166.66,671.77,169.27Zm-16.34-5.74h14.16l13.91,39.29-5.21,22.59Zm43.45-1.91,1.57,8.6-19.3,45.55a46.33,46.33,0,0,0-1.52,5.12,24.61,24.61,0,0,0-.56,4.52h-.78l-2.44-10.34,22.25-53.45Zm0,.09L718,204l-4.17,21.46-20.94-46.32Zm33.64,1.82-16.34,52.24A44.46,44.46,0,0,0,715,221a22.46,22.46,0,0,0-.26,4.39h-.87l-2.43-8.6,15.21-53.28ZM725,169.27c.46-1.74.31-3.07-.44-4a3.53,3.53,0,0,0-2.87-1.39h-.78V163H739v.87h-.7a9.26,9.26,0,0,0-4.34,1.26,7,7,0,0,0-3.31,4.13Z"/><path class="cls-1" d="M796.74,161.79a39.81,39.81,0,0,1,18.12,3.87,28.43,28.43,0,0,1,11.91,10.91,35.71,35.71,0,0,1,0,33.68,28.32,28.32,0,0,1-11.91,10.95,44.36,44.36,0,0,1-36.24,0,28.18,28.18,0,0,1-11.86-10.91,36.09,36.09,0,0,1,0-33.68,28.08,28.08,0,0,1,11.86-11A39.86,39.86,0,0,1,796.74,161.79Zm0,59.62A16.81,16.81,0,0,0,807.35,218a22,22,0,0,0,6.86-9.69,46.47,46.47,0,0,0,0-29.72,22,22,0,0,0-6.86-9.69,18,18,0,0,0-21.17,0,21.92,21.92,0,0,0-6.91,9.69,46.65,46.65,0,0,0,0,29.72,21.92,21.92,0,0,0,6.91,9.69A16.86,16.86,0,0,0,796.74,221.41Z"/><path class="cls-1" d="M843.59,169.36h-.26a5.57,5.57,0,0,0-1.7-3.87,5.27,5.27,0,0,0-3.86-1.61h-1.13V163h7Zm0,48.14v6.35h-7V223h1.13a5.27,5.27,0,0,0,3.86-1.61,5.57,5.57,0,0,0,1.7-3.87ZM856.37,163v60.84h-13V163Zm24,0v3.74H856.11V163Zm-4.26,29v3.65h-20V192Zm-20,25.46h.26a5.56,5.56,0,0,0,1.69,3.87,5.28,5.28,0,0,0,3.87,1.61h1.13v.87h-6.95Zm20-33.63v8.34h-8.25V192a7.41,7.41,0,0,0,5.3-2.22,7.33,7.33,0,0,0,2.09-5.34v-.61Zm0,11.65v8.34h-.86v-.7a7.19,7.19,0,0,0-2.09-5.3,7.5,7.5,0,0,0-5.3-2.17v-.17Zm4.26-34.07V164l-10.6-1a34.14,34.14,0,0,0,4-.26c1.42-.17,2.74-.38,4-.61A13.19,13.19,0,0,0,880.35,161.45Zm0,5v9.64h-.87v-.86a7.93,7.93,0,0,0-8.51-8.52v-.26Z"/><path class="cls-1" d="M895.39,169.36h-.26a5.61,5.61,0,0,0-1.7-3.87,5.27,5.27,0,0,0-3.86-1.61h-1.13V163h6.95Zm0,48.14v6.35h-6.95V223h1.13a5.27,5.27,0,0,0,3.86-1.61,5.61,5.61,0,0,0,1.7-3.87ZM908.16,163v60.84h-13V163Zm24,0v3.74H907.9V163Zm-4.26,29v3.65h-20V192Zm-20,25.46h.26a5.61,5.61,0,0,0,1.7,3.87,5.28,5.28,0,0,0,3.87,1.61h1.13v.87h-7Zm20-33.63v8.34h-8.25V192a7.41,7.41,0,0,0,5.3-2.22,7.32,7.32,0,0,0,2.08-5.34v-.61Zm0,11.65v8.34H927v-.7a7.18,7.18,0,0,0-2.08-5.3,7.5,7.5,0,0,0-5.3-2.17v-.17Zm4.26-34.07V164l-10.6-1a34.14,34.14,0,0,0,4-.26c1.42-.17,2.74-.38,3.95-.61A13.13,13.13,0,0,0,932.15,161.45Zm0,5v9.64h-.87v-.86a7.93,7.93,0,0,0-8.52-8.52v-.26Z"/><path class="cls-1" d="M947.19,169.36h-.26a5.61,5.61,0,0,0-1.7-3.87,5.28,5.28,0,0,0-3.87-1.61h-1.13V163h7Zm0,48.14v6.35h-7V223h1.13a5.28,5.28,0,0,0,3.87-1.61,5.61,5.61,0,0,0,1.7-3.87ZM960,163v60.84h-13V163Zm-.26,6.35V163h6.95v.87h-1.13a5.27,5.27,0,0,0-3.86,1.61,5.57,5.57,0,0,0-1.7,3.87Zm0,48.14H960a5.57,5.57,0,0,0,1.7,3.87,5.27,5.27,0,0,0,3.86,1.61h1.13v.87H959.7Z"/><path class="cls-1" d="M1031.23,198.47l.78,14.95a21.86,21.86,0,0,1-5.13,5.82,25.38,25.38,0,0,1-8,4.22,35.59,35.59,0,0,1-11.3,1.61A43.72,43.72,0,0,1,989,221.2a28.34,28.34,0,0,1-12.29-10.82q-4.35-7-4.35-17a32,32,0,0,1,4.26-16.81,28,28,0,0,1,12.21-10.91q7.95-3.83,19-3.83a51,51,0,0,1,12.47,1.4,40.76,40.76,0,0,1,9.26,3.38l.09,14.87h-.79q-2.34-8.61-7.65-12.3a21.18,21.18,0,0,0-12.42-3.69,20.56,20.56,0,0,0-11.91,3.38,21.89,21.89,0,0,0-7.65,9.56,36.74,36.74,0,0,0-2.69,14.78A39,39,0,0,0,989.12,208a22.07,22.07,0,0,0,7.3,9.73,19.22,19.22,0,0,0,11.17,3.65,26.36,26.36,0,0,0,11.3-2.17,16.64,16.64,0,0,0,7.43-7.21,41.75,41.75,0,0,0,4.21-13.56Z"/><path class="cls-1" d="M1046.61,169.36h-.26a5.6,5.6,0,0,0-1.69-3.87,5.28,5.28,0,0,0-3.87-1.61h-1.13V163h6.95Zm0,48.14v6.35h-6.95V223h1.13a5.28,5.28,0,0,0,3.87-1.61,5.6,5.6,0,0,0,1.69-3.87ZM1059.39,163v60.84h-13V163Zm24,0v3.74h-24.25V163Zm-4.26,29v3.65h-20V192Zm3.21,28.07,2.09,3.74h-25.29v-3.74Zm6.35-14.08-4,17.82h-17l3.12-3.74a16.52,16.52,0,0,0,7.65-1.69,16.1,16.1,0,0,0,5.65-4.87,25.56,25.56,0,0,0,3.74-7.52Zm-9.56-22.16v8.34h-8.26V192a7.41,7.41,0,0,0,5.3-2.22,7.33,7.33,0,0,0,2.09-5.34v-.61Zm0,11.65v8.34h-.87v-.7a7.19,7.19,0,0,0-2.09-5.3,7.5,7.5,0,0,0-5.3-2.17v-.17Zm4.26-34.07V164l-10.61-1a34.3,34.3,0,0,0,4-.26c1.41-.17,2.73-.38,4-.61A13.13,13.13,0,0,0,1083.38,161.45Zm0,5v10.17h-.87v-1a8.8,8.8,0,0,0-2.39-6.43,9,9,0,0,0-6.48-2.52v-.17Z"/><line class="cls-3" x1="331.24" y1="166.65" x2="536.96" y2="166.65"/><line class="cls-3" x1="331.24" y1="179.67" x2="536.96" y2="179.67"/><line class="cls-3" x1="331.24" y1="191.57" x2="536.96" y2="191.57"/><line class="cls-3" x1="331.24" y1="203.48" x2="536.96" y2="203.48"/><line class="cls-3" x1="331.24" y1="215.39" x2="536.96" y2="215.39"/><line class="cls-3" x1="1095.31" y1="166.65" x2="1301.04" y2="166.65"/><line class="cls-3" x1="1095.31" y1="179.67" x2="1301.04" y2="179.67"/><line class="cls-3" x1="1095.31" y1="191.57" x2="1301.04" y2="191.57"/><line class="cls-3" x1="1095.31" y1="203.48" x2="1301.04" y2="203.48"/><line class="cls-3" x1="1095.31" y1="215.39" x2="1301.04" y2="215.39"/></g></g></svg>