<svg width="74" height="74" viewBox="0 0 74 74" fill="none" xmlns="http://www.w3.org/2000/svg">
<circle cx="37" cy="37" r="37" fill="#F5F5F5"/>
<path d="M50.625 28.0938V26.5625H47.3438L37.5 20L27.4375 26.5625H24.375V28.0938L20 30.9375V55H55V31.1562L50.625 28.0938ZM37.5 22.625L43.4062 26.5625H31.375L37.5 22.625ZM26.5625 28.75H48.4375V36.8438L40.7812 40.5625L37.5 37.7188L34.2188 40.7812L26.5625 37.0625V28.75ZM22.1875 32.0312L24.375 30.5V35.75L22.1875 34.875V32.0312ZM22.1875 37.2812L32.25 42.3125L22.1875 51.0625V37.2812ZM24.1562 52.8125L37.5 41.2188L50.8438 52.8125H24.1562ZM52.8125 51.0625L42.5312 42.0938L52.8125 37.0625V51.0625ZM52.8125 34.6562L50.625 35.75V30.7188L52.8125 32.25V34.6562Z" fill="#566CFB"/>
<g clip-path="url(#clip0_760:1096)">
<path d="M37.5743 29.3331C36.8058 29.2574 36.0361 29.4648 35.4031 29.9181C34.7701 30.3714 34.3151 31.041 34.1196 31.8071C33.9241 32.5731 34.0009 33.3855 34.3361 34.0987C34.6714 34.812 35.2432 35.3796 35.9493 35.6998C36.3582 35.8895 36.8006 35.9916 37.2493 35.9998C37.9636 35.9999 38.6581 35.7585 39.2252 35.3131C39.2937 35.2596 39.3386 35.1804 39.3502 35.0929C39.3618 35.0054 39.3391 34.9168 39.287 34.8465C39.2611 34.8112 39.2287 34.7816 39.1916 34.7593C39.1545 34.737 39.1134 34.7225 39.0708 34.7166C39.0282 34.7107 38.9848 34.7136 38.9433 34.725C38.9017 34.7364 38.8628 34.7562 38.8288 34.7831C38.4917 35.0443 38.0977 35.2172 37.6808 35.2871C37.2639 35.3569 36.8367 35.3215 36.4362 35.184C36.0356 35.0464 35.6738 34.8108 35.3819 34.4976C35.0901 34.1843 34.8771 33.8029 34.7613 33.3862C34.6455 32.9696 34.6305 32.5303 34.7174 32.1063C34.8044 31.6823 34.9908 31.2865 35.2604 30.953C35.5301 30.6195 35.8749 30.3584 36.265 30.1923C36.6552 30.0263 37.0789 29.9602 37.4995 29.9998C38.1524 30.0773 38.754 30.4004 39.188 30.9065C39.622 31.4126 39.8576 32.0658 39.8492 32.7398V32.9665C39.8489 33.0431 39.8334 33.1188 39.8039 33.1891C39.7744 33.2594 39.7313 33.3229 39.6773 33.3758C39.6233 33.4287 39.5595 33.4699 39.4897 33.4969C39.4198 33.524 39.3453 33.5363 39.2707 33.5331C39.122 33.5164 38.9849 33.4424 38.8872 33.3261C38.7895 33.2098 38.7384 33.0599 38.7443 32.9065V31.4665C38.7443 31.3781 38.71 31.2933 38.6491 31.2308C38.5881 31.1683 38.5055 31.1331 38.4193 31.1331C38.3399 31.1325 38.2631 31.1616 38.2032 31.215C38.1433 31.2684 38.1046 31.3424 38.0943 31.4231C37.7918 31.131 37.3918 30.9688 36.9763 30.9698C36.6939 30.972 36.4168 31.0482 36.1713 31.1914C35.9258 31.3345 35.7201 31.5396 35.5738 31.7873C35.4275 32.035 35.3455 32.317 35.3355 32.6065C35.3255 32.8959 35.388 33.1831 35.5168 33.4408C35.6457 33.6985 35.8368 33.9181 36.0718 34.0786C36.3068 34.2391 36.578 34.3353 36.8595 34.3579C37.141 34.3805 37.4235 34.3289 37.68 34.2078C37.9365 34.0868 38.1586 33.9004 38.325 33.6665C38.4194 33.8162 38.545 33.9424 38.6929 34.036C38.8407 34.1297 39.007 34.1884 39.1798 34.2078C39.3525 34.2273 39.5273 34.2071 39.6914 34.1486C39.8556 34.0901 40.005 33.9949 40.1287 33.8698C40.2479 33.7536 40.3423 33.6133 40.406 33.4579C40.4698 33.3024 40.5015 33.1351 40.4992 32.9665V32.7398C40.5065 31.9021 40.212 31.0912 39.6722 30.4625C39.1324 29.8338 38.3854 29.4317 37.5743 29.3331V29.3331ZM36.9828 33.6965C36.7842 33.6965 36.59 33.6361 36.4249 33.5229C36.2597 33.4097 36.131 33.2488 36.055 33.0606C35.979 32.8724 35.9591 32.6653 35.9979 32.4655C36.0366 32.2657 36.1323 32.0822 36.2727 31.9382C36.4131 31.7941 36.5921 31.696 36.7869 31.6563C36.9817 31.6165 37.1836 31.6369 37.3671 31.7149C37.5506 31.7928 37.7074 31.9249 37.8178 32.0942C37.9281 32.2636 37.987 32.4628 37.987 32.6665C37.9862 32.9394 37.8801 33.2009 37.6919 33.3938C37.5038 33.5868 37.2489 33.6956 36.9828 33.6965V33.6965Z" fill="#566CFB"/>
</g>
<defs>
<clipPath id="clip0_760:1096">
<rect width="6.5" height="7" fill="white" transform="translate(34 29)"/>
</clipPath>
</defs>
</svg>
