<svg width="74" height="74" viewBox="0 0 74 74" fill="none" xmlns="http://www.w3.org/2000/svg">
<circle cx="37" cy="37" r="37" fill="#F5F5F5"/>
<path d="M25.2383 52.9271C25.2473 52.9331 25.2593 52.9301 25.2683 52.9361C25.3392 52.9755 25.4184 52.9974 25.4993 53.0001C25.5439 53 25.5883 52.994 25.6313 52.9821L36.4993 50.0161L47.3673 52.9821C47.4103 52.994 47.4547 53 47.4993 53.0001C47.5802 52.9977 47.6592 52.9753 47.7293 52.9351C47.7393 52.9301 47.7503 52.9321 47.7593 52.9261L56.7593 47.4261C56.8523 47.369 56.9241 47.2831 56.9638 47.1815C57.0035 47.0799 57.009 46.9681 56.9793 46.8631L51.9953 29.3631C51.9749 29.2902 51.9382 29.2229 51.888 29.1663C51.8378 29.1097 51.7753 29.0653 51.7054 29.0364C51.6354 29.0075 51.5598 28.9949 51.4843 28.9995C51.4087 29.0041 51.3352 29.0259 51.2693 29.0631L46.3073 31.8471C46.1987 31.9157 46.1205 32.0234 46.0891 32.148C46.0576 32.2726 46.0752 32.4046 46.1382 32.5166C46.2013 32.6285 46.305 32.712 46.4278 32.7497C46.5507 32.7874 46.6833 32.7764 46.7983 32.7191L51.2073 30.2441L55.9143 46.7701L47.8993 51.6691L45.9953 36.4381C45.9789 36.3064 45.9108 36.1867 45.8061 36.1052C45.7013 36.0237 45.5685 35.9872 45.4368 36.0036C45.3052 36.02 45.1854 36.0881 45.1039 36.1929C45.0224 36.2976 44.9859 36.4304 45.0023 36.5621L46.9093 51.8211L36.9993 49.1161V46.3861C36.9993 46.2535 36.9467 46.1263 36.8529 46.0325C36.7591 45.9388 36.632 45.8861 36.4993 45.8861C36.3667 45.8861 36.2396 45.9388 36.1458 46.0325C36.052 46.1263 35.9993 46.2535 35.9993 46.3861V49.1161L26.0883 51.8211L27.9953 36.5621C28.0035 36.4969 27.9987 36.4307 27.9813 36.3674C27.9638 36.304 27.9341 36.2447 27.8938 36.1929C27.8534 36.141 27.8032 36.0976 27.7461 36.0651C27.689 36.0326 27.626 36.0117 27.5608 36.0036C27.4956 35.9955 27.4295 36.0002 27.3661 36.0177C27.3028 36.0351 27.2435 36.0648 27.1916 36.1052C27.1397 36.1455 27.0963 36.1957 27.0639 36.2528C27.0314 36.3099 27.0105 36.3729 27.0023 36.4381L25.0993 51.6691L17.0843 46.7711L21.7913 30.2461L26.2003 32.7211C26.3154 32.7784 26.448 32.7894 26.5709 32.7517C26.6937 32.714 26.7974 32.6305 26.8604 32.5185C26.9235 32.4066 26.9411 32.2746 26.9096 32.15C26.8782 32.0254 26.8 31.9177 26.6913 31.8491L21.7283 29.0641C21.6626 29.0265 21.5891 29.0044 21.5135 28.9995C21.4379 28.9947 21.3622 29.0073 21.2922 29.0362C21.2222 29.0652 21.1598 29.1098 21.1097 29.1666C21.0597 29.2235 21.0233 29.291 21.0033 29.3641L16.0193 46.8641C15.9892 46.9691 15.9944 47.0811 16.0342 47.1828C16.0739 47.2845 16.146 47.3704 16.2393 47.4271L25.2383 52.9271Z" fill="#566CFB"/>
<path d="M36.161 44.368C36.2528 44.4527 36.373 44.5 36.4979 44.5006C36.6228 44.5011 36.7435 44.4549 36.836 44.371C37.169 44.068 45 36.882 45 29.5C45 24.733 41.267 21 36.5 21C31.733 21 28 24.733 28 29.5C28 36.754 35.828 44.06 36.161 44.368V44.368ZM36.5 22C40.775 22 44 25.224 44 29.5C44 35.597 38.007 41.837 36.503 43.307C35.002 41.82 29 35.498 29 29.5C29 25.224 32.225 22 36.5 22Z" fill="#566CFB"/>
<path d="M41 29.5C41 27.019 38.981 25 36.5 25C34.019 25 32 27.019 32 29.5C32 31.981 34.019 34 36.5 34C38.981 34 41 31.981 41 29.5ZM36.5 33C34.57 33 33 31.43 33 29.5C33 27.57 34.57 26 36.5 26C38.43 26 40 27.57 40 29.5C40 31.43 38.43 33 36.5 33Z" fill="#566CFB"/>
</svg>
