<svg width="74" height="74" viewBox="0 0 74 74" fill="none" xmlns="http://www.w3.org/2000/svg">
<circle cx="37" cy="37" r="37" fill="#F5F5F5"/>
<g clip-path="url(#clip0_762:1097)">
<path d="M46.0744 35.923H43.704C43.703 34.9746 43.3281 34.0653 42.6616 33.3947C41.995 32.7241 41.0911 32.347 40.1484 32.346V29.9614C41.7195 29.9633 43.2257 30.592 44.3366 31.7096C45.4475 32.8272 46.0725 34.3424 46.0744 35.923V35.923Z" fill="#566CFB"/>
<path d="M50.8151 35.9232H48.4447C48.4422 33.7104 47.5673 31.589 46.012 30.0243C44.4567 28.4597 42.348 27.5795 40.1484 27.577V25.1924C42.9764 25.1955 45.6877 26.3271 47.6874 28.3388C49.6871 30.3506 50.8119 33.0781 50.8151 35.9232V35.9232Z" fill="#566CFB"/>
<path d="M48.4435 55H48.242C24.9532 53.6527 21.6465 33.8842 21.1843 27.8512C21.112 26.9054 21.4162 25.9694 22.0299 25.2492C22.6435 24.529 23.5164 24.0835 24.4566 24.0107C24.5506 24.0036 24.645 24 24.7398 24H30.9858C31.4605 23.9995 31.9244 24.1425 32.3175 24.4103C32.7105 24.6782 33.0145 25.0586 33.1902 25.5023L34.9917 29.9615C35.1651 30.395 35.2082 30.8702 35.1155 31.328C35.0227 31.7859 34.7984 32.2063 34.4702 32.5369L31.9457 35.1004C32.3385 37.3554 33.4111 39.4344 35.0181 41.0554C36.6252 42.6764 38.6889 43.7609 40.9294 44.1619L43.5013 41.5985C43.8349 41.272 44.2567 41.0515 44.7141 40.9646C45.1714 40.8776 45.6441 40.9281 46.0731 41.1096L50.5413 42.91C50.9757 43.0923 51.3463 43.4005 51.6059 43.7955C51.8655 44.1904 52.0024 44.6542 51.999 45.1277V51.4231C51.999 52.3717 51.6244 53.2815 50.9577 53.9523C50.2909 54.6231 49.3865 55 48.4435 55ZM24.7398 26.3846C24.5842 26.3841 24.43 26.4145 24.286 26.474C24.142 26.5335 24.0111 26.6209 23.9007 26.7313C23.7904 26.8417 23.7027 26.9729 23.6427 27.1173C23.5827 27.2618 23.5516 27.4168 23.5511 27.5733C23.5511 27.6067 23.5523 27.6397 23.5547 27.6723C24.0998 34.7308 27.5961 51.4231 48.3724 52.6154C48.6861 52.6343 48.9944 52.5271 49.2295 52.3174C49.4647 52.1077 49.6074 51.8126 49.6263 51.497L49.6287 51.4231V45.1277L45.1605 43.3273L41.7591 46.7254L41.1902 46.6538C30.8791 45.3542 29.4806 34.9812 29.4806 34.8738L29.4095 34.3015L32.7754 30.8796L30.9976 26.3846H24.7398Z" fill="#566CFB"/>
</g>
<defs>
<clipPath id="clip0_762:1097">
<rect width="32" height="31" fill="white" transform="translate(20 24)"/>
</clipPath>
</defs>
</svg>
