<svg width="54" height="56" viewBox="0 0 54 56" fill="none" xmlns="http://www.w3.org/2000/svg">
<path d="M13.5 15.75C12.165 15.75 10.8599 15.3395 9.7499 14.5703C8.63987 13.8011 7.77471 12.7079 7.26382 11.4288C6.75292 10.1497 6.61925 8.74224 6.8797 7.38437C7.14015 6.0265 7.78303 4.77922 8.72703 3.80026C9.67104 2.82129 10.8738 2.1546 12.1831 1.88451C13.4925 1.61441 14.8497 1.75303 16.0831 2.28285C17.3165 2.81266 18.3707 3.70987 19.1124 4.86101C19.8541 6.01216 20.25 7.36553 20.25 8.75C20.25 10.6065 19.5388 12.387 18.273 13.6998C17.0071 15.0125 15.2902 15.75 13.5 15.75ZM13.5 5.25C12.8325 5.25 12.18 5.45527 11.625 5.83986C11.0699 6.22444 10.6374 6.77107 10.3819 7.41061C10.1265 8.05015 10.0596 8.75389 10.1899 9.43282C10.3201 10.1118 10.6415 10.7354 11.1135 11.2249C11.5855 11.7144 12.1869 12.0477 12.8416 12.1828C13.4963 12.3178 14.1749 12.2485 14.7916 11.9836C15.4083 11.7187 15.9354 11.2701 16.3062 10.6945C16.6771 10.1189 16.875 9.44224 16.875 8.75C16.875 7.82175 16.5194 6.93151 15.8865 6.27513C15.2536 5.61875 14.3951 5.25 13.5 5.25Z" fill="#F9F9FF"/>
<path d="M40.5 15.75C39.165 15.75 37.8599 15.3395 36.7499 14.5703C35.6399 13.8011 34.7747 12.7079 34.2638 11.4288C33.7529 10.1497 33.6193 8.74224 33.8797 7.38437C34.1402 6.0265 34.783 4.77922 35.727 3.80026C36.671 2.82129 37.8738 2.1546 39.1831 1.88451C40.4925 1.61441 41.8497 1.75303 43.0831 2.28285C44.3165 2.81266 45.3707 3.70987 46.1124 4.86101C46.8541 6.01216 47.25 7.36553 47.25 8.75C47.25 10.6065 46.5388 12.387 45.273 13.6998C44.0071 15.0125 42.2902 15.75 40.5 15.75ZM40.5 5.25C39.8325 5.25 39.18 5.45527 38.625 5.83986C38.0699 6.22444 37.6374 6.77107 37.3819 7.41061C37.1265 8.05015 37.0596 8.75389 37.1899 9.43282C37.3201 10.1118 37.6415 10.7354 38.1135 11.2249C38.5855 11.7144 39.1869 12.0477 39.8416 12.1828C40.4963 12.3178 41.1749 12.2485 41.7916 11.9836C42.4083 11.7187 42.9354 11.2701 43.3062 10.6945C43.6771 10.1189 43.875 9.44224 43.875 8.75C43.875 7.82175 43.5194 6.93151 42.8865 6.27513C42.2536 5.61875 41.3951 5.25 40.5 5.25Z" fill="#F9F9FF"/>
<path d="M43.875 52.5H37.125C36.2299 52.5 35.3715 52.1313 34.7385 51.4749C34.1056 50.8185 33.75 49.9283 33.75 49V36.75H37.125V49H43.875V33.25H47.25V22.75C47.25 22.2859 47.0722 21.8408 46.7557 21.5126C46.4393 21.1844 46.0101 21 45.5625 21H34.7287L27 35L19.2713 21H8.4375C7.98995 21 7.56073 21.1844 7.24426 21.5126C6.92779 21.8408 6.75 22.2859 6.75 22.75V33.25H10.125V49H16.875V36.75H20.25V49C20.25 49.9283 19.8944 50.8185 19.2615 51.4749C18.6285 52.1313 17.7701 52.5 16.875 52.5H10.125C9.22989 52.5 8.37145 52.1313 7.73851 51.4749C7.10558 50.8185 6.75 49.9283 6.75 49V36.75C5.85489 36.75 4.99645 36.3813 4.36351 35.7249C3.73058 35.0685 3.375 34.1783 3.375 33.25V22.75C3.375 21.3576 3.90837 20.0223 4.85777 19.0377C5.80717 18.0531 7.09484 17.5 8.4375 17.5H21.2287L27 28L32.7713 17.5H45.5625C46.9052 17.5 48.1928 18.0531 49.1422 19.0377C50.0916 20.0223 50.625 21.3576 50.625 22.75V33.25C50.625 34.1783 50.2694 35.0685 49.6365 35.7249C49.0035 36.3813 48.1451 36.75 47.25 36.75V49C47.25 49.9283 46.8944 50.8185 46.2615 51.4749C45.6285 52.1313 44.7701 52.5 43.875 52.5Z" fill="#F9F9FF"/>
</svg>
