<svg width="54" height="56" viewBox="0 0 54 56" fill="none" xmlns="http://www.w3.org/2000/svg">
<path d="M32.7128 13.7095C34.1739 13.7095 35.6022 13.3074 36.8171 12.5542C38.032 11.801 38.9788 10.7305 39.538 9.47794C40.0971 8.2254 40.2434 6.84712 39.9584 5.51744C39.6733 4.18775 38.9697 2.96637 37.9366 2.00772C36.9034 1.04907 35.5871 0.39621 34.154 0.131719C32.721 -0.132773 31.2356 0.00295945 29.8857 0.521778C28.5358 1.0406 27.382 1.91919 26.5702 3.04645C25.7585 4.17371 25.3252 5.499 25.3252 6.85473C25.3288 8.6717 26.1083 10.4133 27.4929 11.6981C28.8776 12.9829 30.7546 13.7061 32.7128 13.7095V13.7095ZM32.7128 1.95789C33.7566 1.95789 34.7769 2.24509 35.6448 2.78316C36.5127 3.32123 37.1891 4.08601 37.5885 4.98079C37.988 5.87557 38.0925 6.86018 37.8888 7.81007C37.6852 8.75996 37.1826 9.63251 36.4445 10.3173C35.7064 11.0022 34.7661 11.4685 33.7423 11.6575C32.7186 11.8464 31.6575 11.7495 30.6932 11.3788C29.7288 11.0082 28.9046 10.3806 28.3247 9.57528C27.7448 8.77 27.4353 7.82324 27.4353 6.85473C27.4377 5.5567 27.9945 4.31247 28.9837 3.39462C29.9729 2.47677 31.3138 1.96012 32.7128 1.95789V1.95789Z" fill="#F9F9FF"/>
<path d="M53.5955 20.9387C53.4969 20.8204 53.3703 20.7248 53.2256 20.6591C53.0808 20.5934 52.9217 20.5594 52.7606 20.5597H48.5404V18.1008C48.5436 17.2006 48.3543 16.3088 47.9835 15.4769C47.6127 14.6451 47.0679 13.8897 46.3804 13.2545L44.0117 11.0439L42.5369 12.4418L44.9056 14.6397C45.3966 15.0934 45.7857 15.6328 46.0506 16.2269C46.3154 16.821 46.4506 17.4579 46.4485 18.1008V20.5597H44.2159C43.9683 18.9289 43.0958 17.4355 41.7582 16.3529C40.4207 15.2704 38.7076 14.6712 36.9327 14.665H28.4923C26.7172 14.6703 25.0036 15.2692 23.6658 16.3519C22.3281 17.4347 21.4559 18.9286 21.2092 20.5597H12.6599C12.4999 20.5605 12.3421 20.5949 12.1985 20.6605C12.0549 20.726 11.9292 20.8209 11.8309 20.9381C11.7326 21.0553 11.6643 21.1916 11.631 21.3368C11.5977 21.4821 11.6004 21.6324 11.6389 21.7766L13.749 29.6124C13.8064 29.8235 13.9379 30.0109 14.1227 30.1451C14.3076 30.2793 14.5353 30.3526 14.77 30.3534V33.3008C14.77 33.561 14.8814 33.8105 15.0797 33.9945C15.278 34.1785 15.5469 34.2818 15.8273 34.2818C16.1077 34.2818 16.3767 34.1785 16.5749 33.9945C16.7732 33.8105 16.8846 33.561 16.8846 33.3008V30.3534H48.5404V53.8524H15.8273C15.5469 53.8524 15.278 53.9557 15.0797 54.1397C14.8814 54.3237 14.77 54.5732 14.77 54.8334C14.77 55.0936 14.8814 55.3432 15.0797 55.5271C15.278 55.7111 15.5469 55.8145 15.8273 55.8145H49.5977C49.7364 55.8145 49.8736 55.7891 50.0017 55.7397C50.1297 55.6904 50.2459 55.618 50.3438 55.5269C50.4416 55.4357 50.519 55.3275 50.5717 55.2085C50.6243 55.0895 50.6511 54.9621 50.6505 54.8334V30.3534C50.886 30.3535 51.1147 30.2806 51.3005 30.1464C51.4863 30.0121 51.6185 29.8242 51.6761 29.6124L53.7861 21.7766C53.8247 21.6326 53.8276 21.4825 53.7946 21.3373C53.7616 21.1922 53.6935 21.0559 53.5955 20.9387V20.9387ZM28.4923 16.6439H36.9327C38.1488 16.645 39.3274 17.035 40.2697 17.7483C41.212 18.4616 41.8605 19.4545 42.1058 20.5597H23.3192C23.5645 19.4545 24.213 18.4616 25.1554 17.7483C26.0977 17.035 27.2762 16.645 28.4923 16.6439ZM49.8201 28.3955H15.5959L14.0122 22.5008H51.4129L49.8201 28.3955Z" fill="#F9F9FF"/>
<path d="M20.0476 49.9373C19.7798 49.9536 19.5286 50.0638 19.3452 50.2456C19.1617 50.4274 19.0596 50.6671 19.0596 50.9162C19.0596 51.1653 19.1617 51.405 19.3452 51.5868C19.5286 51.7686 19.7798 51.8789 20.0476 51.8952H45.3777C45.6569 51.8952 45.9247 51.7923 46.1222 51.6091C46.3196 51.4259 46.4305 51.1774 46.4305 50.9183V33.2931C46.4311 33.1644 46.4043 33.0369 46.3517 32.9179C46.299 32.7989 46.2216 32.6908 46.1238 32.5996C46.0259 32.5085 45.9097 32.4361 45.7817 32.3868C45.6536 32.3374 45.5164 32.312 45.3777 32.312H20.0476C19.7798 32.3283 19.5286 32.4386 19.3452 32.6203C19.1617 32.8021 19.0596 33.0419 19.0596 33.291C19.0596 33.54 19.1617 33.7798 19.3452 33.9616C19.5286 34.1434 19.7798 34.2536 20.0476 34.2699H44.3204V49.9373H20.0476Z" fill="#F9F9FF"/>
<path d="M16.8035 51.2926C16.8834 51.1131 16.904 50.9156 16.8628 50.7252C16.8216 50.5349 16.7204 50.3601 16.5721 50.2231L12.6605 46.5936V39.9663C13.1019 39.8199 13.503 39.5847 13.8348 39.2774C14.1667 38.9702 14.4212 38.5987 14.58 38.1894H17.3934L14.8568 43.6631C14.7989 43.785 14.771 43.9173 14.7751 44.0505V44.0505C14.8111 45.0674 15.2717 46.0314 16.0596 46.7389C16.8475 47.4465 17.9011 47.842 18.9976 47.842C20.0941 47.842 21.1476 47.4465 21.9355 46.7389C22.7235 46.0314 23.1841 45.0674 23.22 44.0505V44.0505C23.213 43.9835 23.1993 43.9172 23.1792 43.8526C23.1699 43.7915 23.1563 43.731 23.1383 43.6715V43.6715L19.9619 36.8168C19.8811 36.6421 19.747 36.4931 19.576 36.3883C19.405 36.2836 19.2047 36.2276 18.9998 36.2273H14.5845C14.3688 35.6556 13.9668 35.1602 13.4343 34.8098C12.9018 34.4593 12.2651 34.271 11.6123 34.271C10.9594 34.271 10.3227 34.4593 9.7902 34.8098C9.25771 35.1602 8.85578 35.6556 8.64 36.2273H4.22471C4.01918 36.2273 3.81813 36.2831 3.64637 36.3879C3.47461 36.4926 3.33966 36.6417 3.25815 36.8168V36.8168L0.0816843 43.6715C0.0719379 43.7076 0.0643618 43.7442 0.0589938 43.781C0.0237642 43.8688 0.00384771 43.9612 0 44.0547C0 45.0932 0.444624 46.0892 1.23606 46.8236C2.02749 47.5579 3.10091 47.9705 4.22017 47.9705C5.33943 47.9705 6.41285 47.5579 7.20428 46.8236C7.99572 46.0892 8.44034 45.0932 8.44034 44.0547V44.0547C8.4343 43.9614 8.41445 43.8693 8.38135 43.781C8.38135 43.7473 8.38135 43.7052 8.38135 43.6715L5.84924 38.1979H8.66269C8.82104 38.6067 9.07482 38.978 9.40587 39.2851C9.73692 39.5923 10.1371 39.8278 10.5777 39.9747V46.6021L6.66605 50.2315C6.51902 50.3693 6.41906 50.5443 6.3787 50.7345C6.33834 50.9248 6.35937 51.1218 6.43916 51.301C6.51839 51.4794 6.65303 51.632 6.82596 51.7392C6.99888 51.8464 7.20227 51.9035 7.41025 51.9031H15.8551C16.0601 51.8981 16.2591 51.8377 16.4276 51.7292C16.596 51.6207 16.7267 51.469 16.8035 51.2926ZM20.5608 43.0863H17.4252L18.9953 39.6926L20.5608 43.0863ZM18.9908 46.0336C18.6221 46.0319 18.2605 45.9403 17.9419 45.7681C17.6234 45.596 17.3591 45.3493 17.1756 45.0526H20.8286C20.6411 45.3497 20.3724 45.5957 20.0498 45.7657C19.7271 45.9357 19.3618 46.0238 18.9908 46.021V46.0336ZM11.6077 36.24C11.8168 36.24 12.0213 36.2975 12.1951 36.4053C12.369 36.5131 12.5045 36.6663 12.5846 36.8456C12.6646 37.0248 12.6855 37.2221 12.6447 37.4124C12.6039 37.6027 12.5032 37.7775 12.3554 37.9147C12.2075 38.0519 12.0191 38.1454 11.814 38.1832C11.6089 38.2211 11.3963 38.2016 11.2031 38.1274C11.0099 38.0531 10.8448 37.9274 10.7286 37.7661C10.6124 37.6047 10.5504 37.415 10.5504 37.221C10.5486 37.0911 10.5746 36.9622 10.627 36.8417C10.6793 36.7212 10.7569 36.6116 10.8552 36.5191C10.9536 36.4267 11.0708 36.3533 11.1999 36.3032C11.3291 36.2531 11.4677 36.2273 11.6077 36.2273V36.24ZM4.22017 39.6758L5.78571 43.0652H2.65462L4.22017 39.6758ZM4.22017 45.9915C3.85173 45.9889 3.49042 45.897 3.17204 45.7249C2.85366 45.5529 2.58926 45.3066 2.40504 45.0105H6.06252C5.88007 45.3158 5.61316 45.5704 5.2893 45.748C4.96545 45.9256 4.59638 46.0199 4.22017 46.021V45.9915ZM9.93328 49.9073L11.6077 48.3536L13.2822 49.9073H9.93328Z" fill="#F9F9FF"/>
</svg>
