<svg width="1302" height="257" viewBox="0 0 1302 257" fill="none" xmlns="http://www.w3.org/2000/svg">
<g clip-path="url(#clip0_971_951)">
<path d="M6.08984 244C6.81883 242.725 7.81083 241.621 8.99984 240.76H68.1698C69.3298 240.76 70.9698 242.88 71.6498 243.95L6.08984 244Z" fill="white"/>
<path d="M0 250.331V257.001H77.16V250.331C77.16 249.631 75.42 247.911 74.55 247.141H2.9C2.17911 247.371 1.53156 247.787 1.02249 248.347C0.513416 248.907 0.160765 249.591 0 250.331H0Z" fill="white"/>
<path d="M204.5 242.501C205.226 241.241 206.215 240.153 207.4 239.311H266.57C267.73 239.311 269.38 241.431 270.05 242.501H204.5Z" fill="white"/>
<path d="M198.41 248.879V255.549H275.56V248.879C275.56 248.179 273.82 246.459 272.95 245.689H201.31C200.589 245.92 199.942 246.336 199.433 246.896C198.924 247.456 198.571 248.14 198.41 248.879V248.879Z" fill="white"/>
<path d="M50.7598 240.47H60.9098C67.9098 224.22 126.47 161.38 156.35 139.23C106.92 171.72 65.3598 220.26 50.7598 240.47Z" fill="white"/>
<path d="M165.34 128.211C90.3397 160.211 36.8397 216.211 19.4297 240.211H45.2497C51.9197 226.251 121 154.321 165.34 128.211Z" fill="white"/>
<path d="M181 80.6406L196.67 110.231C93.1703 150.371 33.6503 211.461 16.8203 237.001C20.9803 228.001 35.5603 198.541 60.6203 152.601C95.4303 111.731 155.38 87.6006 181 80.6406Z" fill="white"/>
<path d="M139.23 0L65.8496 141.55C102.51 102.1 156.93 82.38 179.55 77.45L139.23 0Z" fill="white"/>
<path d="M214.3 142.579L176.19 163.129C173.3 161.659 174.24 157.809 175.08 156.129C184.9 150.719 205.37 139.499 208.66 137.869C213.57 138.209 214.46 141.159 214.3 142.579Z" fill="white"/>
<path d="M211 227.001L249.11 206.461C252 207.931 251.06 211.781 250.23 213.521C240.4 218.921 219.93 230.131 216.63 231.751C211.7 231.381 210.8 228.441 211 227.001Z" fill="white"/>
<path fill-rule="evenodd" clip-rule="evenodd" d="M110.63 248.001C113.43 247.381 114.94 247.001 121.4 243.471C124.74 241.631 133.69 236.261 144.4 229.841C160.77 220.031 181.26 207.751 192.19 201.751L188.19 194.301L114.48 231.881L113.48 232.481C110.68 234.071 108.9 235.081 104.01 239.611L104.08 239.731C101.25 239.401 94.9604 243.021 93.3604 246.411C90.2604 252.941 97.0904 254.271 99.7504 254.141C101.677 253.854 103.524 253.173 105.176 252.141C106.827 251.109 108.249 249.747 109.35 248.141L108.22 246.271C108.75 247.081 109.22 247.781 109.48 248.271L110.63 248.001Z" fill="white"/>
<path d="M224.9 157.85L183.41 180.17C184.41 182.09 185.85 182.4 186.47 182.31C198.88 175.67 224.02 162.22 225.3 161.58C225.514 160.967 225.589 160.315 225.52 159.67C225.451 159.025 225.239 158.403 224.9 157.85V157.85Z" fill="white"/>
<path d="M201.34 212.24L242.54 189.39C241.54 187.48 240.08 187.2 239.45 187.29C227.13 194.09 202.17 207.86 200.9 208.51C200.691 209.125 200.622 209.779 200.698 210.425C200.774 211.07 200.994 211.69 201.34 212.24V212.24Z" fill="white"/>
<path d="M225.05 162.18L186.8 182.48L188.25 185.02L226.5 164.32L225.05 162.18Z" fill="white"/>
<path d="M238 184.801L199.69 205.001L201.13 207.551L239.45 186.981L238 184.801Z" fill="white"/>
<path d="M237.55 184.43L227 164.59L188.62 185.1C188.862 185.883 189.166 186.645 189.53 187.38C188.902 188.306 188.466 189.349 188.247 190.446C188.029 191.544 188.034 192.674 188.26 193.77L192.18 201.14C193.87 202.86 196.78 203.14 198.03 203.07L198.94 204.68L237.55 184.43Z" fill="white"/>
<path d="M185.4 177.1C190.87 166.31 183.2 164.19 178.57 164.31C187.13 159.31 208.14 148.62 214.06 144.98C209.46 154.6 216.06 156.98 222.06 156.98C213.31 161.85 192.24 173 185.4 177.1Z" fill="white"/>
<path d="M211.13 224.56C215 216.56 209.96 212.25 205.13 212.38C214.08 207.16 233.54 196.06 239.75 192.23C234.93 202.36 241.75 205.46 246.47 205.23C237.3 210.36 218.29 220.22 211.13 224.56Z" fill="white"/>
<path d="M348.53 110.52C347.993 111.613 347.882 112.868 348.22 114.04C348.529 114.963 349.152 115.748 349.98 116.26C350.715 116.751 351.576 117.022 352.46 117.04H353.39V118.04H331.24V117.04H332.17C333.916 116.994 335.616 116.475 337.09 115.54C338.958 114.333 340.419 112.59 341.28 110.54L348.53 110.52ZM370.79 43.5195L371.2 56.1495L345.52 117.75H338L364.81 57.0795C365.02 56.6695 365.38 55.8895 365.9 54.7495C366.42 53.6095 366.97 52.3195 367.56 50.8695C368.15 49.4195 368.68 48.0195 369.16 46.6795C369.567 45.6713 369.81 44.6045 369.88 43.5195H370.79ZM381.66 93.4195V97.7695H351.22V93.4295L381.66 93.4195ZM370.79 43.5195L404.64 117.44H386L364.47 63.5095L370.79 43.5195ZM383.21 110.52H401.33C402.245 112.552 403.714 114.285 405.57 115.52C407.025 116.458 408.71 116.977 410.44 117.02H411.27V118.02H378.35V117.02H379.28C379.972 117.016 380.654 116.861 381.28 116.565C381.905 116.27 382.458 115.841 382.9 115.31C383.94 114.183 384.044 112.586 383.21 110.52V110.52Z" fill="white"/>
<path d="M421 53.1601H420.69C420.651 51.4212 419.933 49.7666 418.69 48.5501C418.092 47.935 417.374 47.4484 416.582 47.12C415.789 46.7916 414.938 46.6283 414.08 46.6401H412.74V45.6401H421V53.1601ZM421 110.52V118.07H412.72V117.07H414.06C414.919 117.082 415.771 116.918 416.564 116.588C417.357 116.258 418.073 115.768 418.67 115.15C419.912 113.937 420.63 112.286 420.67 110.55L421 110.52ZM436.22 45.6001V118.07H420.69V45.6001H436.22ZM442.64 45.6001C447.207 45.5387 451.759 46.1485 456.15 47.4101C459.747 48.3914 462.994 50.367 465.52 53.1101C467.8 55.7034 468.94 59.1034 468.94 63.3101C469.022 66.1092 468.4 68.8842 467.13 71.3801C466.04 73.4633 464.41 75.2146 462.41 76.4501C460.553 77.5994 458.474 78.3423 456.31 78.6301C459.616 78.8576 462.823 79.8503 465.68 81.5301C468.412 83.1234 470.677 85.4062 472.25 88.1501C473.891 91.1288 474.713 94.49 474.63 97.8901C474.749 101.903 473.466 105.832 471 109C468.31 112.18 464.773 114.531 460.8 115.78C455.871 117.381 450.711 118.148 445.53 118.05H435.29C435.36 116.47 435.39 114.91 435.39 113.4H441C443.842 113.456 446.659 112.854 449.23 111.64C451.629 110.45 453.587 108.527 454.82 106.15C456.267 103.189 456.954 99.9135 456.82 96.6201C456.892 93.9656 456.418 91.3246 455.43 88.8601C454.624 86.889 453.379 85.1277 451.79 83.7102C450.201 82.2927 448.31 81.2564 446.26 80.6801C444.144 80.0532 441.947 79.7399 439.74 79.7501V78.8201C441.326 78.8205 442.9 78.5569 444.4 78.0401C445.916 77.5211 447.309 76.6937 448.49 75.6101C449.774 74.3895 450.751 72.8816 451.34 71.2101C452.064 69.0943 452.403 66.8656 452.34 64.6301C452.462 61.715 451.915 58.8106 450.74 56.1401C449.775 54.1097 448.15 52.4668 446.13 51.4801C443.956 50.4789 441.583 49.9832 439.19 50.0301H425.76C425.694 49.6291 425.607 49.2319 425.5 48.8401C425.33 48.1201 425.07 47.0301 424.73 45.5801L442.64 45.6001Z" fill="white"/>
<path d="M489.44 110.721V118.071H480.84V117.071H482.84C484.512 117.058 486.112 116.388 487.294 115.205C488.477 114.023 489.147 112.423 489.16 110.751L489.44 110.721ZM488.92 44.0508L503.83 59.8908L503.93 118.071H489.13V57.0008C489.084 52.6597 488.665 48.3305 487.88 44.0608L488.92 44.0508ZM488.92 44.0508L555 107.001L556.25 119.521L490.16 56.6808L488.92 44.0508ZM503.92 110.721C503.928 112.395 504.596 113.997 505.78 115.181C506.963 116.365 508.566 117.033 510.24 117.041H512.24V118.041H503.65V110.691L503.92 110.721ZM532.82 45.6008H541.41V53.0008H541.2C541.171 51.3098 540.486 49.6963 539.29 48.5008C538.702 47.9066 537.998 47.4394 537.223 47.1281C536.447 46.8168 535.615 46.6679 534.78 46.6908H532.78L532.82 45.6008ZM555.9 45.6008V106.271C555.889 108.571 555.996 110.871 556.22 113.161C556.42 115.161 556.73 117.321 557.15 119.521H556.22L541.22 102.751V45.6008H555.9ZM564.19 45.6008V46.6008H562.32C561.495 46.5884 560.675 46.7423 559.911 47.0533C559.146 47.3643 558.452 47.8259 557.87 48.4108C557.256 48.992 556.764 49.6888 556.421 50.4611C556.077 51.2333 555.89 52.0659 555.87 52.9108H555.56V45.6008H564.19Z" fill="white"/>
<path d="M578.27 53.1602H578C577.961 51.4214 577.243 49.7668 576 48.5502C575.402 47.9352 574.684 47.4486 573.892 47.1202C573.099 46.7918 572.248 46.6285 571.39 46.6402H570V45.6402H578.28L578.27 53.1602ZM578.27 110.52V118.07H570V117.07H571.34C572.199 117.082 573.051 116.918 573.844 116.588C574.637 116.258 575.354 115.769 575.95 115.15C577.192 113.937 577.91 112.286 577.95 110.55L578.27 110.52ZM593.49 45.6002V118.07H578V45.6002H593.49ZM622.06 45.6002V50.0502H593.18V45.6002H622.06ZM617 80.1802V84.5302H593.18V80.1802H617ZM620.83 113.62L623.32 118.07H593.18V113.62H620.83ZM628.39 96.8502L623.63 118.07H603.33L607.06 113.62C610.213 113.695 613.338 113.009 616.17 111.62C618.836 110.244 621.141 108.261 622.9 105.83C624.872 103.098 626.376 100.056 627.35 96.8302L628.39 96.8502ZM617 70.4502V80.3902H607.16V80.1802C608.336 80.1833 609.501 79.9513 610.586 79.498C611.672 79.0446 612.655 78.379 613.48 77.5402C614.309 76.7039 614.959 75.7082 615.393 74.6134C615.826 73.5185 616.032 72.3472 616 71.1702V70.4502H617ZM617 84.3202V94.2602H616V93.4302C616.04 92.2647 615.841 91.1033 615.415 90.0179C614.988 88.9325 614.343 87.9463 613.52 87.1202C612.689 86.2941 611.703 85.64 610.618 85.1956C609.534 84.7512 608.372 84.5251 607.2 84.5302V84.3202H617ZM622.07 43.7402V46.7402L609.43 45.6002C611.041 45.5959 612.651 45.4924 614.25 45.2902C615.943 45.0769 617.513 44.8369 618.96 44.5702C620.018 44.3969 621.057 44.1188 622.06 43.7402H622.07ZM622.07 49.7402V61.8602H621.07V60.6102C621.121 59.213 620.892 57.8197 620.396 56.5126C619.899 55.2055 619.146 54.0112 618.18 53.0002C617.159 52.0121 615.952 51.2377 614.628 50.7226C613.304 50.2074 611.89 49.9618 610.47 50.0002V49.7902L622.07 49.7402Z" fill="white"/>
<path d="M632.52 43.6294C633.545 44.0023 634.603 44.2802 635.68 44.4594C637.09 44.7394 638.68 44.9794 640.39 45.1894C641.969 45.3836 643.558 45.4871 645.15 45.4994L632.52 46.6394V43.6294ZM698.78 45.4994V49.8494H632.52V45.4994H698.78ZM644.01 49.4994V49.8094C642.609 49.776 641.216 50.0194 639.91 50.5257C638.604 51.0319 637.411 51.791 636.4 52.7594C635.427 53.7841 634.672 54.996 634.182 56.3215C633.692 57.6469 633.477 59.0581 633.549 60.4694V61.6094L632.549 61.7094V49.5394L644.01 49.4994ZM658.2 110.499V118.049H649.909V117.049H651.26C652.118 117.061 652.97 116.897 653.763 116.566C654.556 116.236 655.273 115.747 655.87 115.129C657.108 113.914 657.826 112.264 657.87 110.529L658.2 110.499ZM673.419 45.8894V118.049H657.89V45.9094L673.419 45.8894ZM673.099 110.499H673.419C673.458 112.235 674.176 113.887 675.419 115.099C676.014 115.71 676.727 116.193 677.514 116.52C678.302 116.846 679.147 117.01 680 116.999H681.349V117.999H673.099V110.499ZM698.78 43.6094V46.6094L686.15 45.4994C687.758 45.4903 689.364 45.3868 690.96 45.1894C692.65 44.9794 694.23 44.7394 695.68 44.4594C696.74 44.2944 697.779 44.0161 698.78 43.6294V43.6094ZM698.78 49.5194V61.7494L697.78 61.6494V60.5094C697.852 59.0981 697.637 57.6869 697.147 56.3615C696.657 55.036 695.903 53.8241 694.93 52.7994C693.902 51.8243 692.692 51.0618 691.369 50.5556C690.046 50.0493 688.636 49.8093 687.219 49.8494V49.5394L698.78 49.5194Z" fill="white"/>
<path d="M754.69 44.1492C756.07 44.1492 757.78 44.2192 759.81 44.3592C761.84 44.4992 763.95 44.6892 766.13 44.9292C768.31 45.1692 770.2 45.4092 771.82 45.6492C772.97 45.7784 774.101 46.0401 775.19 46.4292L773.95 60.4292H772.95C773.003 58.7755 772.669 57.1322 771.975 55.6303C771.28 54.1285 770.245 52.8098 768.95 51.7792C766.284 49.6125 762.747 48.5259 758.34 48.5192C754.34 48.5192 751.114 49.4859 748.66 51.4192C747.535 52.2251 746.603 53.2713 745.931 54.482C745.26 55.6928 744.867 57.0377 744.78 58.4192C744.732 59.4046 744.885 60.3896 745.228 61.3143C745.572 62.2391 746.1 63.0845 746.78 63.7992C748.311 65.4611 750.068 66.8987 752 68.0692L771.77 80.9092C774.852 82.526 777.384 85.0226 779.043 88.0817C780.703 91.1408 781.415 94.6242 781.09 98.0892C780.744 104.863 778.154 110.126 773.32 113.879C768.487 117.633 761.93 119.513 753.65 119.519C750.683 119.529 747.721 119.271 744.8 118.749C742.191 118.306 739.639 117.574 737.19 116.569C735.23 115.8 733.437 114.659 731.91 113.209C731.326 111.441 731.081 109.578 731.19 107.719C731.268 105.514 731.604 103.326 732.19 101.199C732.663 99.2705 733.414 97.421 734.42 95.7092H735.35C735.044 99.0877 735.707 102.483 737.26 105.499C738.805 108.489 741.18 110.968 744.1 112.639C747.364 114.466 751.073 115.346 754.81 115.179C759.37 115.106 762.89 113.949 765.37 111.709C766.55 110.711 767.496 109.465 768.14 108.06C768.785 106.655 769.113 105.125 769.1 103.579C769.116 101.487 768.441 99.4488 767.18 97.7792C765.471 95.6881 763.337 93.9838 760.92 92.7792L742.8 80.7792C739.392 78.9751 736.604 76.1877 734.8 72.7792C733.131 69.5251 732.437 65.8583 732.8 62.2192C733.075 58.8467 734.178 55.594 736.01 52.7492C737.846 49.9871 740.406 47.7833 743.41 46.3792C746.953 44.7905 750.81 44.028 754.69 44.1492V44.1492ZM775.29 45.1492L775.08 47.3192H762.87V45.1892L775.29 45.1492Z" fill="white"/>
<path d="M831.61 44.1504C839.897 44.1504 847.094 45.6871 853.2 48.7604C859.088 51.6264 864.015 56.1432 867.38 61.7604C870.714 67.3537 872.38 74.0504 872.38 81.8504C872.38 89.6504 870.714 96.3171 867.38 101.85C864.02 107.472 859.092 111.99 853.2 114.85C847.094 117.917 839.897 119.45 831.61 119.45C823.324 119.45 816.12 117.94 810 114.92C804.121 112.058 799.206 107.539 795.86 101.92C792.527 96.3271 790.86 89.6337 790.86 81.8404C790.86 74.0471 792.527 67.3804 795.86 61.8404C799.201 56.2179 804.117 51.6982 810 48.8404C816.134 45.7204 823.337 44.1571 831.61 44.1504ZM831.61 115.15C836.163 115.261 840.617 113.818 844.24 111.06C847.975 108.034 850.805 104.038 852.42 99.5104C854.471 93.84 855.455 87.8388 855.32 81.8104C855.455 75.7786 854.472 69.774 852.42 64.1004C850.806 59.5753 847.975 55.5826 844.24 52.5604C840.575 49.9021 836.163 48.4707 831.635 48.4707C827.108 48.4707 822.696 49.9021 819.03 52.5604C815.271 55.5706 812.422 59.5658 810.8 64.1004C808.749 69.774 807.765 75.7786 807.9 81.8104C807.766 87.8388 808.749 93.84 810.8 99.5104C812.407 104.056 815.246 108.065 819 111.09C822.621 113.838 827.066 115.28 831.61 115.18V115.15Z" fill="white"/>
<path d="M887.42 53.1596H887.11C887.07 51.4207 886.353 49.7662 885.11 48.5496C884.511 47.9346 883.794 47.448 883.001 47.1195C882.209 46.7911 881.358 46.6278 880.5 46.6396H879.16V45.6396H887.44L887.42 53.1596ZM887.42 110.52V118.07H879.14V117.07H880.48C881.338 117.082 882.191 116.918 882.984 116.588C883.777 116.257 884.493 115.768 885.09 115.15C886.332 113.937 887.05 112.285 887.09 110.55L887.42 110.52ZM902.64 45.5996V118.07H887.11V45.5996H902.64ZM902.33 53.1596V45.5996H910.61V46.5996H909.26C908.403 46.5874 907.553 46.7506 906.762 47.0791C905.971 47.4075 905.256 47.8944 904.66 48.5096C903.417 49.7262 902.699 51.3807 902.66 53.1196L902.33 53.1596ZM930 113.62L932.49 118.07H902.33V113.62H930ZM937.56 96.8496L932.8 118.07H912.5L916.23 113.62C919.383 113.695 922.508 113.008 925.34 111.62C928.006 110.243 930.311 108.26 932.07 105.83C934.042 103.097 935.545 100.056 936.52 96.8296L937.56 96.8496Z" fill="white"/>
<path d="M983.6 44.1504C991.88 44.1504 999.077 45.6871 1005.19 48.7604C1011.08 51.6292 1016 56.1454 1019.37 61.7604C1022.7 67.3537 1024.37 74.0504 1024.37 81.8504C1024.37 89.6504 1022.7 96.3171 1019.37 101.85C1016.01 107.47 1011.08 111.987 1005.19 114.85C999.083 117.917 991.887 119.45 983.6 119.45C975.313 119.45 968.113 117.94 962 114.92C956.123 112.058 951.212 107.539 947.87 101.92C944.537 96.3271 942.87 89.6337 942.87 81.8404C942.87 74.0471 944.537 67.3804 947.87 61.8404C951.207 56.2182 956.12 51.6983 962 48.8404C968.12 45.7204 975.32 44.1571 983.6 44.1504ZM983.6 115.15C988.152 115.261 992.607 113.818 996.23 111.06C999.965 108.034 1002.8 104.038 1004.41 99.5104C1006.46 93.84 1007.44 87.8388 1007.31 81.8104C1007.45 75.7786 1006.46 69.774 1004.41 64.1004C1002.8 59.5753 999.965 55.5826 996.23 52.5604C992.565 49.9021 988.153 48.4707 983.625 48.4707C979.097 48.4707 974.685 49.9021 971.02 52.5604C967.261 55.5706 964.412 59.5658 962.79 64.1004C960.738 69.774 959.755 75.7786 959.89 81.8104C959.756 87.8388 960.739 93.84 962.79 99.5104C964.4 104.057 967.242 108.067 971 111.09C974.618 113.836 979.059 115.278 983.6 115.18V115.15Z" fill="white"/>
<path d="M1038.48 110.52V118.07H1027V117.07H1028.66C1030.47 117.097 1032.24 116.493 1033.66 115.36C1034.39 114.773 1035 114.045 1035.44 113.218C1035.89 112.392 1036.16 111.485 1036.25 110.55L1038.48 110.52ZM1044.79 44.1504H1045.72L1049.35 54.5004L1042.41 118.07H1035.16L1044.79 44.1504ZM1043.03 112.15V112.67C1043.04 113.801 1043.46 114.889 1044.22 115.73C1044.56 116.164 1044.99 116.514 1045.48 116.755C1045.98 116.996 1046.52 117.121 1047.07 117.12H1048.62V118.05H1042.31V112.15H1043.03ZM1045.72 44.1504L1079.58 99.7504L1073.68 120.15L1043 68.6904L1045.72 44.1504ZM1108.72 44.1504L1109.55 55.4404L1078.8 108.76C1077.64 110.75 1076.64 112.826 1075.8 114.97C1075.15 116.621 1074.81 118.377 1074.8 120.15H1073.8L1069.8 111.15L1108.72 44.1504ZM1102.2 112.15H1102.92V118.05H1096.61V117.12H1098.16C1098.72 117.131 1099.27 117.011 1099.77 116.769C1100.28 116.528 1100.72 116.172 1101.06 115.73C1101.79 114.877 1102.19 113.793 1102.2 112.67V112.15V112.15ZM1109.65 44.1504L1119.49 118.07H1102.82L1097.64 70.4504L1108.72 44.1504H1109.65ZM1116.28 110.52H1118.45C1118.7 112.411 1119.67 114.133 1121.15 115.33C1122.53 116.429 1124.24 117.018 1126 117H1127.66V118H1116.27L1116.28 110.52Z" fill="white"/>
<path d="M1171.41 44.1504C1179.7 44.1504 1186.89 45.6871 1193 48.7604C1198.89 51.6264 1203.81 56.1432 1207.18 61.7604C1210.51 67.3537 1212.18 74.0504 1212.18 81.8504C1212.18 89.6504 1210.51 96.3171 1207.18 101.85C1203.82 107.472 1198.89 111.99 1193 114.85C1186.89 117.917 1179.7 119.45 1171.41 119.45C1163.12 119.45 1155.93 117.917 1149.83 114.85C1143.95 111.988 1139.04 107.469 1135.69 101.85C1132.36 96.2571 1130.69 89.5637 1130.69 81.7704C1130.69 73.9771 1132.36 67.3104 1135.69 61.7704C1139.03 56.1479 1143.95 51.6282 1149.83 48.7704C1155.94 45.6971 1163.14 44.1571 1171.41 44.1504ZM1171.41 115.15C1175.96 115.261 1180.42 113.818 1184.04 111.06C1187.77 108.034 1190.6 104.038 1192.22 99.5104C1194.27 93.84 1195.25 87.8388 1195.12 81.8104C1195.25 75.7786 1194.27 69.774 1192.22 64.1004C1190.59 59.5815 1187.74 55.5992 1184 52.5904C1180.33 49.9321 1175.92 48.5007 1171.39 48.5007C1166.87 48.5007 1162.45 49.9321 1158.79 52.5904C1155.03 55.6006 1152.18 59.5958 1150.56 64.1304C1148.51 69.804 1147.52 75.8086 1147.66 81.8404C1147.53 87.8688 1148.51 93.87 1150.56 99.5404C1152.18 104.079 1155.03 108.077 1158.79 111.09C1162.41 113.841 1166.86 115.282 1171.41 115.18V115.15Z" fill="white"/>
<path d="M1226.29 110.721V118.071H1217.69V117.071H1219.69C1221.36 117.058 1222.96 116.388 1224.14 115.205C1225.33 114.023 1226 112.423 1226.01 110.751L1226.29 110.721ZM1225.77 44.0508L1240.68 59.8908L1240.78 118.071H1226V57.0008C1225.95 52.6597 1225.54 48.3305 1224.75 44.0608L1225.77 44.0508ZM1225.77 44.0508L1291.77 107.051L1293.02 119.571L1227 56.6808L1225.77 44.0508ZM1240.77 110.721C1240.78 112.393 1241.45 113.993 1242.64 115.175C1243.82 116.358 1245.42 117.028 1247.09 117.041H1249.09V118.041H1240.5V110.691L1240.77 110.721ZM1269.66 45.6008H1278.25V53.0008H1278.04C1278.01 51.3089 1277.33 49.6939 1276.13 48.5008C1275.54 47.9066 1274.84 47.4394 1274.06 47.1281C1273.29 46.8168 1272.46 46.6679 1271.62 46.6908H1269.62L1269.66 45.6008ZM1292.75 45.6008V106.271C1292.74 108.571 1292.84 110.871 1293.06 113.161C1293.26 115.161 1293.57 117.321 1293.99 119.521H1293.06L1278.06 102.751V45.6008H1292.75ZM1301.03 45.6008V46.6008H1299.16C1298.33 46.5896 1297.52 46.744 1296.75 47.0549C1295.99 47.3658 1295.29 47.8268 1294.71 48.4108C1294.09 48.9903 1293.6 49.6867 1293.26 50.4594C1292.91 51.232 1292.73 52.0654 1292.71 52.9108H1292.39V45.6008H1301.03Z" fill="white"/>
<path d="M555.05 169.36H554.79C554.749 167.898 554.139 166.509 553.09 165.49C552.589 164.972 551.987 164.561 551.321 164.285C550.656 164.008 549.941 163.87 549.22 163.88H548.09V163H555.09L555.05 169.36ZM555.05 217.5V223.85H548.05V223H549.18C549.901 223.01 550.616 222.872 551.281 222.595C551.947 222.319 552.549 221.908 553.05 221.39C554.099 220.371 554.709 218.982 554.75 217.52L555.05 217.5ZM567.82 163V223.84H554.82V163H567.82ZM567.56 169.35V163H574.56V163.87H573.43C572.709 163.86 571.994 163.998 571.328 164.275C570.663 164.551 570.061 164.962 569.56 165.48C568.507 166.497 567.896 167.887 567.86 169.35H567.56ZM590.77 220.1L592.85 223.84H567.56V220.1H590.77ZM597.11 206L593.11 223.82H576.11L579.24 220.08C581.888 220.136 584.511 219.556 586.89 218.39C589.127 217.229 591.061 215.561 592.54 213.52C594.185 211.234 595.446 208.694 596.27 206H597.11Z" fill="white"/>
<path d="M610.15 217.5C609.691 218.433 609.598 219.503 609.89 220.5C610.152 221.274 610.671 221.933 611.36 222.37C611.983 222.777 612.706 223.002 613.45 223.02H614.23V223.89H595.63V223H596.42C597.882 222.961 599.306 222.526 600.54 221.74C602.114 220.723 603.341 219.251 604.06 217.52L610.15 217.5ZM628.83 161.27L629.18 171.88L607.63 223.59H601.28L623.79 172.66C623.97 172.31 624.27 171.66 624.7 170.66C625.13 169.66 625.6 168.66 626.1 167.4C626.6 166.14 627.04 165.01 627.44 163.88C627.786 163.036 627.993 162.141 628.05 161.23L628.83 161.27ZM638 203.16V206.81H612.41V203.16H638ZM628.87 161.27L657.29 223.33H641.61L623.53 178.05L628.87 161.27ZM639.3 217.5H654.51C655.28 219.215 656.517 220.677 658.08 221.72C659.298 222.508 660.71 222.945 662.16 222.98H662.85V223.85H635.18V223H636C636.573 222.991 637.138 222.859 637.655 222.612C638.173 222.365 638.632 222.01 639 221.57C639.873 220.597 639.96 219.24 639.26 217.5H639.3Z" fill="white"/>
<path d="M671.77 169.269H657.6C656.996 167.534 655.794 166.07 654.21 165.139C652.921 164.361 651.454 163.927 649.95 163.879H649.26V162.999H675.77V163.869H675C674.443 163.875 673.894 164.002 673.391 164.242C672.888 164.482 672.444 164.829 672.09 165.259C671.236 166.192 671.13 167.529 671.77 169.269ZM655.43 163.529H669.59L683.5 202.819L678.29 225.409L655.43 163.529ZM698.88 161.619L700.45 170.219L681.15 215.769C680.545 217.445 680.038 219.155 679.63 220.889C679.304 222.375 679.116 223.888 679.07 225.409H678.29L675.85 215.069L698.1 161.619H698.88ZM698.88 161.709L718 203.999L713.83 225.459L692.89 179.139L698.88 161.709ZM732.52 163.529L716.18 215.769C715.682 217.487 715.288 219.234 715 220.999C714.77 222.45 714.683 223.921 714.74 225.389H713.87L711.44 216.789L726.65 163.509L732.52 163.529ZM725 169.269C725.46 167.529 725.31 166.199 724.56 165.269C724.224 164.829 723.789 164.473 723.291 164.232C722.792 163.99 722.244 163.869 721.69 163.879H720.91V162.999H739V163.869H738.3C736.771 163.924 735.28 164.357 733.96 165.129C732.358 166.02 731.17 167.502 730.65 169.259L725 169.269Z" fill="white"/>
<path d="M796.74 161.79C803 161.636 809.208 162.962 814.86 165.66C819.801 168.068 823.938 171.858 826.77 176.57C829.54 181.75 830.99 187.535 830.99 193.41C830.99 199.285 829.54 205.069 826.77 210.25C823.949 214.98 819.81 218.785 814.86 221.2C809.159 223.751 802.985 225.069 796.74 225.069C790.495 225.069 784.32 223.751 778.62 221.2C773.689 218.795 769.567 215.003 766.76 210.29C764.021 205.099 762.59 199.318 762.59 193.45C762.59 187.581 764.021 181.8 766.76 176.61C769.548 171.859 773.673 168.034 778.62 165.61C784.276 162.931 790.483 161.623 796.74 161.79V161.79ZM796.74 221.42C800.562 221.519 804.304 220.312 807.35 218C810.481 215.459 812.854 212.107 814.21 208.31C817.463 198.67 817.463 188.229 814.21 178.59C812.854 174.792 810.481 171.44 807.35 168.9C804.273 166.663 800.568 165.458 796.765 165.458C792.961 165.458 789.256 166.663 786.18 168.9C783.027 171.43 780.635 174.784 779.27 178.59C776.03 188.231 776.03 198.668 779.27 208.31C780.635 212.115 783.027 215.469 786.18 218C789.213 220.298 792.935 221.503 796.74 221.42Z" fill="white"/>
<path d="M843.59 169.36H843.33C843.294 167.897 842.683 166.507 841.63 165.49C841.13 164.973 840.53 164.563 839.866 164.286C839.203 164.009 838.489 163.871 837.77 163.88H836.64V163H843.64L843.59 169.36ZM843.59 217.5V223.85H836.59V223H837.72C838.439 223.009 839.153 222.871 839.816 222.594C840.48 222.318 841.08 221.908 841.58 221.39C842.633 220.374 843.244 218.983 843.28 217.52L843.59 217.5ZM856.37 163V223.84H843.37V163H856.37ZM880.37 163V166.74H856.1V163H880.37ZM876.11 192V195.65H856.11V192H876.11ZM856.11 217.46H856.38C856.412 218.922 857.019 220.313 858.07 221.33C858.571 221.848 859.173 222.259 859.838 222.536C860.504 222.813 861.219 222.95 861.94 222.94H863.07V223.81H856.07L856.11 217.46ZM876.11 183.83V192.17H867.86V192C868.847 192.002 869.824 191.806 870.734 191.425C871.644 191.044 872.469 190.484 873.16 189.78C873.849 189.076 874.39 188.241 874.749 187.323C875.108 186.406 875.278 185.425 875.25 184.44V183.83H876.11ZM876.11 195.48V203.82H875.25V203.12C875.281 202.141 875.112 201.166 874.752 200.254C874.393 199.343 873.851 198.515 873.16 197.82C871.75 196.424 869.844 195.644 867.86 195.65V195.48H876.11ZM880.37 161.41V164L869.77 163C871.107 162.992 872.443 162.905 873.77 162.74C875.19 162.57 876.51 162.36 877.77 162.13C878.651 161.991 879.515 161.763 880.35 161.45L880.37 161.41ZM880.37 166.41V176.05H879.5V175.19C879.588 174.05 879.429 172.903 879.033 171.83C878.636 170.757 878.013 169.782 877.204 168.973C876.396 168.164 875.422 167.539 874.349 167.141C873.276 166.744 872.13 166.583 870.99 166.67V166.41H880.37Z" fill="white"/>
<path d="M895.39 169.36H895.13C895.09 167.898 894.48 166.509 893.43 165.49C892.929 164.972 892.328 164.562 891.662 164.285C890.996 164.008 890.281 163.87 889.56 163.88H888.44V163H895.39V169.36ZM895.39 217.5V223.85H888.44V223H889.56C890.281 223.01 890.996 222.873 891.662 222.596C892.328 222.319 892.929 221.908 893.43 221.39C894.48 220.371 895.09 218.982 895.13 217.52L895.39 217.5ZM908.16 163V223.84H895.16V163H908.16ZM932.16 163V166.74H907.9V163H932.16ZM927.9 192V195.65H907.9V192H927.9ZM907.9 217.46H908.16C908.201 218.922 908.811 220.311 909.86 221.33C910.361 221.848 910.963 222.259 911.629 222.536C912.294 222.813 913.01 222.95 913.73 222.94H914.86V223.81H907.86L907.9 217.46ZM927.9 183.83V192.17H919.65V192C920.637 192.002 921.614 191.806 922.524 191.425C923.434 191.044 924.259 190.484 924.95 189.78C925.638 189.076 926.177 188.24 926.535 187.322C926.892 186.405 927.061 185.424 927.03 184.44V183.83H927.9ZM927.9 195.48V203.82H927V203.12C927.033 202.142 926.866 201.167 926.508 200.255C926.151 199.344 925.61 198.515 924.92 197.82C923.51 196.424 921.605 195.644 919.62 195.65V195.48H927.9ZM932.16 161.41V164L921.56 163C922.898 162.992 924.233 162.905 925.56 162.74C926.98 162.57 928.3 162.36 929.51 162.13C930.412 161.996 931.296 161.768 932.15 161.45L932.16 161.41ZM932.16 166.41V176.05H931.29V175.19C931.379 174.049 931.219 172.902 930.823 171.828C930.426 170.754 929.801 169.779 928.992 168.969C928.182 168.159 927.207 167.535 926.133 167.138C925.059 166.741 923.912 166.582 922.77 166.67V166.41H932.16Z" fill="white"/>
<path d="M947.19 169.36H946.93C946.89 167.898 946.28 166.509 945.23 165.49C944.729 164.972 944.128 164.561 943.462 164.285C942.796 164.008 942.081 163.87 941.36 163.88H940.23V163H947.23L947.19 169.36ZM947.19 217.5V223.85H940.19V223H941.32C942.041 223.01 942.756 222.872 943.422 222.595C944.088 222.319 944.689 221.908 945.19 221.39C946.24 220.371 946.85 218.982 946.89 217.52L947.19 217.5ZM960 163V223.84H947V163H960ZM959.74 169.35V163H966.69V163.87H965.56C964.841 163.861 964.128 163.999 963.464 164.276C962.8 164.553 962.2 164.962 961.7 165.48C960.647 166.497 960.037 167.887 960 169.35H959.74ZM959.74 217.49H960C960.037 218.953 960.647 220.343 961.7 221.36C962.2 221.878 962.8 222.287 963.464 222.564C964.128 222.841 964.841 222.979 965.56 222.97H966.69V223.84H959.7L959.74 217.49Z" fill="white"/>
<path d="M1031.23 198.47L1032.01 213.42C1030.66 215.65 1028.92 217.621 1026.88 219.24C1024.49 221.114 1021.78 222.543 1018.88 223.46C1015.22 224.601 1011.41 225.144 1007.58 225.07C1001.18 225.156 994.835 223.834 989 221.2C983.928 218.881 979.652 215.117 976.71 210.38C973.81 205.713 972.36 200.046 972.36 193.38C972.205 187.491 973.679 181.674 976.62 176.57C979.512 171.798 983.763 167.998 988.83 165.66C994.13 163.106 1000.46 161.83 1007.83 161.83C1012.03 161.781 1016.22 162.251 1020.3 163.23C1023.51 163.977 1026.62 165.112 1029.56 166.61L1029.65 181.48H1028.86C1027.3 175.74 1024.75 171.64 1021.21 169.18C1017.56 166.679 1013.21 165.385 1008.79 165.48C1004.57 165.359 1000.41 166.542 996.88 168.87C993.472 171.264 990.818 174.58 989.23 178.43C987.325 183.118 986.409 188.15 986.54 193.21C986.434 198.26 987.31 203.283 989.12 208C990.593 211.863 993.123 215.234 996.42 217.73C999.672 220.081 1003.58 221.361 1007.59 221.39C1011.47 221.504 1015.33 220.76 1018.89 219.21C1022.07 217.657 1024.67 215.132 1026.32 212C1028.49 207.753 1029.91 203.167 1030.53 198.44L1031.23 198.47Z" fill="white"/>
<path d="M1046.61 169.36H1046.35C1046.31 167.899 1045.71 166.51 1044.66 165.49C1044.16 164.972 1043.56 164.562 1042.89 164.285C1042.23 164.008 1041.51 163.87 1040.79 163.88H1039.66V163H1046.61V169.36ZM1046.61 217.5V223.85H1039.66V223H1040.79C1041.51 223.01 1042.23 222.873 1042.89 222.596C1043.56 222.319 1044.16 221.908 1044.66 221.39C1045.71 220.37 1046.31 218.981 1046.35 217.52L1046.61 217.5ZM1059.39 163V223.84H1046.39V163H1059.39ZM1083.39 163V166.74H1059.14V163H1083.39ZM1079.13 192V195.65H1059.13V192H1079.13ZM1082.34 220.07L1084.43 223.81H1059.14V220.07H1082.34ZM1088.69 205.99L1084.69 223.81H1067.69L1070.81 220.07C1073.46 220.128 1076.08 219.549 1078.46 218.38C1080.7 217.221 1082.63 215.553 1084.11 213.51C1085.76 211.227 1087.03 208.686 1087.85 205.99H1088.69ZM1079.13 183.83V192.17H1070.87V192C1071.86 192.002 1072.83 191.806 1073.74 191.425C1074.65 191.044 1075.48 190.484 1076.17 189.78C1076.86 189.076 1077.4 188.241 1077.76 187.323C1078.12 186.406 1078.29 185.425 1078.26 184.44V183.83H1079.13ZM1079.13 195.48V203.82H1078.26V203.12C1078.29 202.141 1078.12 201.166 1077.76 200.254C1077.4 199.343 1076.86 198.515 1076.17 197.82C1074.76 196.424 1072.85 195.644 1070.87 195.65V195.48H1079.13ZM1083.39 161.41V164L1072.78 163C1074.12 162.992 1075.45 162.905 1076.78 162.74C1078.2 162.57 1079.52 162.36 1080.78 162.13C1081.67 161.992 1082.54 161.764 1083.38 161.45L1083.39 161.41ZM1083.39 166.41V176.58H1082.52V175.58C1082.57 174.403 1082.39 173.227 1081.98 172.123C1081.57 171.018 1080.94 170.007 1080.13 169.15C1079.27 168.321 1078.26 167.672 1077.14 167.239C1076.03 166.807 1074.84 166.6 1073.65 166.63V166.46L1083.39 166.41Z" fill="white"/>
<path d="M331.24 166.65H536.96" stroke="white" stroke-width="3" stroke-miterlimit="10"/>
<path d="M331.24 179.67H536.96" stroke="white" stroke-width="3" stroke-miterlimit="10"/>
<path d="M331.24 191.57H536.96" stroke="white" stroke-width="3" stroke-miterlimit="10"/>
<path d="M331.24 203.48H536.96" stroke="white" stroke-width="3" stroke-miterlimit="10"/>
<path d="M331.24 215.391H536.96" stroke="white" stroke-width="3" stroke-miterlimit="10"/>
<path d="M1095.31 166.65H1301.04" stroke="white" stroke-width="3" stroke-miterlimit="10"/>
<path d="M1095.31 179.67H1301.04" stroke="white" stroke-width="3" stroke-miterlimit="10"/>
<path d="M1095.31 191.57H1301.04" stroke="white" stroke-width="3" stroke-miterlimit="10"/>
<path d="M1095.31 203.48H1301.04" stroke="white" stroke-width="3" stroke-miterlimit="10"/>
<path d="M1095.31 215.391H1301.04" stroke="white" stroke-width="3" stroke-miterlimit="10"/>
</g>
<defs>
<clipPath id="clip0_971_951">
<rect width="1301.04" height="257" fill="white"/>
</clipPath>
</defs>
</svg>
