<svg width="51" height="42" viewBox="0 0 51 42" fill="none" xmlns="http://www.w3.org/2000/svg">
<path d="M31.5344 1.76989C30.5235 1.77719 29.5199 1.82649 28.4598 2.11136C27.305 2.42564 26.2092 2.92713 25.2159 3.59597C23.8206 2.77423 22.4691 2.09858 21.1741 1.93971C19.5658 1.74067 18.0722 1.84841 16.3364 1.88493C14.2782 1.92693 12.9358 2.98058 10.7574 3.82423C8.58075 4.66423 5.77757 5.47867 1.82143 5.47867H0V23.0548L1.02546 23.5679L4.38236 25.2241L16.3364 38.5765L16.3929 38.6331C17.7589 39.9881 19.6022 40.3241 21.2306 40.2309C22.8607 40.1396 24.3908 39.6612 25.6129 38.9198C28.3032 37.2928 35.6308 32.1852 35.6308 32.1852L35.802 32.0702L35.9167 31.9569C36.7837 31.0932 37.2191 30.0395 37.5105 28.9329L44.5102 25.394L49.7469 23.6263L51 23.2246V5.47867H49.1786C46.1168 5.49966 43.0807 4.91769 40.2426 3.7658C38.0642 2.91302 36.7419 1.87032 34.6618 1.82649C33.5507 1.80458 32.5416 1.76258 31.5326 1.76989H31.5344ZM31.589 5.42206C32.4087 5.41476 33.3558 5.45858 34.5507 5.47867C34.7419 5.48597 36.4923 6.23467 38.933 7.19154C40.9967 8.00415 43.8636 8.72545 47.3571 8.95919V20.6005L43.1442 22.0285H43.0312L42.9165 22.0833L37.3976 24.8808C37.1046 24.0334 36.6395 23.2562 36.0315 22.5982L35.9167 22.4266L28.1757 12.8981L27.0373 11.4701L25.6129 12.6114L20.7187 16.6068C19.0758 17.7481 17.7444 17.4195 16.3929 16.7785C16.0012 16.5922 16.0231 16.5356 15.7098 16.322L24.021 9.41571L24.1339 9.30249C26.602 6.84823 28.1192 5.9991 29.427 5.65032C30.0827 5.47136 30.773 5.42936 31.5909 5.42206H31.589ZM18.8991 5.47867C19.5069 5.4557 20.1154 5.47462 20.7206 5.53528C21.1978 5.59189 21.7387 5.9991 22.2014 6.16345C22.0156 6.3351 21.8808 6.43371 21.6877 6.61997L21.5748 6.73502L11.6134 15.0072L10.0761 16.2635L11.4422 17.6897C11.4422 17.6897 12.7591 19.1177 14.8009 20.0874C16.8428 21.057 19.9956 21.6067 22.8261 19.6308L22.9409 19.5158L26.469 16.6068L33.1864 24.8808L33.2429 24.9959L33.2994 25.0507C34.5015 26.2431 34.4742 28.1185 33.2994 29.3328C33.2848 29.3456 33.3139 29.3748 33.2994 29.3876C33.2848 29.3968 33.0444 29.5392 33.0152 29.5611L30.6237 26.307L27.6639 28.4764L29.9989 31.6136C29.0518 32.2564 28.6256 32.5924 27.6074 33.2699L25.1612 29.9592L22.1996 32.1286L24.5346 35.2658C24.327 35.3936 23.9008 35.6803 23.7369 35.7808C23.1613 36.1295 22.0502 36.5222 21.0612 36.5788C20.1304 36.6299 19.4183 36.4144 19.0704 36.1222L19.0139 36.0656L6.83218 22.5416L6.6045 22.2549L3.64286 20.7721V8.95919C7.12179 8.73093 10.0106 8.03884 12.067 7.24815C14.5004 6.31319 16.238 5.54258 16.4493 5.53528L18.8973 5.47867H18.8991Z" fill="#566CFB"/>
</svg>
