<svg width="54" height="44" viewBox="0 0 54 44" fill="none" xmlns="http://www.w3.org/2000/svg">
<path d="M33.3894 1.85391C32.319 1.86156 31.2564 1.91321 30.1339 2.21165C28.9112 2.54089 27.7509 3.06626 26.6991 3.76695C25.2219 2.90608 23.7909 2.19826 22.4196 2.03182C20.7167 1.8233 19.1353 1.93617 17.2974 1.97443C15.1181 2.01843 13.6967 3.12226 11.3901 4.00608C9.0855 4.88608 6.11743 5.7393 1.92857 5.7393H0V24.1523L1.08579 24.6899L4.64014 26.425L17.2974 40.4132L17.3571 40.4725C18.8036 41.892 20.7553 42.244 22.4794 42.1464C24.2055 42.0508 25.8255 41.5496 27.1196 40.7729C29.9681 39.0683 37.7267 33.7176 37.7267 33.7176L37.908 33.597L38.0295 33.4784C38.9475 32.5736 39.4084 31.4697 39.717 30.3104L47.1285 26.603L52.6731 24.7511L54 24.3303V5.7393H52.0714C48.8296 5.76129 45.6149 5.15161 42.6099 3.94487C40.3033 3.05148 38.9031 1.95913 36.7007 1.91321C35.5243 1.89026 34.4559 1.84626 33.3874 1.85391H33.3894ZM33.4472 5.68C34.3151 5.67234 35.3179 5.71826 36.5831 5.7393C36.7856 5.74695 38.6389 6.5313 41.2232 7.53374C43.4083 8.38504 46.4439 9.14069 50.1429 9.38556V21.5812L45.6821 23.0772H45.5625L45.441 23.1346L39.5974 26.0654C39.2872 25.1776 38.7947 24.3634 38.151 23.6741L38.0295 23.4943L29.8331 13.512L28.6277 12.016L27.1196 13.2116L21.9375 17.3974C20.1979 18.593 18.7881 18.2487 17.3571 17.5772C16.9425 17.3821 16.9656 17.3228 16.6339 17.099L25.434 9.86382L25.5536 9.74521C28.1668 7.17408 29.7733 6.28452 31.158 5.91913C31.8523 5.73165 32.5832 5.68765 33.4491 5.68H33.4472ZM20.0109 5.7393C20.6543 5.71524 21.2987 5.73506 21.9394 5.79861C22.4447 5.85791 23.0175 6.28452 23.5074 6.45669C23.3106 6.63652 23.1679 6.73982 22.9635 6.93495L22.8439 7.05547L12.2966 15.7216L10.6689 17.0377L12.1153 18.5318C12.1153 18.5318 13.5096 20.0278 15.6716 21.0436C17.8335 22.0595 21.1719 22.6353 24.1689 20.5654L24.2904 20.4449L28.026 17.3974L35.1386 26.0654L35.1984 26.1859L35.2581 26.2433C36.531 27.4925 36.5021 29.4572 35.2581 30.7294C35.2427 30.7428 35.2736 30.7734 35.2581 30.7868C35.2427 30.7963 34.9881 30.9456 34.9573 30.9685L32.4251 27.5595L29.2911 29.8322L31.7636 33.1188C30.7607 33.7922 30.3094 34.1442 29.2314 34.8539L26.6413 31.3856L23.5054 33.6583L25.9779 36.9449C25.758 37.0788 25.3067 37.3791 25.1331 37.4843C24.5237 37.8497 23.3473 38.261 22.3001 38.3203C21.3146 38.3739 20.5605 38.1482 20.1921 37.8421L20.1324 37.7828L7.23407 23.6148L6.993 23.3144L3.85714 21.761V9.38556C7.54071 9.14643 10.5994 8.42139 12.7768 7.59304C15.3534 6.61356 17.1932 5.80626 17.4169 5.79861L20.0089 5.7393H20.0109Z" fill="#566CFB"/>
</svg>
