<svg width="906" height="959" viewBox="0 0 906 959" fill="none" xmlns="http://www.w3.org/2000/svg">
<path d="M127.376 105.672C55.3792 182.731 30.0363 297.169 13.3331 410.457C-3.37019 523.17 -10.8579 635.307 30.6123 729.618C72.6584 823.929 163.662 900.988 267.338 936.067C371.589 971.146 488.512 965.395 586.427 922.84C684.343 880.285 762.675 801.501 822.001 707.191C881.326 612.88 920.492 503.617 900.909 407.006C880.75 309.82 801.842 225.861 714.293 152.252C626.745 78.069 529.982 14.2367 422.851 2.16033C315.719 -9.91604 198.797 29.1884 127.376 105.672Z" fill="url(#paint0_linear_543:6208)" fill-opacity="0.1"/>
<defs>
<linearGradient id="paint0_linear_543:6208" x1="906" y1="959" x2="-79.3826" y2="864.337" gradientUnits="userSpaceOnUse">
<stop stop-color="#4B79A1"/>
<stop offset="0.19843" stop-color="#3594B6"/>
<stop offset="0.403365" stop-color="#24AEBF"/>
<stop offset="0.580183" stop-color="#3FC7BE"/>
<stop offset="0.776131" stop-color="#71DEB5"/>
</linearGradient>
</defs>
</svg>
