<svg width="54" height="56" viewBox="0 0 54 56" fill="none" xmlns="http://www.w3.org/2000/svg">
<path d="M49.7043 9.73926H34.9771V13.3914H49.7043V51.7393H34.9771V55.3914H53.3861V13.3914C53.3861 12.4228 52.9982 11.4939 52.3078 10.809C51.6173 10.124 50.6808 9.73926 49.7043 9.73926V9.73926Z" fill="#566CFB"/>
<path d="M29.2336 0.608887H3.90273C2.86766 0.608887 1.87499 1.01675 1.14308 1.74277C0.411179 2.46878 0 3.45346 0 4.48019V55.3915H33.1364V4.48019C33.1364 3.45346 32.7252 2.46878 31.9933 1.74277C31.2614 1.01675 30.2687 0.608887 29.2336 0.608887V0.608887ZM29.4545 51.7393H23.9318V46.2611H9.20455V51.7393H3.68182V4.48019C3.68182 4.45141 3.68753 4.42292 3.69863 4.39633C3.70974 4.36975 3.72601 4.34559 3.74652 4.32524C3.76703 4.30489 3.79139 4.28875 3.81819 4.27774C3.84499 4.26673 3.87372 4.26106 3.90273 4.26106H29.2336C29.2626 4.26106 29.2914 4.26673 29.3182 4.27774C29.345 4.28875 29.3693 4.30489 29.3898 4.32524C29.4104 4.34559 29.4266 4.36975 29.4377 4.39633C29.4488 4.42292 29.4545 4.45141 29.4545 4.48019V51.7393Z" fill="#566CFB"/>
<path d="M7.36377 9.73926H11.0456V13.3914H7.36377V9.73926Z" fill="#566CFB"/>
<path d="M14.7271 9.73926H18.4089V13.3914H14.7271V9.73926Z" fill="#566CFB"/>
<path d="M22.0908 9.73926H25.7726V13.3914H22.0908V9.73926Z" fill="#566CFB"/>
<path d="M7.36377 18.8696H11.0456V22.5218H7.36377V18.8696Z" fill="#566CFB"/>
<path d="M14.7271 18.8696H18.4089V22.5218H14.7271V18.8696Z" fill="#566CFB"/>
<path d="M22.0908 18.8696H25.7726V22.5218H22.0908V18.8696Z" fill="#566CFB"/>
<path d="M7.36377 28H11.0456V31.6522H7.36377V28Z" fill="#566CFB"/>
<path d="M14.7271 28H18.4089V31.6522H14.7271V28Z" fill="#566CFB"/>
<path d="M22.0908 28H25.7726V31.6522H22.0908V28Z" fill="#566CFB"/>
<path d="M7.36377 37.1304H11.0456V40.7825H7.36377V37.1304Z" fill="#566CFB"/>
<path d="M14.7271 37.1304H18.4089V40.7825H14.7271V37.1304Z" fill="#566CFB"/>
<path d="M22.0908 37.1304H25.7726V40.7825H22.0908V37.1304Z" fill="#566CFB"/>
<path d="M34.9771 18.8696H38.6589V22.5218H34.9771V18.8696Z" fill="#566CFB"/>
<path d="M42.3408 18.8696H46.0226V22.5218H42.3408V18.8696Z" fill="#566CFB"/>
<path d="M34.9771 28H38.6589V31.6522H34.9771V28Z" fill="#566CFB"/>
<path d="M42.3408 28H46.0226V31.6522H42.3408V28Z" fill="#566CFB"/>
<path d="M34.9771 37.1304H38.6589V40.7825H34.9771V37.1304Z" fill="#566CFB"/>
<path d="M42.3408 37.1304H46.0226V40.7825H42.3408V37.1304Z" fill="#566CFB"/>
</svg>
