<svg width="54" height="56" viewBox="0 0 54 56" fill="none" xmlns="http://www.w3.org/2000/svg">
<path d="M3.72998 42.4474C3.72998 44.3559 4.27575 46.2215 5.29827 47.8083C6.32078 49.3951 7.7741 50.6318 9.47441 51.362C11.1747 52.0921 13.0457 52.2829 14.8506 51.9103C16.6555 51.5377 18.3133 50.6183 19.6143 49.2685C20.9154 47.9187 21.8011 46.1991 22.1597 44.3272C22.5182 42.4553 22.3334 40.5152 21.6286 38.7522C20.9238 36.9892 19.7307 35.4826 18.2001 34.4229C16.6695 33.3632 14.8703 32.798 13.03 32.7988C10.5637 32.8021 8.1995 33.8199 6.45598 35.6287C4.71247 37.4376 3.7321 39.8898 3.72998 42.4474V42.4474ZM20.474 42.4474C20.474 43.9742 20.0374 45.4668 19.2195 46.7363C18.4015 48.0058 17.2389 48.9952 15.8787 49.5795C14.5185 50.1638 13.0217 50.3167 11.5777 50.0188C10.1337 49.7209 8.80735 48.9857 7.76628 47.9061C6.72522 46.8265 6.01626 45.4509 5.72903 43.9535C5.4418 42.456 5.58922 40.9038 6.15264 39.4932C6.71606 38.0826 7.67015 36.877 8.89431 36.0287C10.1185 35.1805 11.5577 34.7277 13.03 34.7277C15.0039 34.7288 16.8967 35.5425 18.2925 36.99C19.6883 38.4375 20.4729 40.4004 20.474 42.4474V42.4474Z" fill="#566CFB"/>
<path d="M40.938 1.97505e-05C38.5151 0.00363074 36.1413 0.708281 34.0835 2.0347C32.0257 3.36112 30.3656 5.25669 29.29 7.50817C28.97 7.62017 28.654 7.73217 28.294 7.84832C27.3678 8.18807 26.5657 8.81698 25.998 9.64861H23.266C22.5234 9.64861 21.8112 9.95454 21.2861 10.4991C20.761 11.0436 20.466 11.7822 20.466 12.5523V12.9091L18.41 13.1745C18.196 12.362 17.7801 11.622 17.2039 11.0285C16.6277 10.4349 15.9113 10.0086 15.1264 9.79212C14.3415 9.57566 13.5156 9.57665 12.7312 9.79498C11.9468 10.0133 11.2314 10.4413 10.6565 11.0363C10.0816 11.6312 9.66729 12.3722 9.45511 13.1852C9.24292 13.9982 9.24025 14.8548 9.44732 15.6692C9.6544 16.4836 10.064 17.2274 10.6351 17.8262C11.2063 18.425 11.919 18.8579 12.702 19.0815L12.442 21.2136H12.102C11.3594 21.2136 10.6472 21.5196 10.1221 22.0641C9.59702 22.6087 9.30201 23.3472 9.30201 24.1173V26.963C8.49799 27.5575 7.89039 28.3948 7.56202 29.3606C7.45402 29.7091 7.34602 30.0368 7.23802 30.3645C4.60623 31.7178 2.49293 33.9542 1.24131 36.7102C-0.010296 39.4663 -0.326712 42.5802 0.343487 45.5462C1.01369 48.5123 2.63113 51.1563 4.93311 53.0488C7.2351 54.9413 10.0864 55.9712 13.024 55.9712C15.9616 55.9712 18.8129 54.9413 21.1149 53.0488C23.4169 51.1563 25.0344 48.5123 25.7045 45.5462C26.3747 42.5802 26.0583 39.4663 24.8067 36.7102C23.5551 33.9542 21.4418 31.7178 18.81 30.3645C18.702 30.0326 18.594 29.7049 18.478 29.3357C18.1545 28.3808 17.5554 27.5524 16.762 26.963V24.1173C16.757 23.4156 16.5071 22.7395 16.0585 22.2141C15.61 21.6887 14.9931 21.3495 14.322 21.2593L14.566 19.2308C15.5807 19.0941 16.5233 18.6131 17.2468 17.8628C17.9703 17.1124 18.4342 16.135 18.566 15.0827L20.522 14.8296C20.609 15.5256 20.9361 16.1653 21.4427 16.6305C21.9494 17.0957 22.6013 17.3548 23.278 17.36H26.01C26.5842 18.1982 27.3968 18.8291 28.334 19.1645C28.67 19.2765 28.986 19.3885 29.302 19.5005C30.3338 21.6558 31.9025 23.4858 33.8456 24.8012C35.7886 26.1165 38.0354 26.8692 40.3533 26.9815C42.6711 27.0937 44.9757 26.5613 47.0285 25.4394C49.0813 24.3176 50.8076 22.6471 52.0286 20.6008C53.2495 18.5546 53.9209 16.2071 53.973 13.8014C54.0251 11.3957 53.4562 9.01925 52.3251 6.91819C51.194 4.81714 49.5418 3.06786 47.5397 1.85149C45.5376 0.635127 43.2584 -0.00409605 40.938 1.97505e-05V1.97505e-05ZM24.194 42.448C24.194 44.7378 23.5393 46.9762 22.3126 48.8801C21.0858 50.784 19.3423 52.2679 17.3023 53.1442C15.2623 54.0205 13.0176 54.2498 10.852 53.803C8.68643 53.3563 6.69718 52.2537 5.13587 50.6345C3.57456 49.0154 2.51129 46.9525 2.08052 44.7067C1.64976 42.4609 1.87085 40.133 2.71583 38.0175C3.5608 35.902 4.99173 34.0938 6.82764 32.8217C8.66355 31.5495 10.822 30.8705 13.03 30.8705C15.9899 30.8738 18.8277 32.0947 20.9207 34.2651C23.0136 36.4356 24.1909 39.3785 24.194 42.448V42.448ZM13.03 28.9416C11.885 28.9445 10.7456 29.1064 9.64202 29.4228C9.89084 28.9514 10.2623 28.562 10.714 28.2987C11.1086 28.0874 11.546 27.9765 11.99 27.9751H14.074C14.516 27.979 14.9513 28.0882 15.346 28.2945C15.8002 28.5591 16.1742 28.9499 16.426 29.4228C15.3198 29.1061 14.1776 28.9442 13.03 28.9416ZM14.894 24.1173V26.1458C14.6307 26.0884 14.363 26.0551 14.094 26.0462H12.01C11.7254 26.0487 11.4416 26.0779 11.162 26.1333V24.1173C11.1631 23.8613 11.2616 23.6161 11.4362 23.4351C11.6107 23.2541 11.8472 23.1519 12.094 23.1508H12.202L12.102 23.9805C12.0702 24.2335 12.1367 24.4892 12.2867 24.6915C12.4367 24.8937 12.658 25.0259 12.902 25.059H13.022C13.2459 25.0583 13.462 24.9741 13.631 24.8218C13.7999 24.6695 13.9103 24.4592 13.942 24.2293L14.07 23.1716C14.2957 23.1961 14.5046 23.3063 14.6567 23.4808C14.8088 23.6554 14.8933 23.8821 14.894 24.1173V24.1173ZM14.802 17.2148L14.886 16.5179C14.9156 16.2658 14.8482 16.0117 14.6985 15.8106C14.5488 15.6095 14.3288 15.4777 14.086 15.4436C13.8428 15.415 13.5983 15.4856 13.4043 15.6404C13.2103 15.7952 13.0818 16.0221 13.046 16.2732L12.942 17.1485C12.5022 16.979 12.1105 16.6976 11.8029 16.3301C11.4954 15.9627 11.2818 15.5209 11.1817 15.0455C11.0817 14.5701 11.0985 14.0763 11.2306 13.6094C11.3626 13.1425 11.6057 12.7175 11.9375 12.3734C12.2693 12.0293 12.6791 11.7773 13.1294 11.6403C13.5796 11.5034 14.0558 11.4859 14.5142 11.5897C14.9726 11.6934 15.3986 11.9149 15.7529 12.2339C16.1072 12.5528 16.3786 12.959 16.542 13.4151L15.698 13.5271C15.4559 13.5479 15.2314 13.6663 15.0725 13.8568C14.9136 14.0474 14.8332 14.295 14.8483 14.5464C14.8635 14.7978 14.9732 15.033 15.1537 15.2015C15.3343 15.3701 15.5713 15.4584 15.814 15.4477H15.93L16.602 15.3606C16.4639 15.7948 16.2289 16.1891 15.9161 16.5113C15.6034 16.8335 15.2216 17.0745 14.802 17.2148V17.2148ZM22.362 14.5932L23.386 14.4646C23.6235 14.4236 23.8364 14.2889 23.9803 14.0888C24.1241 13.8886 24.1877 13.6385 24.1577 13.3908C24.1278 13.1431 24.0065 12.9171 23.8194 12.76C23.6323 12.6029 23.3939 12.527 23.154 12.5482L22.354 12.656V12.5399C22.354 12.4131 22.3781 12.2877 22.425 12.1706C22.4719 12.0536 22.5406 11.9473 22.6272 11.8579C22.7138 11.7685 22.8166 11.6977 22.9297 11.6496C23.0427 11.6014 23.1638 11.577 23.286 11.5775H25.242C25.1867 11.8506 25.1545 12.1282 25.146 12.4071V14.5683C25.1543 14.8541 25.1864 15.1386 25.242 15.4187H23.286C23.0616 15.4209 22.8441 15.3384 22.674 15.1865C22.504 15.0346 22.3931 14.8237 22.362 14.5932V14.5932ZM27.302 15.9082C27.0983 15.499 26.9914 15.0454 26.99 14.5849V12.4445C26.9936 11.9874 27.099 11.5374 27.298 11.1295C27.5526 10.6569 27.9294 10.2676 28.386 10.0054C28.0793 11.1524 27.9219 12.3368 27.918 13.5271C27.9194 14.7023 28.0686 15.8723 28.362 17.0074C27.9174 16.7483 27.5495 16.3682 27.298 15.9082H27.302ZM40.942 25.0839C38.734 25.0839 36.5755 24.4049 34.7396 23.1327C32.9037 21.8606 31.4728 20.0524 30.6278 17.9369C29.7829 15.8214 29.5618 13.4935 29.9925 11.2477C30.4233 9.00192 31.4866 6.93901 33.0479 5.31987C34.6092 3.70073 36.5984 2.59809 38.764 2.15137C40.9296 1.70465 43.1743 1.93392 45.2143 2.81019C47.2542 3.68646 48.9978 5.17038 50.2245 7.07429C51.4513 8.97819 52.106 11.2166 52.106 13.5064C52.1028 16.5766 50.9251 19.5201 48.8312 21.6907C46.7374 23.8613 43.8986 25.0817 40.938 25.0839H40.942Z" fill="#566CFB"/>
<path d="M40.9383 3.85742C39.0981 3.85742 37.2993 4.4233 35.7693 5.4835C34.2392 6.5437 33.0467 8.05061 32.3425 9.81366C31.6383 11.5767 31.4541 13.5167 31.8131 15.3884C32.1721 17.26 33.0582 18.9792 34.3593 20.3286C35.6605 21.678 37.3184 22.5969 39.1232 22.9692C40.928 23.3415 42.7987 23.1504 44.4987 22.4202C46.1988 21.6899 47.6519 20.4532 48.6743 18.8665C49.6966 17.2798 50.2423 15.4143 50.2423 13.506C50.2391 10.9481 49.2578 8.49581 47.5137 6.68707C45.7695 4.87832 43.4049 3.86071 40.9383 3.85742V3.85742ZM40.9383 21.2216C39.4658 21.2216 38.0264 20.7687 36.8022 19.9203C35.5779 19.0718 34.6238 17.8659 34.0605 16.4551C33.4972 15.0443 33.35 13.4919 33.6376 11.9943C33.9251 10.4967 34.6345 9.1212 35.676 8.04174C36.7175 6.96229 38.0442 6.22739 39.4885 5.92999C40.9327 5.63259 42.4296 5.78606 43.7897 6.37098C45.1499 6.9559 46.3122 7.946 47.1297 9.21605C47.9472 10.4861 48.3831 11.979 48.3823 13.506C48.3802 15.5524 47.5951 17.5142 46.1994 18.9608C44.8037 20.4074 42.9115 21.2205 40.9383 21.2216V21.2216Z" fill="#566CFB"/>
</svg>
