<svg width="147" height="147" viewBox="0 0 147 147" fill="none" xmlns="http://www.w3.org/2000/svg">
<circle cx="73.5" cy="73.5" r="73.5" fill="white"/>
<path d="M107.465 50.834V50.8332C107.465 47.8646 105.029 45.4165 102 45.4165H46C42.9614 45.4165 40.5 47.8743 40.5 50.8332V92.3332C40.5 95.292 42.9614 97.7498 46 97.7498H95H95.6161L96.0543 98.1828L107.498 109.49L107.465 50.834ZM84.5 76.5415H83V75.0415V68.1248V66.6248H84.5H91.5H93V68.1248V75.0415V76.5415H91.5H84.5ZM70.5 76.5415H69V75.0415V68.1248V66.6248H70.5H77.5H79V68.1248V75.0415V76.5415H77.5H70.5ZM56.5 76.5415H55V75.0415V68.1248V66.6248H56.5H63.5H65V68.1248V75.0415V76.5415H63.5H56.5Z" stroke="#566CFB" stroke-width="3"/>
</svg>
