<svg width="44" height="44" viewBox="0 0 44 44" fill="none" xmlns="http://www.w3.org/2000/svg">
<g clip-path="url(#clip0_1051_891)">
<path d="M22.2787 34.1257C22.8543 34.5455 22.9808 35.3558 22.5537 35.9297L21.0742 37.9317C20.68 38.4707 19.8238 38.6173 19.2665 38.2085C18.6908 37.785 18.5643 36.9765 18.9878 36.4008L20.471 34.3988C20.8908 33.8305 21.6993 33.6985 22.2787 34.1257V34.1257ZM13.2422 32.208L14.7217 30.2152C15.1433 29.6395 15.0223 28.831 14.443 28.4057C13.8637 27.9803 13.057 28.1068 12.6353 28.6825L11.1577 30.6772C10.736 31.251 10.8588 32.0632 11.4345 32.4867C11.9808 32.8863 12.8425 32.7543 13.2422 32.208V32.208ZM17.8548 32.4977L16.379 34.4887C15.9555 35.0662 16.082 35.8765 16.6558 36.3C17.2077 36.7052 18.0675 36.5658 18.4653 36.0232L19.9412 34.0285C20.3647 33.4547 20.24 32.6443 19.6643 32.219C19.0905 31.7973 18.2838 31.9202 17.8548 32.4977ZM24.387 36.3788C24.1523 36.9325 23.5217 37.7098 23.0908 38.2928C23.375 38.4395 23.6573 38.5 23.9177 38.5C24.9113 38.5 25.5713 37.5632 24.6785 36.6703L24.387 36.3788V36.3788ZM15.246 30.591L13.7573 32.6003C13.3357 33.176 13.4695 33.968 14.0433 34.3933C14.608 34.8058 15.4513 34.6683 15.8418 34.1312L17.3305 32.12C17.7558 31.548 17.6293 30.7358 17.0518 30.3123C16.4743 29.8907 15.6677 30.0172 15.246 30.591ZM38.6137 29.1042L44 27.6723L41.0978 16.5L35.6363 18.1427L38.6137 29.1042ZM34.0633 19.3472C31.3995 19.5415 28.8677 18.5607 26.0865 17.1252C25.4742 16.8098 24.7683 16.5532 24.079 16.5532C23.4447 16.5532 22.8232 16.7713 22.3025 17.3617C20.4252 19.4902 19.3343 21.3712 17.0977 22.6747C15.9958 23.3182 17.2883 25.333 19.657 24.5062C20.8633 24.0827 22.4987 22.99 23.8315 21.9157C24.8802 21.0705 25.5072 21.1933 26.4165 22.1027C28.1178 23.8058 33.847 29.4598 33.847 29.4598C34.7325 28.9135 35.5887 28.4717 36.4375 28.0922L34.0633 19.3472V19.3472ZM8.36367 18.1427L2.90217 16.5L0 27.6723L5.38633 29.1042L8.36367 18.1427ZM32.9413 31.207C32.054 30.2262 26.0902 24.3632 25.0305 23.3053C23.232 24.6547 20.8633 26.5338 18.5753 26.5338C16.8465 26.5338 15.3633 25.5127 14.9673 24.0515C14.6502 22.8873 15.1378 21.6957 16.1773 21.0888C17.479 20.3298 18.3425 19.2903 19.3948 17.9887C16.1792 15.9573 13.4365 19.2573 9.955 19.2885L7.62117 27.8777C8.6405 28.1197 9.52783 28.3763 10.351 28.6862L11.1577 27.5953C12.6097 25.6135 15.6383 26.0242 16.566 28.2388C17.7393 28.3415 18.7403 29.0987 19.1767 30.1455C20.3115 30.2445 21.329 30.965 21.7837 32.0503C23.4997 32.1988 24.9003 33.7553 24.5887 35.6657L25.7877 36.8647C26.2918 37.3707 27.1132 37.3688 27.6155 36.8647C28.1215 36.3587 28.1215 35.5392 27.6155 35.0332L25.2982 32.714C25.1717 32.5875 25.1717 32.3785 25.3037 32.252C25.4302 32.131 25.6318 32.1328 25.7565 32.2557L28.5487 35.0497C29.0528 35.5557 29.8742 35.5557 30.3783 35.0497C30.8843 34.5437 30.8843 33.726 30.3783 33.22L26.9408 29.7807C26.8088 29.6505 26.8143 29.436 26.9518 29.3132C27.0783 29.1977 27.2782 29.1995 27.3973 29.3223L31.1098 33.0348C31.614 33.5408 32.4353 33.5408 32.9395 33.0348C33.4455 32.5307 33.4455 31.713 32.9413 31.207ZM19.4003 5.5L17.5963 5.819L18.5515 11.2347L20.3555 10.9157L19.4003 5.5V5.5ZM26.4037 5.819L24.5997 5.5L23.6445 10.9157L25.4522 11.2347L26.4037 5.819V5.819ZM33 8.07033L31.4105 7.15367L28.6605 11.9167L30.25 12.8333L33 8.07033ZM12.5895 7.15367L11 8.07033L13.75 12.8333L15.3395 11.9167L12.5895 7.15367Z" fill="#566CFB"/>
</g>
<defs>
<clipPath id="clip0_1051_891">
<rect width="44" height="44" fill="white"/>
</clipPath>
</defs>
</svg>
