<svg width="289" height="89" viewBox="0 0 289 89" fill="none" xmlns="http://www.w3.org/2000/svg">
<rect width="289" height="89" fill="white"/>
<path d="M73.5664 36.6484C72.5729 35.7917 71.5566 35.1582 70.5176 34.748C69.4785 34.3379 68.3848 34.1328 67.2363 34.1328C64.6478 34.1328 62.5423 34.9531 60.9199 36.5938C59.3066 38.2344 58.5 40.3717 58.5 43.0059C58.5 44.3275 58.696 45.5169 59.0879 46.5742C59.4889 47.6315 60.0951 48.5703 60.9062 49.3906C61.7083 50.1927 62.6243 50.8034 63.6543 51.2227C64.6934 51.6419 65.8053 51.8516 66.9902 51.8516C68.1387 51.8516 69.2598 51.6556 70.3535 51.2637C71.4473 50.8717 72.4818 50.293 73.457 49.5273V51.6602C72.4727 52.2617 71.429 52.722 70.3262 53.041C69.2324 53.3691 68.1478 53.5332 67.0723 53.5332C65.623 53.5332 64.2376 53.2734 62.916 52.7539C61.5944 52.2344 60.4596 51.5052 59.5117 50.5664C58.5365 49.6003 57.7982 48.4792 57.2969 47.2031C56.7956 45.9271 56.5449 44.528 56.5449 43.0059C56.5449 41.5111 56.8001 40.1165 57.3105 38.8223C57.8301 37.528 58.5729 36.4115 59.5391 35.4727C60.4779 34.5521 61.6081 33.832 62.9297 33.3125C64.2604 32.793 65.6413 32.5332 67.0723 32.5332C68.3483 32.5332 69.5286 32.7109 70.6133 33.0664C71.707 33.4128 72.7005 33.9368 73.5938 34.6387L73.5664 36.6484ZM82.8223 51.9609C84.153 51.9609 85.2786 51.4824 86.1992 50.5254C87.1289 49.5592 87.5938 48.3789 87.5938 46.9844C87.5938 45.5716 87.1335 44.3867 86.2129 43.4297C85.2923 42.4727 84.1621 41.9941 82.8223 41.9941C81.4915 41.9941 80.3659 42.4727 79.4453 43.4297C78.5247 44.3867 78.0645 45.5716 78.0645 46.9844C78.0645 48.3789 78.5247 49.5592 79.4453 50.5254C80.3659 51.4824 81.4915 51.9609 82.8223 51.9609ZM82.7676 53.5332C81.9017 53.5332 81.0723 53.36 80.2793 53.0137C79.4863 52.6764 78.7663 52.1888 78.1191 51.5508C77.5085 50.9492 77.0436 50.2565 76.7246 49.4727C76.4056 48.6888 76.2461 47.8503 76.2461 46.957C76.2461 46.0729 76.4102 45.2344 76.7383 44.4414C77.0664 43.6484 77.5358 42.9466 78.1465 42.3359C78.7663 41.7161 79.4727 41.2422 80.2656 40.9141C81.0586 40.5859 81.8926 40.4219 82.7676 40.4219C83.6608 40.4219 84.5085 40.5859 85.3105 40.9141C86.1217 41.2422 86.8418 41.7161 87.4707 42.3359C88.0996 42.9557 88.5781 43.6621 88.9062 44.4551C89.2435 45.248 89.4121 46.082 89.4121 46.957C89.4121 47.832 89.248 48.666 88.9199 49.459C88.5918 50.2428 88.1178 50.9401 87.498 51.5508C86.86 52.1888 86.1309 52.6764 85.3105 53.0137C84.4993 53.36 83.6517 53.5332 82.7676 53.5332ZM94.5801 53H92.8984V40.873H94.5801V42.7734C94.9811 42.0078 95.5098 41.4245 96.166 41.0234C96.8223 40.6224 97.5788 40.4219 98.4355 40.4219C99.3197 40.4219 100.072 40.627 100.691 41.0371C101.32 41.4382 101.803 42.0306 102.141 42.8145C102.624 42.0124 103.216 41.4154 103.918 41.0234C104.62 40.6224 105.436 40.4219 106.365 40.4219C107.65 40.4219 108.662 40.8138 109.4 41.5977C110.139 42.3724 110.508 43.4388 110.508 44.7969V53H108.826V45.4668C108.826 44.2819 108.58 43.3887 108.088 42.7871C107.605 42.1855 106.88 41.8848 105.914 41.8848C104.757 41.8848 103.904 42.263 103.357 43.0195C102.82 43.776 102.551 44.9746 102.551 46.6152V53H100.883V45.4668C100.883 44.2272 100.65 43.3203 100.186 42.7461C99.7207 42.1719 99.0007 41.8848 98.0254 41.8848C96.8405 41.8848 95.9701 42.2676 95.4141 43.0332C94.8581 43.7988 94.5801 44.9928 94.5801 46.6152V53ZM124.822 47.0117C124.822 45.444 124.462 44.2135 123.742 43.3203C123.031 42.418 122.047 41.9668 120.789 41.9668C119.495 41.9668 118.479 42.4043 117.74 43.2793C117.011 44.1452 116.646 45.3392 116.646 46.8613C116.646 48.4108 117.038 49.6504 117.822 50.5801C118.615 51.5007 119.659 51.9609 120.953 51.9609C122.174 51.9609 123.122 51.528 123.797 50.6621C124.48 49.7871 124.822 48.5703 124.822 47.0117ZM114.992 59.0977V40.873H116.619V43.1426C117.084 42.2676 117.69 41.5977 118.438 41.1328C119.185 40.6589 120.023 40.4219 120.953 40.4219C122.658 40.4219 124.029 41.0234 125.068 42.2266C126.117 43.4206 126.641 45.0065 126.641 46.9844C126.641 48.9714 126.13 50.5618 125.109 51.7559C124.089 52.9408 122.73 53.5332 121.035 53.5332C120.06 53.5332 119.199 53.3008 118.451 52.8359C117.704 52.362 117.093 51.6693 116.619 50.7578V59.0977H114.992ZM130.92 47.0664C130.92 48.6341 131.271 49.8418 131.973 50.6895C132.684 51.5371 133.695 51.9609 135.008 51.9609C136.284 51.9609 137.286 51.5007 138.016 50.5801C138.754 49.6504 139.123 48.3743 139.123 46.752C139.123 45.2663 138.758 44.0996 138.029 43.252C137.3 42.3952 136.302 41.9668 135.035 41.9668C133.768 41.9668 132.766 42.4225 132.027 43.334C131.289 44.2363 130.92 45.4805 130.92 47.0664ZM139.096 53V50.7852C138.695 51.6784 138.13 52.362 137.4 52.8359C136.68 53.3008 135.828 53.5332 134.844 53.5332C133.103 53.5332 131.699 52.9362 130.633 51.7422C129.576 50.5482 129.047 48.9714 129.047 47.0117C129.047 45.0703 129.571 43.4889 130.619 42.2676C131.667 41.0371 133.021 40.4219 134.68 40.4219C135.71 40.4219 136.598 40.6497 137.346 41.1055C138.102 41.5521 138.686 42.2129 139.096 43.0879V40.873H140.777V53H139.096ZM145.289 53V40.873H146.889V42.7461C147.381 41.9714 147.982 41.3926 148.693 41.0098C149.413 40.6178 150.238 40.4219 151.168 40.4219C152.544 40.4219 153.615 40.8047 154.381 41.5703C155.146 42.3359 155.529 43.4023 155.529 44.7695V53H153.82V45.5215C153.82 44.3092 153.565 43.4115 153.055 42.8281C152.553 42.2357 151.774 41.9395 150.717 41.9395C149.432 41.9395 148.484 42.3223 147.873 43.0879C147.271 43.8444 146.971 45.0384 146.971 46.6699V53H145.289ZM158.236 40.873H160.027L163.5 50.3613L166.699 40.873H168.49L162.215 59.0977H160.479L162.598 52.918L158.236 40.873ZM179.496 53V32.9844H181.314V51.291H188.178V53H179.496ZM195.889 51.9609C197.219 51.9609 198.345 51.4824 199.266 50.5254C200.195 49.5592 200.66 48.3789 200.66 46.9844C200.66 45.5716 200.2 44.3867 199.279 43.4297C198.359 42.4727 197.229 41.9941 195.889 41.9941C194.558 41.9941 193.432 42.4727 192.512 43.4297C191.591 44.3867 191.131 45.5716 191.131 46.9844C191.131 48.3789 191.591 49.5592 192.512 50.5254C193.432 51.4824 194.558 51.9609 195.889 51.9609ZM195.834 53.5332C194.968 53.5332 194.139 53.36 193.346 53.0137C192.553 52.6764 191.833 52.1888 191.186 51.5508C190.575 50.9492 190.11 50.2565 189.791 49.4727C189.472 48.6888 189.312 47.8503 189.312 46.957C189.312 46.0729 189.477 45.2344 189.805 44.4414C190.133 43.6484 190.602 42.9466 191.213 42.3359C191.833 41.7161 192.539 41.2422 193.332 40.9141C194.125 40.5859 194.959 40.4219 195.834 40.4219C196.727 40.4219 197.575 40.5859 198.377 40.9141C199.188 41.2422 199.908 41.7161 200.537 42.3359C201.166 42.9557 201.645 43.6621 201.973 44.4551C202.31 45.248 202.479 46.082 202.479 46.957C202.479 47.832 202.314 48.666 201.986 49.459C201.658 50.2428 201.184 50.9401 200.564 51.5508C199.926 52.1888 199.197 52.6764 198.377 53.0137C197.566 53.36 196.718 53.5332 195.834 53.5332ZM216.629 40.873V50.8945C216.629 52.4896 216.583 53.7064 216.492 54.5449C216.41 55.3835 216.269 56.0078 216.068 56.418C215.649 57.3203 215.007 57.9902 214.141 58.4277C213.275 58.8743 212.181 59.0977 210.859 59.0977C209.246 59.0977 207.988 58.7832 207.086 58.1543C206.193 57.5345 205.65 56.5911 205.459 55.3242H207.564C207.701 56.0716 208.057 56.6367 208.631 57.0195C209.214 57.4023 210.003 57.5938 210.996 57.5938C211.743 57.5938 212.413 57.4616 213.006 57.1973C213.607 56.9329 214.059 56.5684 214.359 56.1035C214.56 55.8027 214.701 55.4518 214.783 55.0508C214.874 54.6589 214.92 54.0482 214.92 53.2188V52.5762V50.7578C214.546 51.6237 213.972 52.3027 213.197 52.7949C212.432 53.2871 211.552 53.5332 210.559 53.5332C208.854 53.5332 207.492 52.9408 206.471 51.7559C205.459 50.571 204.953 48.9805 204.953 46.9844C204.953 45.0065 205.473 43.4206 206.512 42.2266C207.551 41.0234 208.927 40.4219 210.641 40.4219C211.598 40.4219 212.464 40.6725 213.238 41.1738C214.022 41.666 214.583 42.3223 214.92 43.1426V40.873H216.629ZM210.832 41.9668C209.574 41.9668 208.581 42.418 207.852 43.3203C207.132 44.2135 206.771 45.444 206.771 47.0117C206.771 48.5703 207.113 49.7871 207.797 50.6621C208.49 51.528 209.447 51.9609 210.668 51.9609C211.962 51.9609 212.997 51.5007 213.771 50.5801C214.555 49.6595 214.947 48.4199 214.947 46.8613C214.947 45.3301 214.583 44.1315 213.854 43.2656C213.124 42.3997 212.117 41.9668 210.832 41.9668ZM226.678 51.9609C228.008 51.9609 229.134 51.4824 230.055 50.5254C230.984 49.5592 231.449 48.3789 231.449 46.9844C231.449 45.5716 230.989 44.3867 230.068 43.4297C229.148 42.4727 228.018 41.9941 226.678 41.9941C225.347 41.9941 224.221 42.4727 223.301 43.4297C222.38 44.3867 221.92 45.5716 221.92 46.9844C221.92 48.3789 222.38 49.5592 223.301 50.5254C224.221 51.4824 225.347 51.9609 226.678 51.9609ZM226.623 53.5332C225.757 53.5332 224.928 53.36 224.135 53.0137C223.342 52.6764 222.622 52.1888 221.975 51.5508C221.364 50.9492 220.899 50.2565 220.58 49.4727C220.261 48.6888 220.102 47.8503 220.102 46.957C220.102 46.0729 220.266 45.2344 220.594 44.4414C220.922 43.6484 221.391 42.9466 222.002 42.3359C222.622 41.7161 223.328 41.2422 224.121 40.9141C224.914 40.5859 225.748 40.4219 226.623 40.4219C227.516 40.4219 228.364 40.5859 229.166 40.9141C229.977 41.2422 230.697 41.7161 231.326 42.3359C231.955 42.9557 232.434 43.6621 232.762 44.4551C233.099 45.248 233.268 46.082 233.268 46.957C233.268 47.832 233.104 48.666 232.775 49.459C232.447 50.2428 231.973 50.9401 231.354 51.5508C230.715 52.1888 229.986 52.6764 229.166 53.0137C228.355 53.36 227.507 53.5332 226.623 53.5332Z" fill="black"/>
</svg>
