<svg width="54" height="56" viewBox="0 0 54 56" fill="none" xmlns="http://www.w3.org/2000/svg">
<path d="M18.75 31.1109C18.75 34.5487 16.065 37.3331 12.75 37.3331C9.435 37.3331 6.75 34.5487 6.75 31.1109C6.75 27.6731 9.435 24.8887 12.75 24.8887C16.065 24.8887 18.75 27.6731 18.75 31.1109Z" fill="#566CFB"/>
<path fill-rule="evenodd" clip-rule="evenodd" d="M12.75 34.222C13.5456 34.222 14.3087 33.8942 14.8713 33.3108C15.4339 32.7273 15.75 31.936 15.75 31.1109C15.75 30.2858 15.4339 29.4945 14.8713 28.911C14.3087 28.3276 13.5456 27.9998 12.75 27.9998C11.9544 27.9998 11.1913 28.3276 10.6287 28.911C10.0661 29.4945 9.75 30.2858 9.75 31.1109C9.75 31.936 10.0661 32.7273 10.6287 33.3108C11.1913 33.8942 11.9544 34.222 12.75 34.222ZM12.75 37.3331C16.065 37.3331 18.75 34.5487 18.75 31.1109C18.75 27.6731 16.065 24.8887 12.75 24.8887C9.435 24.8887 6.75 27.6731 6.75 31.1109C6.75 34.5487 9.435 37.3331 12.75 37.3331Z" fill="#566CFB"/>
<path d="M0 47.5143C0 42.8134 8.4945 40.4443 12.75 40.4443C17.0055 40.4443 25.5 42.8134 25.5 47.5143V55.9999H0V47.5143Z" fill="#566CFB"/>
<path fill-rule="evenodd" clip-rule="evenodd" d="M3.501 46.6401C3.027 47.1255 3 47.4039 3 47.5159V52.8888H22.5V47.5143C22.5 47.4054 22.473 47.1255 21.999 46.6401C21.498 46.1283 20.6715 45.5792 19.539 45.0768C17.259 44.0641 14.475 43.5554 12.75 43.5554C11.025 43.5554 8.2395 44.0641 5.961 45.0768C4.8285 45.5792 4.002 46.1283 3.501 46.6401V46.6401ZM12.75 40.4443C8.4945 40.4443 0 42.8134 0 47.5143V55.9999H25.5V47.5143C25.5 42.8134 17.0055 40.4443 12.75 40.4443Z" fill="#566CFB"/>
<path d="M47.25 31.1109C47.25 34.5487 44.565 37.3331 41.25 37.3331C37.935 37.3331 35.25 34.5487 35.25 31.1109C35.25 27.6731 37.935 24.8887 41.25 24.8887C44.565 24.8887 47.25 27.6731 47.25 31.1109Z" fill="#566CFB"/>
<path fill-rule="evenodd" clip-rule="evenodd" d="M41.25 34.222C42.0456 34.222 42.8087 33.8942 43.3713 33.3108C43.9339 32.7273 44.25 31.936 44.25 31.1109C44.25 30.2858 43.9339 29.4945 43.3713 28.911C42.8087 28.3276 42.0456 27.9998 41.25 27.9998C40.4544 27.9998 39.6913 28.3276 39.1287 28.911C38.5661 29.4945 38.25 30.2858 38.25 31.1109C38.25 31.936 38.5661 32.7273 39.1287 33.3108C39.6913 33.8942 40.4544 34.222 41.25 34.222ZM41.25 37.3331C44.565 37.3331 47.25 34.5487 47.25 31.1109C47.25 27.6731 44.565 24.8887 41.25 24.8887C37.935 24.8887 35.25 27.6731 35.25 31.1109C35.25 34.5487 37.935 37.3331 41.25 37.3331Z" fill="#566CFB"/>
<path d="M33 27.9996C33 31.4373 30.315 34.2218 27 34.2218C23.685 34.2218 21 31.4373 21 27.9996C21 24.5618 23.685 21.7773 27 21.7773C30.315 21.7773 33 24.5618 33 27.9996Z" fill="#566CFB"/>
<path fill-rule="evenodd" clip-rule="evenodd" d="M27 31.1107C27.7956 31.1107 28.5587 30.7829 29.1213 30.1995C29.6839 29.616 30 28.8247 30 27.9996C30 27.1744 29.6839 26.3831 29.1213 25.7997C28.5587 25.2162 27.7956 24.8885 27 24.8885C26.2044 24.8885 25.4413 25.2162 24.8787 25.7997C24.3161 26.3831 24 27.1744 24 27.9996C24 28.8247 24.3161 29.616 24.8787 30.1995C25.4413 30.7829 26.2044 31.1107 27 31.1107V31.1107ZM27 34.2218C30.315 34.2218 33 31.4373 33 27.9996C33 24.5618 30.315 21.7773 27 21.7773C23.685 21.7773 21 24.5618 21 27.9996C21 31.4373 23.685 34.2218 27 34.2218Z" fill="#566CFB"/>
<path d="M25.5003 10.6293C25.5003 8.63544 24.7366 6.72321 23.377 5.31331C22.0175 3.90341 20.1735 3.11134 18.2508 3.11134H13.4973C11.5304 3.10806 9.64109 3.90651 8.23663 5.33454C6.83217 6.76257 6.02513 8.70578 5.98951 10.7452C5.95389 12.7846 6.69255 14.7569 8.04621 16.2367C9.39988 17.7165 11.2601 18.5854 13.2258 18.656L13.5003 18.6669V21.778C13.5003 21.778 25.5003 19.9627 25.5003 10.6293Z" fill="#566CFB"/>
<path d="M30 8.14489C30 5.98473 30.8275 3.91305 32.3004 2.38558C33.7733 0.85812 35.771 0 37.854 0H46.5C48.4891 0 50.3968 0.819442 51.8033 2.27806C53.2098 3.73667 54 5.71498 54 7.77778C54 9.84057 53.2098 11.8189 51.8033 13.2775C50.3968 14.7361 48.4891 15.5556 46.5 15.5556H43.5V20.2222C43.5 20.2222 30 18.256 30 8.14489Z" fill="#566CFB"/>
<path d="M28.5 47.5143C28.5 42.8134 36.9945 40.4443 41.25 40.4443C45.5055 40.4443 54 42.8134 54 47.5143V55.9999H28.5V47.5143Z" fill="#566CFB"/>
<path fill-rule="evenodd" clip-rule="evenodd" d="M32.001 46.6401C31.527 47.1255 31.5 47.4039 31.5 47.5159V52.8888H51V47.5143C51 47.4054 50.973 47.1255 50.499 46.6401C49.998 46.1283 49.1715 45.5792 48.039 45.0768C45.759 44.0641 42.975 43.5554 41.25 43.5554C39.525 43.5554 36.7395 44.0641 34.461 45.0768C33.3285 45.5792 32.502 46.1283 32.001 46.6401V46.6401ZM41.25 40.4443C36.9945 40.4443 28.5 42.8134 28.5 47.5143V55.9999H54V47.5143C54 42.8134 45.5055 40.4443 41.25 40.4443Z" fill="#566CFB"/>
<path fill-rule="evenodd" clip-rule="evenodd" d="M27.0002 45.1108V44.403C27.0002 41.7943 24.2297 39.9028 20.9927 38.7361C22.8712 37.8156 24.9225 37.3365 27.0002 37.333C29.0778 37.3365 31.1292 37.8156 33.0077 38.7361C29.7722 39.9028 27.0002 41.7943 27.0002 44.403V45.1108Z" fill="#566CFB"/>
<path fill-rule="evenodd" clip-rule="evenodd" d="M27.0002 45.1108V44.403C27.0002 43.0139 27.7862 41.827 29.0102 40.8455C29.0804 40.7899 29.1514 40.7354 29.2232 40.6821C30.2672 39.895 31.5932 39.2463 33.0077 38.7377C31.6027 38.0507 30.0989 37.6067 28.5557 37.4232C27.5224 37.3029 26.4794 37.3029 25.4462 37.4232C23.9026 37.606 22.3982 38.0495 20.9927 38.7361C22.4072 39.2463 23.7332 39.895 24.7787 40.6806C24.8507 40.735 24.9197 40.7895 24.9887 40.8455C26.2142 41.8255 27.0002 43.0139 27.0002 44.403V45.1108Z" fill="#566CFB"/>
</svg>
