<svg width="1810" height="1397" viewBox="0 0 1810 1397" fill="none" xmlns="http://www.w3.org/2000/svg">
<path d="M199.444 196.406C344.883 85.3916 560.871 46.3143 774.689 20.5589C987.421 -5.19659 1199.07 -16.7421 1377.07 47.2024C1555.07 112.035 1700.51 252.358 1766.72 412.219C1832.92 572.969 1822.07 753.257 1741.75 904.237C1661.44 1055.22 1512.74 1176 1334.74 1267.48C1156.74 1358.95 950.519 1419.35 768.177 1389.15C584.75 1358.07 426.286 1236.39 287.359 1101.4C147.346 966.406 26.8701 817.202 4.07734 652.011C-18.7154 486.821 55.0896 306.533 199.444 196.406Z" fill="url(#paint0_linear_778:1129)" fill-opacity="0.05"/>
<defs>
<linearGradient id="paint0_linear_778:1129" x1="1810" y1="1397" x2="1690.39" y2="-127.038" gradientUnits="userSpaceOnUse">
<stop stop-color="#4B79A1"/>
<stop offset="0.19843" stop-color="#3594B6"/>
<stop offset="0.403365" stop-color="#24AEBF"/>
<stop offset="0.580183" stop-color="#3FC7BE"/>
<stop offset="0.776131" stop-color="#71DEB5"/>
</linearGradient>
</defs>
</svg>
