<svg width="60" height="58" viewBox="0 0 60 58" fill="none" xmlns="http://www.w3.org/2000/svg">
<path d="M52.5 29.5317C52.5 16.2642 41.85 7.25 30 7.25C18.275 7.25 7.5 16.0708 7.5 29.6767C6 30.4983 5 32.045 5 33.8333V38.6667C5 41.325 7.25 43.5 10 43.5H12.5V28.7583C12.5 19.4058 20.325 11.8417 30 11.8417C39.675 11.8417 47.5 19.4058 47.5 28.7583V45.9167H27.5V50.75H47.5C50.25 50.75 52.5 48.575 52.5 45.9167V42.9683C53.975 42.2192 55 40.745 55 39.005V33.4467C55 31.755 53.975 30.2808 52.5 29.5317Z" fill="#566CFB"/>
<path d="M22.5 33.8333C23.8807 33.8333 25 32.7514 25 31.4167C25 30.082 23.8807 29 22.5 29C21.1193 29 20 30.082 20 31.4167C20 32.7514 21.1193 33.8333 22.5 33.8333Z" fill="#566CFB"/>
<path d="M37.5 33.8333C38.8807 33.8333 40 32.7514 40 31.4167C40 30.082 38.8807 29 37.5 29C36.1193 29 35 30.082 35 31.4167C35 32.7514 36.1193 33.8333 37.5 33.8333Z" fill="#566CFB"/>
<path d="M45.0007 26.6558C43.8007 19.7683 37.6007 14.5 30.1257 14.5C22.5507 14.5 14.4007 20.5658 15.0507 30.0875C21.2257 27.6467 25.8757 22.33 27.2007 15.8533C30.4757 22.2092 37.2007 26.5833 45.0007 26.6558Z" fill="#566CFB"/>
</svg>
