<svg width="50" height="44" viewBox="0 0 50 44" fill="none" xmlns="http://www.w3.org/2000/svg">
<path d="M47.5 22.2817C47.5 9.01417 36.85 0 25 0C13.275 0 2.5 8.82083 2.5 22.4267C1 23.2483 0 24.795 0 26.5833V31.4167C0 34.075 2.25 36.25 5 36.25H7.5V21.5083C7.5 12.1558 15.325 4.59167 25 4.59167C34.675 4.59167 42.5 12.1558 42.5 21.5083V38.6667H22.5V43.5H42.5C45.25 43.5 47.5 41.325 47.5 38.6667V35.7183C48.975 34.9692 50 33.495 50 31.755V26.1967C50 24.505 48.975 23.0308 47.5 22.2817Z" fill="white"/>
<path d="M17.5 26.5833C18.8807 26.5833 20 25.5014 20 24.1667C20 22.832 18.8807 21.75 17.5 21.75C16.1193 21.75 15 22.832 15 24.1667C15 25.5014 16.1193 26.5833 17.5 26.5833Z" fill="white"/>
<path d="M32.5 26.5833C33.8807 26.5833 35 25.5014 35 24.1667C35 22.832 33.8807 21.75 32.5 21.75C31.1193 21.75 30 22.832 30 24.1667C30 25.5014 31.1193 26.5833 32.5 26.5833Z" fill="white"/>
<path d="M40.0002 19.4058C38.8002 12.5183 32.6002 7.25 25.1252 7.25C17.5502 7.25 9.40014 13.3158 10.0502 22.8375C16.2252 20.3967 20.8752 15.08 22.2002 8.60333C25.4752 14.9592 32.2002 19.3333 40.0002 19.4058Z" fill="white"/>
</svg>
