<svg width="43" height="56" viewBox="0 0 43 56" fill="none" xmlns="http://www.w3.org/2000/svg">
<path d="M24.5714 31.111C24.5714 33.9857 23.607 36.6333 21.9914 38.7426L33.3281 50.2288C33.4748 50.3723 33.5917 50.544 33.6722 50.7337C33.7527 50.9235 33.7951 51.1277 33.7969 51.3342C33.7986 51.5407 33.7598 51.7456 33.6826 51.9368C33.6053 52.1279 33.4913 52.3016 33.3471 52.4477C33.2029 52.5937 33.0315 52.7092 32.8427 52.7874C32.654 52.8656 32.4518 52.905 32.2479 52.9032C32.0439 52.9014 31.8424 52.8585 31.6551 52.777C31.4677 52.6955 31.2982 52.5769 31.1566 52.4284L19.8199 40.9422C17.627 42.6667 14.922 43.5881 12.1458 43.5561C9.36969 43.524 6.68611 42.5405 4.53247 40.7658C2.37883 38.9911 0.882124 36.5298 0.286286 33.7832C-0.309553 31.0365 0.0306144 28.1664 1.25134 25.6407C2.47207 23.1149 4.50139 21.0824 7.00853 19.8745C9.51568 18.6665 12.3528 18.3544 15.0576 18.9888C17.7623 19.6233 20.1751 21.167 21.9028 23.3684C23.6305 25.5697 24.5711 28.2989 24.5714 31.111V31.111ZM12.2857 40.4444C14.7295 40.4444 17.0732 39.461 18.8012 37.7107C20.5292 35.9604 21.5 33.5864 21.5 31.111C21.5 28.6357 20.5292 26.2617 18.8012 24.5114C17.0732 22.761 14.7295 21.7777 12.2857 21.7777C9.84194 21.7777 7.49826 22.761 5.77024 24.5114C4.04223 26.2617 3.07144 28.6357 3.07144 31.111C3.07144 33.5864 4.04223 35.9604 5.77024 37.7107C7.49826 39.461 9.84194 40.4444 12.2857 40.4444V40.4444Z" fill="#566CFB"/>
<path d="M10.7497 3.11111C10.3424 3.11111 9.95181 3.275 9.66381 3.56672C9.3758 3.85845 9.21401 4.25411 9.21401 4.66667V15.8667C8.14515 16.0844 7.11622 16.4173 6.14258 16.8498V4.66667C6.14258 3.42899 6.62797 2.242 7.49198 1.36684C8.35598 0.491665 9.52783 0 10.7497 0H26.371C27.5925 0.00108921 28.7635 0.493469 29.6267 1.36889L41.6513 13.5458C42.5145 14.4206 42.9994 15.6067 42.9997 16.8436V45.1111C42.9997 46.3488 42.5143 47.5358 41.6503 48.4109C40.7863 49.2861 39.6145 49.7778 38.3926 49.7778H36.5896C36.3617 49.1186 35.9901 48.5199 35.5023 48.0262L34.154 46.6667H38.3926C38.7999 46.6667 39.1905 46.5028 39.4785 46.2111C39.7665 45.9193 39.9283 45.5237 39.9283 45.1111V18.6667H29.1783C27.9564 18.6667 26.7845 18.175 25.9205 17.2998C25.0565 16.4247 24.5711 15.2377 24.5711 14V3.11111H10.7497ZM27.6426 3.75511V14C27.6426 14.4126 27.8044 14.8082 28.0924 15.0999C28.3804 15.3917 28.771 15.5556 29.1783 15.5556H39.2925L27.6426 3.75511Z" fill="#566CFB"/>
</svg>
