<svg width="54" height="56" viewBox="0 0 54 56" fill="none" xmlns="http://www.w3.org/2000/svg">
<path d="M52.9424 8.24082H42.907C42.6672 8.24206 42.436 8.33289 42.2564 8.4964C42.0768 8.65991 41.9611 8.88497 41.9307 9.1297C41.036 8.94999 40.1846 8.59054 39.4251 8.07192C36.751 6.22748 32.1675 3.08525 30.271 1.78747C29.5623 1.30267 28.747 1.00781 27.8994 0.929699L17.1469 0.04081C16.9743 0.00978285 16.7992 -0.00360048 16.6241 0.00082517H7.8632C7.46118 -0.000207 7.06392 0.090532 6.70011 0.266532C6.3363 0.442531 6.01501 0.699396 5.75936 1.01859C5.3384 1.52319 5.10834 2.16698 5.11136 2.83193C5.11618 3.01855 5.13639 3.2044 5.17182 3.38749C5.38862 4.46974 5.96173 5.44189 6.7944 6.13985C7.62708 6.83781 8.66833 7.21883 9.74238 7.2186H16.2915C16.5419 7.21838 16.7915 7.24971 17.0345 7.31191C18.3953 7.66303 22.3309 8.67191 23.9465 9.08969C24.2769 9.16084 24.5899 9.29994 24.8667 9.4986L26.5731 10.6719L29.4373 12.6452C29.6563 12.7922 29.8541 12.9703 30.0248 13.1741L25.951 12.6497C25.7785 12.619 25.6034 12.6056 25.4283 12.6097C24.7267 12.6043 24.0402 12.8186 23.4599 13.2243C22.8796 13.63 22.4331 14.2078 22.1797 14.8808C21.97 15.4359 21.8763 16.0303 21.9047 16.6251C21.9332 17.2199 22.0831 17.802 22.3448 18.3332C22.6064 18.8645 22.9739 19.333 23.4233 19.7084C23.8728 20.0838 24.394 20.3576 24.9531 20.5119L29.3941 21.7297C31.3424 22.263 33.2821 22.7919 34.6256 23.1564C35.3888 23.3694 36.1762 23.477 36.967 23.4764C37.695 23.4752 38.4202 23.3841 39.127 23.2053L42.0085 22.463C42.1385 22.9979 42.4073 23.4864 42.7861 23.8764C43.3546 24.4495 44.1199 24.7689 44.9158 24.7653H52.9424C53.0744 24.7658 53.2051 24.7396 53.3272 24.6881C53.4493 24.6365 53.5604 24.5606 53.6539 24.4648C53.7474 24.369 53.8216 24.2552 53.8722 24.1298C53.9229 24.0044 53.949 23.8699 53.949 23.7341V9.28525C53.9501 9.14851 53.9249 9.01291 53.8748 8.88624C53.8247 8.75957 53.7508 8.64437 53.6572 8.54727C53.5636 8.45016 53.4523 8.37308 53.3296 8.32049C53.2069 8.26789 53.0753 8.24081 52.9424 8.24082V8.24082ZM38.6389 21.1919C37.4797 21.4877 36.2663 21.4739 35.1137 21.1519C33.74 20.7875 31.8262 20.2631 29.8822 19.7253L25.4456 18.5119C25.1586 18.4344 24.8909 18.2953 24.6599 18.1038C24.4289 17.9123 24.2399 17.6727 24.1053 17.4007C23.9706 17.1287 23.8934 16.8305 23.8787 16.5257C23.864 16.2209 23.9122 15.9163 24.02 15.6319C24.1454 15.3285 24.3608 15.0735 24.6354 14.9035C24.9101 14.7335 25.2299 14.6571 25.5493 14.6853H25.5925L31.7225 15.4675C31.9017 15.4882 32.0831 15.4602 32.2484 15.3861C32.4137 15.3119 32.5571 15.1944 32.6643 15.0453C32.7685 14.8943 32.8315 14.7174 32.8467 14.5329C32.8619 14.3485 32.8288 14.1632 32.7507 13.9964C32.7507 13.9964 32.4829 13.423 32.2237 12.9075C31.8387 12.1009 31.2511 11.415 30.5216 10.9208C29.7742 10.4008 28.6597 9.63638 27.6574 8.94749L25.9726 7.79637C25.4931 7.45838 24.9548 7.21846 24.3872 7.08969C22.819 6.67636 18.8792 5.66303 17.5097 5.31192C17.1089 5.20664 16.6966 5.15438 16.2829 5.15637H9.74238C9.107 5.15262 8.49397 4.91473 8.01446 4.48582C7.53496 4.05692 7.22073 3.46541 7.12879 2.81859C7.13157 2.63742 7.19573 2.46294 7.31022 2.32526C7.37894 2.24065 7.46483 2.17255 7.56184 2.12572C7.65886 2.07888 7.76465 2.05445 7.87182 2.05416H16.6328H16.8661L27.7309 2.98303C28.242 3.02859 28.7338 3.20591 29.1608 3.4986C31.0659 4.80082 35.6408 7.94305 38.3192 9.7786C39.3991 10.5203 40.625 11.0075 41.9091 11.2053V20.3519L38.6389 21.1919ZM51.9401 22.7119H44.9158C44.6491 22.7101 44.3935 22.6018 44.203 22.4097C44.0158 22.2159 43.9103 21.954 43.9093 21.6808V10.3164H51.9488L51.9401 22.7119Z" fill="#566CFB"/>
<path d="M19.1211 32.5919C19.0147 31.3046 18.4407 30.1058 17.5136 29.2344C16.5865 28.3629 15.3743 27.8828 14.1186 27.8897H5.3835C4.1283 27.8849 2.91722 28.3657 1.99054 29.2368C1.06387 30.1078 0.489344 31.3054 0.380959 32.5919L0.0223913 36.6853C-0.0896235 37.8994 0.2211 39.115 0.899153 40.1154C1.57721 41.1158 2.57853 41.8359 3.72463 42.1475V54.7742C3.72804 55.0465 3.83558 55.3065 4.02398 55.4978C4.21238 55.6891 4.46648 55.7964 4.7312 55.7964H14.7752C14.9074 55.7964 15.0383 55.7696 15.1604 55.7176C15.2825 55.6655 15.3935 55.5892 15.4869 55.4931C15.5804 55.3969 15.6545 55.2828 15.7051 55.1571C15.7557 55.0315 15.7817 54.8968 15.7817 54.7608V42.1342C16.9259 41.8238 17.9259 41.1058 18.6039 40.108C19.2818 39.1102 19.5937 37.8974 19.484 36.6853L19.1211 32.5919ZM15.7904 39.8853V36.1564C15.7737 35.894 15.6606 35.6481 15.474 35.4683C15.2875 35.2886 15.0415 35.1886 14.786 35.1886C14.5304 35.1886 14.2845 35.2886 14.0979 35.4683C13.9114 35.6481 13.7983 35.894 13.7816 36.1564V53.7297H10.7576V43.3919C10.7408 43.1296 10.6278 42.8836 10.4413 42.7039C10.2547 42.5242 10.0087 42.4242 9.7532 42.4242C9.49765 42.4242 9.25167 42.5242 9.06515 42.7039C8.87863 42.8836 8.76553 43.1296 8.7488 43.3919V53.7297H5.7248V36.1564C5.70806 35.894 5.59496 35.6481 5.40844 35.4683C5.22192 35.2886 4.97594 35.1886 4.72039 35.1886C4.46484 35.1886 4.21886 35.2886 4.03234 35.4683C3.84582 35.6481 3.73272 35.894 3.71599 36.1564V39.8853C3.16475 39.6213 2.70577 39.1893 2.40129 38.6479C2.09681 38.1065 1.96156 37.4818 2.0139 36.8586L2.3768 32.7786C2.43982 32.0064 2.78344 31.2871 3.33912 30.764C3.8948 30.2409 4.6217 29.9525 5.37488 29.9564H14.1099C14.8666 29.9467 15.5988 30.2318 16.1597 30.7544C16.7205 31.2771 17.0685 31.9986 17.1339 32.7742L17.4968 36.8542C17.5503 37.4787 17.4152 38.105 17.1098 38.6475C16.8043 39.19 16.3436 39.6223 15.7904 39.8853V39.8853Z" fill="#566CFB"/>
<path d="M9.74223 26.8541C10.9332 26.8541 12.0975 26.491 13.0881 25.8107C14.0786 25.1304 14.851 24.1635 15.3078 23.0318C15.7645 21.9002 15.8851 20.6548 15.6544 19.4527C15.4236 18.2506 14.8518 17.1459 14.0111 16.2779C13.1705 15.4099 12.0987 14.8177 10.9311 14.576C9.76352 14.3342 8.5525 14.4538 7.45095 14.9197C6.3494 15.3856 5.40673 16.1768 4.74195 17.1934C4.07717 18.2101 3.72009 19.4066 3.71582 20.6319C3.71581 22.2783 4.35005 23.8576 5.4796 25.0238C6.60915 26.1901 8.14194 26.8482 9.74223 26.8541V26.8541ZM9.74223 16.5208C10.5368 16.5208 11.3136 16.7632 11.9743 17.2174C12.635 17.6715 13.1499 18.3171 13.454 19.0723C13.7581 19.8276 13.8376 20.6587 13.6826 21.4605C13.5276 22.2623 13.145 22.9988 12.5831 23.5768C12.0212 24.1549 11.3054 24.5485 10.526 24.708C9.74668 24.8675 8.93888 24.7857 8.20476 24.4728C7.47064 24.16 6.84318 23.6302 6.40172 22.9505C5.96026 22.2707 5.72463 21.4716 5.72463 20.6541C5.72691 19.5586 6.15093 18.5086 6.90388 17.734C7.65683 16.9594 8.6774 16.5231 9.74223 16.5208V16.5208Z" fill="#566CFB"/>
<path d="M32.8591 49.5967H26.8111C26.0091 49.5967 25.2399 49.9245 24.6728 50.5079C24.1057 51.0914 23.7871 51.8827 23.7871 52.7078V54.7745C23.7871 55.0491 23.8932 55.3125 24.0819 55.5067C24.2707 55.7009 24.5267 55.81 24.7937 55.81H34.8377C35.1046 55.81 35.3606 55.7009 35.5494 55.5067C35.7382 55.3125 35.8442 55.0491 35.8442 54.7745V52.6856C35.848 52.2804 35.7736 51.8785 35.6252 51.5031C35.4769 51.1278 35.2577 50.7865 34.9802 50.4989C34.4159 49.9231 33.6539 49.599 32.8591 49.5967V49.5967ZM33.8657 53.73H25.8261V52.6856C25.8272 52.4123 25.9327 52.1505 26.1199 51.9567C26.3099 51.7638 26.5658 51.6553 26.8327 51.6545H32.8807C33.1474 51.6563 33.403 51.7646 33.5935 51.9567C33.687 52.0521 33.7611 52.1657 33.8115 52.2908C33.8619 52.4159 33.8877 52.5501 33.8873 52.6856L33.8657 53.73Z" fill="#566CFB"/>
<path d="M53.4559 43.5292L40.4139 35.7959L40.8459 35.0448C41.2415 34.3326 41.3478 33.4884 41.1415 32.696C40.9352 31.9036 40.433 31.227 39.7443 30.8137L36.2623 28.747C35.9209 28.5407 35.5428 28.4069 35.1503 28.3535C34.7578 28.3001 34.3588 28.3281 33.977 28.4359C33.594 28.54 33.2349 28.7213 32.9205 28.9692C32.6061 29.2172 32.3426 29.5269 32.1454 29.8804L28.1278 37.0403C27.7292 37.7522 27.6205 38.5974 27.8254 39.3915C28.0328 40.1859 28.5376 40.8634 29.2294 41.2759L32.7113 43.3426C33.1679 43.6156 33.6865 43.7597 34.2147 43.7603C34.7405 43.756 35.2561 43.6106 35.7107 43.3386C36.1652 43.0666 36.543 42.6773 36.8067 42.2092L37.3899 41.1692L50.4406 48.9203C50.5932 49.0101 50.7659 49.0576 50.9417 49.0581C51.117 49.0574 51.289 49.0094 51.4406 48.919C51.5922 48.8285 51.7181 48.6987 51.8057 48.5426L53.8188 44.9603C53.8871 44.8421 53.9319 44.711 53.9506 44.5748C53.9693 44.4386 53.9615 44.3 53.9278 44.1669C53.894 44.0337 53.8349 43.9089 53.7539 43.7994C53.673 43.69 53.5717 43.5981 53.4559 43.5292V43.5292ZM34.4479 41.6404C34.1893 41.7088 33.9149 41.6705 33.6833 41.5337L30.2057 39.467C30.0917 39.3992 29.9919 39.3089 29.9118 39.2014C29.8318 39.0939 29.7731 38.9712 29.7391 38.8403C29.6725 38.5767 29.7066 38.2968 29.8342 38.0581L33.8647 30.907C33.9301 30.7893 34.0176 30.6862 34.1222 30.6038C34.2268 30.5214 34.3464 30.4613 34.4739 30.427C34.5585 30.4043 34.6456 30.3923 34.733 30.3915C34.9105 30.3901 35.085 30.4377 35.2385 30.5292L38.7161 32.6003C38.8315 32.6669 38.9326 32.7567 39.0135 32.8644C39.0944 32.9721 39.1534 33.0954 39.187 33.227C39.2532 33.4917 39.216 33.7725 39.0833 34.0092V34.0092L35.0657 41.1737C34.9277 41.4032 34.7099 41.5701 34.4566 41.6404H34.4479ZM50.5659 46.5959L38.3964 39.3515L39.3987 37.5737L51.581 44.8092L50.5659 46.5959Z" fill="#566CFB"/>
</svg>
