<svg width="48" height="48" viewBox="0 0 48 48" fill="none" xmlns="http://www.w3.org/2000/svg">
<circle cx="24" cy="24" r="24" fill="#F5F5F5"/>
<path d="M33.125 18.3188V17.3125H30.9688L24.5 13L17.8875 17.3125H15.875V18.3188L13 20.1875V36H36V20.3313L33.125 18.3188ZM24.5 14.725L28.3813 17.3125H20.475L24.5 14.725ZM17.3125 18.75H31.6875V24.0688L26.6562 26.5125L24.5 24.6438L22.3438 26.6562L17.3125 24.2125V18.75ZM14.4375 20.9063L15.875 19.9V23.35L14.4375 22.775V20.9063ZM14.4375 24.3563L21.05 27.6625L14.4375 33.4125V24.3563ZM15.7313 34.5625L24.5 26.9438L33.2688 34.5625H15.7313ZM34.5625 33.4125L27.8063 27.5188L34.5625 24.2125V33.4125ZM34.5625 22.6313L33.125 23.35V20.0438L34.5625 21.05V22.6313Z" fill="#566CFB"/>
<g clip-path="url(#clip0_949_1112)">
<path d="M24.5498 19.1331C24.0448 19.0833 23.539 19.2196 23.123 19.5175C22.7071 19.8154 22.4081 20.2554 22.2796 20.7588C22.1511 21.2622 22.2015 21.796 22.4218 22.2648C22.6422 22.7335 23.018 23.1065 23.482 23.3169C23.7507 23.4415 24.0414 23.5086 24.3362 23.514C24.8056 23.5141 25.262 23.3555 25.6347 23.0628C25.6797 23.0276 25.7092 22.9756 25.7168 22.9181C25.7244 22.8606 25.7095 22.8023 25.6753 22.7561C25.6583 22.733 25.637 22.7135 25.6126 22.6989C25.5882 22.6842 25.5612 22.6747 25.5332 22.6708C25.5052 22.6669 25.4767 22.6688 25.4494 22.6763C25.4221 22.6838 25.3965 22.6968 25.3742 22.7145C25.1527 22.8861 24.8937 22.9998 24.6198 23.0457C24.3458 23.0916 24.0651 23.0683 23.8019 22.9779C23.5387 22.8875 23.3009 22.7327 23.1091 22.5269C22.9173 22.321 22.7774 22.0703 22.7013 21.7965C22.6252 21.5227 22.6153 21.234 22.6724 20.9554C22.7296 20.6768 22.8521 20.4167 23.0293 20.1975C23.2065 19.9784 23.433 19.8068 23.6894 19.6977C23.9458 19.5886 24.2243 19.5451 24.5007 19.5712C24.9297 19.6221 25.325 19.8344 25.6102 20.167C25.8954 20.4996 26.0503 20.9288 26.0448 21.3718V21.5207C26.0445 21.571 26.0344 21.6208 26.015 21.667C25.9956 21.7132 25.9673 21.7549 25.9318 21.7897C25.8963 21.8245 25.8544 21.8515 25.8085 21.8693C25.7626 21.8871 25.7136 21.8951 25.6646 21.8931C25.5668 21.8821 25.4768 21.8335 25.4126 21.757C25.3484 21.6806 25.3148 21.5821 25.3186 21.4813V20.535C25.3186 20.4769 25.2961 20.4212 25.2561 20.3801C25.216 20.339 25.1617 20.3159 25.1051 20.3159C25.0529 20.3155 25.0024 20.3346 24.9631 20.3697C24.9237 20.4048 24.8983 20.4535 24.8915 20.5065C24.6927 20.3145 24.4298 20.2079 24.1568 20.2086C23.9713 20.21 23.7892 20.2602 23.6278 20.3542C23.4665 20.4482 23.3314 20.5831 23.2352 20.7458C23.1391 20.9086 23.0852 21.0939 23.0786 21.2841C23.072 21.4743 23.1131 21.6631 23.1978 21.8324C23.2825 22.0018 23.408 22.146 23.5624 22.2515C23.7169 22.357 23.8951 22.4202 24.0801 22.4351C24.2651 22.4499 24.4507 22.416 24.6193 22.3365C24.7878 22.2569 24.9338 22.1344 25.0431 21.9807C25.1051 22.0791 25.1877 22.162 25.2849 22.2236C25.382 22.2851 25.4913 22.3237 25.6048 22.3365C25.7183 22.3493 25.8332 22.336 25.941 22.2975C26.0489 22.2591 26.1471 22.1965 26.2284 22.1143C26.3067 22.0379 26.3688 21.9458 26.4106 21.8436C26.4525 21.7415 26.4734 21.6315 26.4719 21.5207V21.3718C26.4767 20.8213 26.2831 20.2884 25.9284 19.8752C25.5737 19.4621 25.0828 19.1978 24.5498 19.1331ZM24.1611 22.0004C24.0306 22.0004 23.903 21.9607 23.7945 21.8863C23.6859 21.812 23.6014 21.7063 23.5514 21.5826C23.5015 21.4589 23.4884 21.3228 23.5139 21.1915C23.5393 21.0602 23.6022 20.9396 23.6945 20.8449C23.7868 20.7503 23.9043 20.6858 24.0324 20.6597C24.1604 20.6336 24.2931 20.647 24.4136 20.6982C24.5342 20.7495 24.6373 20.8362 24.7098 20.9475C24.7823 21.0588 24.821 21.1897 24.821 21.3236C24.8205 21.5029 24.7507 21.6747 24.6271 21.8015C24.5035 21.9283 24.3359 21.9998 24.1611 22.0004Z" fill="#566CFB"/>
</g>
<defs>
<clipPath id="clip0_949_1112">
<rect width="4.27143" height="4.6" fill="white" transform="translate(22.2002 18.9141)"/>
</clipPath>
</defs>
</svg>
