<svg width="24" height="17" viewBox="0 0 24 17" fill="none" xmlns="http://www.w3.org/2000/svg">
<path d="M16.484 8.47567L22.635 3.04454V13.8448L16.484 8.47567ZM8.558 9.39543L10.718 11.301C11.057 11.5937 11.499 11.7705 11.982 11.7705H11.999H11.998H12.012C12.496 11.7705 12.938 11.5927 13.281 11.2979L13.278 11.3L15.438 9.39441L22.004 15.1253H1.995L8.558 9.39543ZM1.986 1.75688H22.016L12.395 10.2491C12.2868 10.3361 12.1529 10.3834 12.015 10.3833H12.001H12.002H11.988C11.8496 10.3835 11.7152 10.3358 11.607 10.2481L11.608 10.2491L1.986 1.75688ZM1.365 3.04353L7.515 8.47466L1.365 13.8407V3.04353ZM22.965 0.562727C22.725 0.44077 22.443 0.369629 22.144 0.369629H1.859C1.56916 0.369699 1.28331 0.43824 1.024 0.569841L1.035 0.564759C0.724573 0.720367 0.463148 0.961096 0.280254 1.25975C0.0973606 1.55841 0.000287348 1.9031 0 2.25487L0 14.6253C0.000529404 15.126 0.196452 15.606 0.54478 15.96C0.893108 16.314 1.36539 16.5131 1.858 16.5136H22.141C22.6336 16.5131 23.1059 16.314 23.4542 15.96C23.8025 15.606 23.9985 15.126 23.999 14.6253V2.25894V2.25487C23.999 1.51602 23.58 0.875749 22.97 0.567808L22.959 0.562727H22.965Z" fill="#566CFB"/>
</svg>
