<svg xmlns="http://www.w3.org/2000/svg" xmlns:xlink="http://www.w3.org/1999/xlink" viewBox="0 0 213.4 213.4"><defs><style>.cls-1{fill:#146689;}.cls-2{fill:#4d200a;}.cls-3{fill:url(#linear-gradient);}.cls-4{fill:#4d210a;}.cls-5{fill-rule:evenodd;fill:url(#linear-gradient-2);}.cls-6{fill:#cb9435;}.cls-7{fill:#654a1a;}.cls-8,.cls-9{fill:none;stroke-miterlimit:10;}.cls-8{stroke:#146689;}.cls-9{stroke:#4d200a;stroke-width:5px;}</style><linearGradient id="linear-gradient" x1="128.86" y1="-299.03" x2="129.85" y2="-307.1" gradientTransform="matrix(1, 0, 0, -1, 0, -212.86)" gradientUnits="userSpaceOnUse"><stop offset="0" stop-color="#4e210a"/><stop offset="1" stop-color="#bf882d" stop-opacity="0.22"/></linearGradient><linearGradient id="linear-gradient-2" x1="119.41" y1="-327.62" x2="45.34" y2="-368.13" gradientTransform="matrix(1, 0, 0, -1, 0, -212.86)" gradientUnits="userSpaceOnUse"><stop offset="0" stop-color="#4e210a"/><stop offset="1" stop-color="#d4ab46" stop-opacity="0"/></linearGradient></defs><g id="Layer_2" data-name="Layer 2"><g id="Layer_1-2" data-name="Layer 1"><path class="cls-1" d="M47.35,130.26a4.49,4.49,0,0,1,1.27-1.39H74.39c.5,0,1.22.93,1.51,1.39Z"/><path class="cls-1" d="M44.7,133v2.9H78.3V133c0-.31-.76-1.06-1.14-1.39H46A1.91,1.91,0,0,0,44.7,133Z"/><path class="cls-2" d="M133.75,129.63a4.49,4.49,0,0,1,1.27-1.39h25.77c.5,0,1.22.92,1.51,1.39Z"/><path class="cls-2" d="M131.1,132.41v2.9h33.6v-2.9c0-.31-.76-1.06-1.14-1.39h-31.2A1.91,1.91,0,0,0,131.1,132.41Z"/><path class="cls-2" d="M66.81,128.74h4.42c3-7.07,28.55-34.44,41.56-44.08C91.26,98.81,73.16,119.94,66.81,128.74Z"/><path class="cls-1" d="M116.7,79.86c-32.64,13.94-56,38.31-63.54,48.76H64.41C67.31,122.55,97.38,91.23,116.7,79.86Z"/><path class="cls-2" d="M123.52,59.14,130.34,72c-45.07,17.48-71,44.08-78.31,55.2,1.81-3.92,8.16-16.75,19.07-36.76C86.26,72.68,112.36,62.17,123.52,59.14Z"/><path class="cls-1" d="M105.33,24,73.38,85.67c16-17.18,39.66-25.77,49.51-27.92Z"/><path class="cls-3" d="M138,86.12l-16.59,8.95c-1.26-.64-.85-2.32-.49-3.08,4.28-2.35,13.19-7.24,14.63-7.94C137.7,84.21,138.09,85.5,138,86.12Z"/><path class="cls-4" d="M136.57,122.89l16.6-9c1.26.64.85,2.32.49,3.08-4.28,2.35-13.2,7.23-14.63,7.94C136.89,124.79,136.5,123.5,136.57,122.89Z"/><path class="cls-5" d="M92.88,132a14.24,14.24,0,0,0,4.69-2c1.45-.8,5.35-3.14,10-5.94,7.13-4.27,16.06-9.62,20.81-12.23l-1.74-3.24L94.56,125l-.46.26A18.51,18.51,0,0,0,90,128.37l0,0c-1.23-.14-4,1.44-4.67,2.91-1.34,2.84,1.63,3.42,2.79,3.37a6.19,6.19,0,0,0,4.18-2.62l-.5-.81c.24.35.43.66.55.87Z"/><path class="cls-6" d="M142.64,92.77l-18.07,9.72a1.42,1.42,0,0,0,1.33.93c5.41-2.9,16.35-8.75,16.91-9A1.91,1.91,0,0,0,142.64,92.77Z"/><path class="cls-6" d="M132.38,116.45l17.94-10a1.4,1.4,0,0,0-1.34-.91c-5.37,3-16.24,9-16.79,9.24A1.87,1.87,0,0,0,132.38,116.45Z"/><path class="cls-7" d="M142.7,94.65l-16.65,8.84.63,1.11,16.66-9Z"/><path class="cls-7" d="M148.35,104.5l-16.69,8.78.63,1.11,16.69-9Z"/><path class="cls-6" d="M148.15,104.34l-4.61-8.64-16.7,8.93a6.7,6.7,0,0,0,.4,1,3.64,3.64,0,0,0-.56,2.78l1.71,3.21a3.61,3.61,0,0,0,2.55.84l.39.7Z"/><path class="cls-4" d="M125.44,101.15c2.38-4.7-1-5.63-3-5.57,3.73-2.16,12.88-6.83,15.46-8.42-2,4.19.87,5.23,3.48,5.23C137.59,94.51,128.42,99.35,125.44,101.15Z"/><path class="cls-4" d="M136.64,121.82c1.69-3.49-.51-5.37-2.62-5.31,3.9-2.27,12.37-7.11,15.08-8.77-2.1,4.41.86,5.76,2.93,5.66C148,115.63,139.76,119.92,136.64,121.82Z"/><path class="cls-1" d="M36.85,156.06a.71.71,0,0,0,0,.51.61.61,0,0,0,.25.32.72.72,0,0,0,.36.11h.14v.15H34.35V157h.14a1.36,1.36,0,0,0,.71-.22,1.57,1.57,0,0,0,.6-.72Zm3.22-9.69.06,1.83-3.71,8.91H35.33l3.87-8.78c0-.06.09-.17.16-.34s.16-.35.24-.56l.23-.6a1.55,1.55,0,0,0,.11-.46Zm1.57,7.22v.63h-4.4v-.63Zm-1.57-7.22L45,157.06h-2.7l-3.11-7.8Zm1.8,9.69h2.62a1.65,1.65,0,0,0,.61.72,1.34,1.34,0,0,0,.71.22h.12v.15H41.17V157h.13a.67.67,0,0,0,.52-.25A.62.62,0,0,0,41.87,156.06Z"/><path class="cls-1" d="M47.33,147.76h0a1,1,0,0,0-.29-.66.91.91,0,0,0-.67-.28h-.19v-.15h1.19Zm0,8.3v1.09H46.14V157h.19a.91.91,0,0,0,.67-.28,1,1,0,0,0,.29-.66Zm2.2-9.39v10.48H47.29V146.67Zm.93,0a6.94,6.94,0,0,1,2,.26,2.94,2.94,0,0,1,1.35.82,2.17,2.17,0,0,1,.5,1.48A2.35,2.35,0,0,1,54,150.4a1.85,1.85,0,0,1-.68.73,2.23,2.23,0,0,1-.88.32,2.94,2.94,0,0,1,1.35.42,2.5,2.5,0,0,1,1,.95,2.88,2.88,0,0,1,.34,1.41,2.47,2.47,0,0,1-.52,1.61,3.24,3.24,0,0,1-1.48,1,6.72,6.72,0,0,1-2.21.33H49.4c0-.23,0-.45,0-.67h.8a2.64,2.64,0,0,0,1.19-.26,1.77,1.77,0,0,0,.81-.79,2.82,2.82,0,0,0,.29-1.38,2.7,2.7,0,0,0-.2-1.12,2,2,0,0,0-.54-.76,2,2,0,0,0-.78-.42,3.31,3.31,0,0,0-1-.14v-.13a2,2,0,0,0,.68-.12,1.62,1.62,0,0,0,.59-.35,1.65,1.65,0,0,0,.41-.64,2.67,2.67,0,0,0,.15-1,2.79,2.79,0,0,0-.23-1.22,1.47,1.47,0,0,0-.67-.68,2.26,2.26,0,0,0-1-.21H48a1.29,1.29,0,0,0,0-.17c0-.1-.06-.26-.11-.47Z"/><path class="cls-1" d="M57.23,156.09v1.06H56V157h.28a.89.89,0,0,0,.65-.27.87.87,0,0,0,.27-.64Zm-.07-9.64,2.15,2.29,0,8.41H57.19v-8.83a10.89,10.89,0,0,0-.18-1.87Zm0,0,9.55,9.1.18,1.81-9.55-9.09Zm2.17,9.64a.92.92,0,0,0,.91.91h.28v.15H59.28v-1.06Zm4.17-9.42h1.25v1.06h0a1,1,0,0,0-.28-.65.91.91,0,0,0-.65-.26H63.5Zm3.34,0v8.77a10,10,0,0,0,0,1c0,.29.07.6.13.92h-.13l-2.17-2.43v-8.26Zm1.2,0v.15h-.27a.9.9,0,0,0-.64.26.93.93,0,0,0-.29.65h0v-1.06Z"/><path class="cls-1" d="M70.08,147.76h0a1,1,0,0,0-.29-.66.91.91,0,0,0-.67-.28h-.19v-.15h1.2Zm0,8.3v1.09h-1.2V157h.19a.91.91,0,0,0,.67-.28,1,1,0,0,0,.29-.66Zm2.2-9.39v10.48H70V146.67Zm4.13,0v.64H72.23v-.64Zm-.73,5v.63H72.23v-.63Zm.55,4.84.36.64H72.23v-.64Zm1.09-2.43-.69,3.07H73.7l.54-.64a2.79,2.79,0,0,0,1.32-.3,2.74,2.74,0,0,0,1-.83,4.51,4.51,0,0,0,.64-1.3Zm-1.64-3.82v1.44H74.25v0a1.31,1.31,0,0,0,.92-.38,1.27,1.27,0,0,0,.36-.92v-.11Zm0,2v1.44h-.15v-.12a1.25,1.25,0,0,0-.36-.92,1.3,1.3,0,0,0-.92-.37v0Zm.73-5.87v.43l-1.83-.16a5.76,5.76,0,0,0,.7,0l.68-.1A2.26,2.26,0,0,0,76.41,146.4Zm0,.87V149h-.15v-.18a1.53,1.53,0,0,0-.41-1.11,1.56,1.56,0,0,0-1.12-.43v0Z"/><path class="cls-1" d="M77.92,146.38a2.64,2.64,0,0,0,.46.12c.2,0,.43.08.68.11a5.76,5.76,0,0,0,.69,0l-1.83.17Zm9.58.27v.63H77.92v-.63Zm-7.91.59v0a1.59,1.59,0,0,0-1.11.43,1.53,1.53,0,0,0-.41,1.12V149h-.15v-1.76Zm2,8.82v1.09h-1.2V157h.19a.91.91,0,0,0,.67-.28,1,1,0,0,0,.29-.66Zm2.2-9.35v10.44H81.59V146.71Zm0,9.35h0a.92.92,0,0,0,.29.66.88.88,0,0,0,.66.28H85v.15h-1.2Zm3.71-9.68v.44l-1.82-.17a5.8,5.8,0,0,0,.7,0l.68-.11A2,2,0,0,0,87.5,146.38Zm0,.86V149h-.14v-.16a1.49,1.49,0,0,0-.42-1.12,1.56,1.56,0,0,0-1.11-.43v0Z"/><path class="cls-1" d="M95.59,146.46l.74,0,.91.08.83.11a1.9,1.9,0,0,1,.48.11l-.17,2h-.16a1.53,1.53,0,0,0-.57-1.25,2.4,2.4,0,0,0-1.54-.47,2.22,2.22,0,0,0-1.4.42,1.36,1.36,0,0,0-.56,1,1,1,0,0,0,.29.77,3.46,3.46,0,0,0,.76.62l2.86,1.86a2.53,2.53,0,0,1,1.35,2.48,2.94,2.94,0,0,1-1.12,2.28,4.49,4.49,0,0,1-2.85.82,7.62,7.62,0,0,1-1.28-.11,5.29,5.29,0,0,1-1.1-.32,2.25,2.25,0,0,1-.76-.48,2.15,2.15,0,0,1-.11-.8,4.45,4.45,0,0,1,.14-.94,3.08,3.08,0,0,1,.33-.79h.13a2.51,2.51,0,0,0,.28,1.41,2.43,2.43,0,0,0,1,1,2.9,2.9,0,0,0,1.55.37,2.28,2.28,0,0,0,1.53-.5,1.53,1.53,0,0,0,.54-1.18,1.34,1.34,0,0,0-.28-.83,2.67,2.67,0,0,0-.9-.72l-2.62-1.74a2.66,2.66,0,0,1-1.44-2.68,2.94,2.94,0,0,1,.46-1.37,2.67,2.67,0,0,1,1.07-.92A3.73,3.73,0,0,1,95.59,146.46Zm3,.15,0,.31H96.77v-.31Z"/><path class="cls-1" d="M106.71,146.46a6.84,6.84,0,0,1,3.13.67,5,5,0,0,1,2,1.87,6.22,6.22,0,0,1,0,5.81,4.91,4.91,0,0,1-2,1.88,7.62,7.62,0,0,1-6.25,0,4.82,4.82,0,0,1-2-1.88,5.55,5.55,0,0,1-.72-2.9,5.62,5.62,0,0,1,.72-2.9,4.82,4.82,0,0,1,2-1.88A6.83,6.83,0,0,1,106.71,146.46Zm0,10.27a2.93,2.93,0,0,0,1.83-.59,3.75,3.75,0,0,0,1.18-1.67,8,8,0,0,0,0-5.12,3.75,3.75,0,0,0-1.18-1.67,3.1,3.1,0,0,0-3.64,0,3.61,3.61,0,0,0-1.19,1.67,8,8,0,0,0,0,5.12,3.61,3.61,0,0,0,1.19,1.67A2.91,2.91,0,0,0,106.71,156.73Z"/><path class="cls-1" d="M114.79,147.76h-.05a1,1,0,0,0-.29-.66.91.91,0,0,0-.67-.28h-.19v-.15h1.2Zm0,8.3v1.09h-1.2V157h.19a.91.91,0,0,0,.67-.28,1,1,0,0,0,.29-.66Zm2.2-9.39v10.48h-2.25V146.67Zm0,1.09v-1.09h1.2v.15H118a.89.89,0,0,0-.67.28.92.92,0,0,0-.29.66Zm4,8.75.36.64h-4.36v-.64Zm1.09-2.43-.69,3.07h-2.93l.54-.64a2.79,2.79,0,0,0,1.32-.3,2.83,2.83,0,0,0,1-.83,4.51,4.51,0,0,0,.64-1.3Z"/><path class="cls-1" d="M128.7,146.46a6.83,6.83,0,0,1,3.12.67,5,5,0,0,1,2.05,1.87,6.22,6.22,0,0,1,0,5.81,4.91,4.91,0,0,1-2.05,1.88,7.62,7.62,0,0,1-6.25,0,4.82,4.82,0,0,1-2-1.88,5.55,5.55,0,0,1-.72-2.9,5.62,5.62,0,0,1,.72-2.9,4.82,4.82,0,0,1,2-1.88A6.84,6.84,0,0,1,128.7,146.46Zm0,10.27a2.92,2.92,0,0,0,1.82-.59,3.84,3.84,0,0,0,1.19-1.67,8.2,8.2,0,0,0,0-5.12,3.84,3.84,0,0,0-1.19-1.67,3.1,3.1,0,0,0-3.64,0,3.61,3.61,0,0,0-1.19,1.67,8,8,0,0,0,0,5.12,3.61,3.61,0,0,0,1.19,1.67A2.92,2.92,0,0,0,128.7,156.73Z"/><path class="cls-1" d="M136.63,156.06v1.09H135V157h.24a1.11,1.11,0,0,0,.72-.25,1,1,0,0,0,.37-.69Zm.91-9.6h.14l.52,1.5-1,9.19h-1Zm-.25,9.84v.07a.67.67,0,0,0,.17.44.52.52,0,0,0,.41.21h.23v.13h-.92v-.85Zm.39-9.84,4.9,8-.86,2.95L137.29,150Zm9.1,0,.12,1.63-4.44,7.71a6.23,6.23,0,0,0-.45.9,2.21,2.21,0,0,0-.14.75h-.15l-.58-1.3Zm-.94,9.84h.1v.85H145V157h.22a.51.51,0,0,0,.42-.21.67.67,0,0,0,.17-.44v-.07Zm1.08-9.84,1.42,10.69h-2.41l-.75-6.89,1.6-3.8Zm1,9.6h.31a1,1,0,0,0,.39.69,1.07,1.07,0,0,0,.7.25h.24v.15h-1.64Z"/><path class="cls-1" d="M155.86,146.46a6.83,6.83,0,0,1,3.12.67A5,5,0,0,1,161,149a6.22,6.22,0,0,1,0,5.81,4.91,4.91,0,0,1-2.05,1.88,7.62,7.62,0,0,1-6.25,0,4.82,4.82,0,0,1-2-1.88,5.55,5.55,0,0,1-.72-2.9,5.62,5.62,0,0,1,.72-2.9,4.82,4.82,0,0,1,2-1.88A6.84,6.84,0,0,1,155.86,146.46Zm0,10.27a2.92,2.92,0,0,0,1.82-.59,3.76,3.76,0,0,0,1.19-1.67,8.2,8.2,0,0,0,0-5.12,3.76,3.76,0,0,0-1.19-1.67,3.1,3.1,0,0,0-3.64,0,3.69,3.69,0,0,0-1.19,1.67,8,8,0,0,0,0,5.12,3.69,3.69,0,0,0,1.19,1.67A2.92,2.92,0,0,0,155.86,156.73Z"/><path class="cls-1" d="M163.79,156.09v1.06h-1.24V157h.28a.89.89,0,0,0,.65-.27.87.87,0,0,0,.27-.64Zm-.07-9.64,2.15,2.29,0,8.41h-2.14v-8.83a10.89,10.89,0,0,0-.18-1.87Zm0,0,9.55,9.1.18,1.81-9.55-9.09Zm2.17,9.64a.92.92,0,0,0,.91.91h.29v.15h-1.25v-1.06Zm4.18-9.42h1.24v1.06h0a.92.92,0,0,0-.28-.65.89.89,0,0,0-.65-.26h-.28Zm3.33,0v8.77a10,10,0,0,0,0,1c0,.29.07.6.13.92h-.13l-2.17-2.43v-8.26Zm1.2,0v.15h-.27a.9.9,0,0,0-.64.26.93.93,0,0,0-.29.65h0v-1.06Z"/><path class="cls-2" d="M59,165.82h0a1,1,0,0,0-.3-.67.89.89,0,0,0-.67-.28h-.2v-.15H59Zm0,8.38v1.11H57.77v-.15H58a.93.93,0,0,0,.67-.28,1,1,0,0,0,.3-.68Zm2.23-9.48v10.59H58.94V164.72Zm-.05,1.1v-1.1h1.21v.15h-.19a.91.91,0,0,0-.68.28,1,1,0,0,0-.29.67Zm4,8.84.36.65h-4.4v-.65Zm1.11-2.45-.7,3.1h-3l.55-.65a2.73,2.73,0,0,0,2.31-1.15,4.17,4.17,0,0,0,.65-1.3Z"/><path class="cls-2" d="M68.57,174.2a.74.74,0,0,0,0,.52.59.59,0,0,0,.26.32.65.65,0,0,0,.36.12h.14v.15H66.05v-.15h.13a1.43,1.43,0,0,0,.72-.22,1.66,1.66,0,0,0,.62-.74Zm3.26-9.79.06,1.85-3.75,9H67L71,166.4c0-.06.08-.18.16-.34l.24-.57c.09-.21.16-.42.24-.61a1.46,1.46,0,0,0,.1-.47Zm1.59,7.3v.63H69v-.63Zm-1.59-7.3,4.94,10.81H74.05l-3.15-7.89Zm1.81,9.79h2.65a1.73,1.73,0,0,0,.62.74,1.43,1.43,0,0,0,.71.22h.12v.15H72.93v-.15h.14a.72.72,0,0,0,.53-.25A.65.65,0,0,0,73.64,174.2Z"/><path class="cls-2" d="M79.3,165.81H76.83a1.27,1.27,0,0,0-.59-.72,1.46,1.46,0,0,0-.74-.22h-.12v-.15H80v.15h-.14a.68.68,0,0,0-.51.24A.67.67,0,0,0,79.3,165.81Zm-2.84-1h2.46l2.42,6.84-.91,3.93Zm7.56-.33.27,1.49-3.36,7.93a6.79,6.79,0,0,0-.26.89,4.17,4.17,0,0,0-.1.79h-.14l-.42-1.8,3.87-9.3Zm0,0,3.33,7.35-.73,3.74L83,167.52Zm5.86.32L87,173.9a7.67,7.67,0,0,0-.21.92,3.89,3.89,0,0,0,0,.76h-.15l-.42-1.5,2.65-9.27Zm-1.32,1a.76.76,0,0,0-.08-.7.61.61,0,0,0-.5-.24h-.13v-.15H91v.15h-.12a1.59,1.59,0,0,0-.76.22,1.17,1.17,0,0,0-.57.72Z"/><path class="cls-2" d="M101.06,164.51a6.9,6.9,0,0,1,3.15.67,5,5,0,0,1,2.07,1.9,6.17,6.17,0,0,1,0,5.86,5,5,0,0,1-2.07,1.91,7.76,7.76,0,0,1-6.31,0,4.93,4.93,0,0,1-2.06-1.9,6.27,6.27,0,0,1,0-5.87,4.86,4.86,0,0,1,2.06-1.9A6.94,6.94,0,0,1,101.06,164.51Zm0,10.37a3,3,0,0,0,1.84-.59,3.84,3.84,0,0,0,1.2-1.69,7.21,7.21,0,0,0,.42-2.59,7.12,7.12,0,0,0-.42-2.58,3.84,3.84,0,0,0-1.2-1.69,3.12,3.12,0,0,0-3.68,0A3.86,3.86,0,0,0,98,167.43a7.12,7.12,0,0,0-.42,2.58A7.21,7.21,0,0,0,98,172.6a3.86,3.86,0,0,0,1.21,1.69A3,3,0,0,0,101.06,174.88Z"/><path class="cls-2" d="M109.21,165.82h0a1,1,0,0,0-.29-.67.91.91,0,0,0-.67-.28H108v-.15h1.21Zm0,8.38v1.11H108v-.15h.2a1,1,0,0,0,.67-.28,1,1,0,0,0,.29-.68Zm2.22-9.48v10.59h-2.27V164.72Zm4.18,0v.65h-4.22v-.65Zm-.74,5.05v.64h-3.48v-.64Zm-3.48,4.43h0a1,1,0,0,0,.3.68,1,1,0,0,0,.67.28h.2v.15h-1.21Zm3.48-5.85v1.45h-1.44v0a1.28,1.28,0,0,0,.92-.39,1.23,1.23,0,0,0,.37-.93v-.1Zm0,2v1.45h-.15v-.12a1.24,1.24,0,0,0-.37-.93,1.3,1.3,0,0,0-.92-.37v0Zm.74-5.93v.43l-1.85-.16a5.92,5.92,0,0,0,.71-.05l.69-.1A2.26,2.26,0,0,0,115.61,164.45Zm0,.87V167h-.15v-.15a1.5,1.5,0,0,0-.4-1.08,1.46,1.46,0,0,0-1.08-.4v-.05Z"/><path class="cls-2" d="M118.23,165.82h0a1,1,0,0,0-.29-.67.93.93,0,0,0-.68-.28H117v-.15h1.21Zm0,8.38v1.11H117v-.15h.19a1,1,0,0,0,.68-.28,1,1,0,0,0,.29-.68Zm2.22-9.48v10.59h-2.27V164.72Zm4.18,0v.65h-4.22v-.65Zm-.75,5.05v.64h-3.47v-.64Zm-3.47,4.43h0a1,1,0,0,0,.3.68.93.93,0,0,0,.67.28h.2v.15h-1.21Zm3.47-5.85v1.45h-1.43v0a1.28,1.28,0,0,0,.92-.39,1.26,1.26,0,0,0,.36-.93v-.1Zm0,2v1.45h-.15v-.12a1.27,1.27,0,0,0-.36-.93,1.3,1.3,0,0,0-.92-.37v0Zm.75-5.93v.43l-1.85-.16a5.76,5.76,0,0,0,.7-.05l.69-.1A2.41,2.41,0,0,0,124.63,164.45Zm0,.87V167h-.16v-.15a1.46,1.46,0,0,0-.4-1.08,1.43,1.43,0,0,0-1.08-.4v-.05Z"/><path class="cls-2" d="M127.24,165.82h0a1,1,0,0,0-.3-.67.89.89,0,0,0-.67-.28H126v-.15h1.21Zm0,8.38v1.11H126v-.15h.2a.93.93,0,0,0,.67-.28,1,1,0,0,0,.3-.68Zm2.23-9.48v10.59H127.2V164.72Zm-.05,1.1v-1.1h1.21v.15h-.19a.91.91,0,0,0-.68.28,1,1,0,0,0-.29.67Zm0,8.38h.05a1,1,0,0,0,.29.68,1,1,0,0,0,.68.28h.19v.15h-1.21Z"/><path class="cls-2" d="M141.87,170.89l.14,2.6a3.87,3.87,0,0,1-.89,1,4.62,4.62,0,0,1-1.4.73,6.05,6.05,0,0,1-2,.28,7.57,7.57,0,0,1-3.23-.67,4.88,4.88,0,0,1-2.14-1.89,5.45,5.45,0,0,1-.76-3,5.62,5.62,0,0,1,.74-2.93,4.93,4.93,0,0,1,2.13-1.9,7.59,7.59,0,0,1,3.3-.66,9,9,0,0,1,2.17.24,7.37,7.37,0,0,1,1.62.59v2.58h-.14a3.66,3.66,0,0,0-1.33-2.14,3.72,3.72,0,0,0-2.16-.64,3.58,3.58,0,0,0-2.07.59,3.81,3.81,0,0,0-1.34,1.67,6.42,6.42,0,0,0-.46,2.57,6.89,6.89,0,0,0,.44,2.58,3.84,3.84,0,0,0,1.27,1.7,3.39,3.39,0,0,0,1.95.63,4.6,4.6,0,0,0,2-.37,3,3,0,0,0,1.3-1.26,7.48,7.48,0,0,0,.73-2.36Z"/><path class="cls-2" d="M144.55,165.82h-.05a1,1,0,0,0-.29-.67.91.91,0,0,0-.67-.28h-.2v-.15h1.21Zm0,8.38v1.11h-1.21v-.15h.2a1,1,0,0,0,.67-.28,1,1,0,0,0,.29-.68Zm2.22-9.48v10.59H144.5V164.72Zm4.18,0v.65h-4.22v-.65Zm-.74,5.05v.64h-3.48v-.64Zm.56,4.89.36.65h-4.4v-.65Zm1.1-2.45-.69,3.1h-3l.55-.65a2.86,2.86,0,0,0,1.33-.3,2.83,2.83,0,0,0,1-.85,4.4,4.4,0,0,0,.65-1.3Zm-1.66-3.86v1.45h-1.44v0a1.28,1.28,0,0,0,.92-.39,1.23,1.23,0,0,0,.37-.93v-.1Zm0,2v1.45h-.15v-.12a1.24,1.24,0,0,0-.37-.93,1.3,1.3,0,0,0-.92-.37v0Zm.74-5.93v.43l-1.85-.16a5.92,5.92,0,0,0,.71-.05l.69-.1A2.26,2.26,0,0,0,151,164.45Zm0,.87v1.77h-.15v-.18a1.52,1.52,0,0,0-.42-1.12,1.57,1.57,0,0,0-1.13-.44v0Z"/><circle class="cls-8" cx="106.7" cy="106.7" r="96.35"/><circle class="cls-9" cx="106.7" cy="106.7" r="104.2"/></g></g></svg>