<svg width="51" height="51" viewBox="0 0 51 51" fill="none" xmlns="http://www.w3.org/2000/svg">
<path d="M10.8582 3.83447L8.61422 6.07529L11.9531 9.4126L14.1939 7.17179L10.8566 3.83447H10.8582ZM40.1434 3.83447L36.8045 7.17179L39.0469 9.4126L42.3842 6.07688L40.1418 3.83447H40.1434ZM25.5 4.82897C24.9741 4.83535 24.4417 4.86563 23.9062 4.93097C23.8903 4.93097 23.8744 4.92779 23.8584 4.93097C17.3942 5.67207 12.2496 10.8948 11.3555 17.3303C10.6415 22.51 12.7771 27.2068 16.3359 30.2318C17.7917 31.4742 18.7763 33.179 19.125 35.0608V44.6233H22.7587C23.3134 45.5748 24.3254 46.2171 25.5 46.2171C26.6746 46.2171 27.6866 45.5748 28.2412 44.6233H31.875V38.2483H32.0248V36.3549C32.0248 34.0185 33.2392 31.6629 35.2123 29.8317C37.8516 27.1893 39.8438 23.436 39.8438 19.1249C39.8438 11.2518 33.3636 4.75566 25.5 4.82897V4.82897ZM25.5 8.01647C31.6598 7.93041 36.6562 12.973 36.6562 19.1249C36.6562 22.4622 35.1103 25.4011 32.9699 27.5399L33.0209 27.5909C30.8938 29.5523 29.5184 32.1949 29.1322 35.0624H22.1611C21.8105 32.3307 20.6391 29.6867 18.4253 27.7901C15.6092 25.3995 13.931 21.7976 14.492 17.7304C15.1884 12.7101 19.2621 8.6731 24.2537 8.12007C24.6658 8.06261 25.0808 8.02856 25.4968 8.01807L25.5 8.01647ZM3.1875 19.1249V22.3124H7.96875V19.1249H3.1875ZM43.0312 19.1249V22.3124H47.8125V19.1249H43.0312ZM11.9531 32.0247L8.61581 35.3604L10.8582 37.6028L14.1923 34.2655L11.9531 32.0247ZM39.0469 32.0247L36.8061 34.2655L40.1418 37.6028L42.3842 35.3604L39.0469 32.0247ZM22.3125 38.2499H28.6875V41.4374H22.3125V38.2499Z" fill="#566CFB"/>
</svg>
