<svg width="45" height="44" viewBox="0 0 45 44" fill="none" xmlns="http://www.w3.org/2000/svg">
<path d="M7.85822 0.834473L5.61422 3.07529L8.95312 6.4126L11.1939 4.17179L7.85662 0.834473H7.85822ZM37.1434 0.834473L33.8045 4.17179L36.0469 6.4126L39.3842 3.07688L37.1418 0.834473H37.1434ZM22.5 1.82897C21.9741 1.83535 21.4417 1.86563 20.9062 1.93097C20.8903 1.93097 20.8744 1.92779 20.8584 1.93097C14.3942 2.67207 9.24956 7.89478 8.35547 14.3303C7.64147 19.51 9.77709 24.2068 13.3359 27.2318C14.7917 28.4742 15.7763 30.179 16.125 32.0608V41.6233H19.7587C20.3134 42.5748 21.3254 43.2171 22.5 43.2171C23.6746 43.2171 24.6866 42.5748 25.2412 41.6233H28.875V35.2483H29.0248V33.3549C29.0248 31.0185 30.2392 28.6629 32.2123 26.8317C34.8516 24.1893 36.8438 20.436 36.8438 16.1249C36.8438 8.25179 30.3636 1.75566 22.5 1.82897ZM22.5 5.01647C28.6598 4.93041 33.6562 9.97304 33.6562 16.1249C33.6562 19.4622 32.1103 22.4011 29.9699 24.5399L30.0209 24.5909C27.8938 26.5523 26.5184 29.1949 26.1322 32.0624H19.1611C18.8105 29.3307 17.6391 26.6867 15.4253 24.7901C12.6092 22.3995 10.931 18.7976 11.492 14.7304C12.1884 9.71007 16.2621 5.6731 21.2537 5.12007C21.6658 5.06261 22.0808 5.02856 22.4968 5.01807L22.5 5.01647ZM0.1875 16.1249V19.3124H4.96875V16.1249H0.1875ZM40.0312 16.1249V19.3124H44.8125V16.1249H40.0312ZM8.95312 29.0247L5.61581 32.3604L7.85822 34.6028L11.1923 31.2655L8.95312 29.0247ZM36.0469 29.0247L33.8061 31.2655L37.1418 34.6028L39.3842 32.3604L36.0469 29.0247ZM19.3125 35.2499H25.6875V38.4374H19.3125V35.2499Z" fill="white"/>
</svg>
