<svg width="38" height="41" viewBox="0 0 38 41" fill="none" xmlns="http://www.w3.org/2000/svg">
<path d="M36.9185 17.5714L32.1538 5.85714H35.0769V2.92857H20.4615V0H17.5385V2.92857H2.92308V5.85714H5.84615L1.11077 17.5714H0V20.5H0.438462C0.894462 21.9584 1.82108 23.2236 3.06923 24.1021C4.30174 24.9976 5.78524 25.4797 7.30769 25.4797C8.83015 25.4797 10.3136 24.9976 11.5462 24.1021C12.7954 23.2182 13.7279 21.9554 14.2062 20.5H14.6154V17.5714H13.3L8.41846 5.85714H17.5385V29.2857H11.6923L10.5523 29.8129L4.70615 37.1636L5.84615 39.5357H32.1538L33.2938 37.1636L27.4477 29.8129L26.3077 29.2857H20.4615V5.85714H29.6108L24.7292 17.5714H23.3846V20.5H23.8231C24.3011 21.9509 25.2238 23.2138 26.4597 24.1091C27.6956 25.0043 29.1818 25.4861 30.7069 25.4861C32.232 25.4861 33.7182 25.0043 34.9541 24.1091C36.1901 23.2138 37.1127 21.9509 37.5908 20.5H38V17.5714H36.9185ZM9.41231 21.9936C8.76767 22.351 8.04443 22.5422 7.30769 22.55C6.57968 22.5462 5.86492 22.3545 5.23231 21.9936C4.58722 21.6393 4.04371 21.125 3.65385 20.5H10.9615C10.575 21.1174 10.043 21.6303 9.41231 21.9936V21.9936ZM10.1431 17.5714H4.29692L7.22 10.5429L10.1431 17.5714ZM25.6062 32.2143L29.2308 36.6071H8.76923L12.3938 32.2143H25.6062ZM30.8092 10.6014L33.7323 17.63H27.8862L30.8092 10.6014V10.6014ZM32.7969 22.0521C32.1578 22.4232 31.4309 22.6154 30.6923 22.6086C29.9625 22.619 29.244 22.4264 28.6169 22.0521C27.9709 21.6733 27.4286 21.1401 27.0385 20.5H34.3462C33.9838 21.1516 33.4473 21.6891 32.7969 22.0521V22.0521Z" fill="#566CFB"/>
</svg>
