<svg width="20" height="20" viewBox="0 0 20 20" fill="none" xmlns="http://www.w3.org/2000/svg">
<path d="M20 10C20 4.477 15.523 0 10 0C4.477 0 0 4.477 0 10C0 15.523 4.477 20 10 20C15.523 20 20 15.523 20 10ZM11.56 14.53C11.4194 14.6705 11.2288 14.7493 11.03 14.7493C10.8312 14.7493 10.6406 14.6705 10.5 14.53L6.5 10.53C6.35955 10.3894 6.28066 10.1988 6.28066 10C6.28066 9.80125 6.35955 9.61063 6.5 9.47L10.5 5.47C10.6422 5.33752 10.8302 5.2654 11.0245 5.26883C11.2188 5.27225 11.4042 5.35097 11.5416 5.48838C11.679 5.62579 11.7577 5.81118 11.7612 6.00548C11.7646 6.19978 11.6925 6.38782 11.56 6.53L8.092 10L11.562 13.47C11.7025 13.6106 11.7813 13.8012 11.7813 14C11.7813 14.1988 11.7025 14.3894 11.562 14.53H11.56Z" fill="#3D5A80"/>
</svg>
