<svg width="14" height="10" viewBox="0 0 14 10" fill="none" xmlns="http://www.w3.org/2000/svg">
<g clip-path="url(#clip0_916_985)">
<path fill-rule="evenodd" clip-rule="evenodd" d="M14.0009 4.99965C14.0009 4.86705 13.9482 4.73987 13.8544 4.6461C13.7607 4.55233 13.6335 4.49965 13.5009 4.49965H1.70789L4.85489 1.35366C4.90138 1.30717 4.93826 1.25198 4.96342 1.19124C4.98858 1.1305 5.00153 1.0654 5.00153 0.999655C5.00153 0.933911 4.98858 0.868811 4.96342 0.808072C4.93826 0.747332 4.90138 0.692143 4.85489 0.645655C4.80841 0.599167 4.75322 0.562291 4.69248 0.537132C4.63174 0.511973 4.56664 0.499023 4.50089 0.499023C4.43515 0.499023 4.37005 0.511973 4.30931 0.537132C4.24857 0.562291 4.19338 0.599167 4.14689 0.645655L0.146894 4.64565C0.100331 4.6921 0.0633877 4.74728 0.0381812 4.80802C0.0129748 4.86877 0 4.93389 0 4.99965C0 5.06542 0.0129748 5.13054 0.0381812 5.19129C0.0633877 5.25203 0.100331 5.30721 0.146894 5.35365L4.14689 9.35365C4.19338 9.40014 4.24857 9.43702 4.30931 9.46218C4.37005 9.48734 4.43515 9.50029 4.50089 9.50029C4.56664 9.50029 4.63174 9.48734 4.69248 9.46218C4.75322 9.43702 4.80841 9.40014 4.85489 9.35365C4.90138 9.30717 4.93826 9.25198 4.96342 9.19124C4.98858 9.1305 5.00153 9.0654 5.00153 8.99965C5.00153 8.93391 4.98858 8.86881 4.96342 8.80807C4.93826 8.74733 4.90138 8.69214 4.85489 8.64565L1.70789 5.49965H13.5009C13.6335 5.49965 13.7607 5.44698 13.8544 5.35321C13.9482 5.25944 14.0009 5.13226 14.0009 4.99965Z" fill="#566CFB"/>
</g>
<defs>
<clipPath id="clip0_916_985">
<rect width="14.0009" height="10" fill="white"/>
</clipPath>
</defs>
</svg>
