<svg width="44" height="44" viewBox="0 0 44 44" fill="none" xmlns="http://www.w3.org/2000/svg">
<path d="M39.1111 0H4.88889C2.2 0 0 2.2 0 4.88889V39.1111C0 41.8 2.2 44 4.88889 44H39.1111C41.8 44 44 41.8 44 39.1111V4.88889C44 2.2 41.8 0 39.1111 0ZM39.1111 39.1111H4.88889V4.88889H39.1111V39.1111Z" fill="#566CFB"/>
<path d="M7.9451 11.5379H20.1673V15.2046H7.9451V11.5379ZM24.4451 31.1668H36.6673V34.8335H24.4451V31.1668ZM24.4451 25.0557H36.6673V28.7224H24.4451V25.0557ZM12.2229 36.6668H15.8895V31.7779H20.7784V28.1113H15.8895V23.2224H12.2229V28.1113H7.33398V31.7779H12.2229V36.6668ZM27.1095 19.4335L30.5562 15.9868L34.0029 19.4335L36.594 16.8424L33.1473 13.3713L36.594 9.92461L34.0029 7.3335L30.5562 10.7802L27.1095 7.3335L24.5184 9.92461L27.9651 13.3713L24.5184 16.8424L27.1095 19.4335Z" fill="#566CFB"/>
</svg>
