<svg width="44" height="44" viewBox="0 0 44 44" fill="none" xmlns="http://www.w3.org/2000/svg">
<path d="M39.1111 0H4.88889C2.2 0 0 2.2 0 4.88889V39.1111C0 41.8 2.2 44 4.88889 44H39.1111C41.8 44 44 41.8 44 39.1111V4.88889C44 2.2 41.8 0 39.1111 0ZM39.1111 39.1111H4.88889V4.88889H39.1111V39.1111Z" fill="#566CFB"/>
<path d="M7.94461 11.5379H20.1668V15.2046H7.94461V11.5379ZM24.4446 31.1668H36.6668V34.8335H24.4446V31.1668ZM24.4446 25.0557H36.6668V28.7224H24.4446V25.0557ZM12.2224 36.6668H15.8891V31.7779H20.7779V28.1113H15.8891V23.2224H12.2224V28.1113H7.3335V31.7779H12.2224V36.6668ZM27.109 19.4335L30.5557 15.9868L34.0024 19.4335L36.5935 16.8424L33.1468 13.3713L36.5935 9.92461L34.0024 7.3335L30.5557 10.7802L27.109 7.3335L24.5179 9.92461L27.9646 13.3713L24.5179 16.8424L27.109 19.4335Z" fill="#566CFB"/>
</svg>
