<svg width="56" height="38" viewBox="0 0 56 38" fill="none" xmlns="http://www.w3.org/2000/svg">
<path d="M0.980469 2.90974C0.980469 1.43602 2.18545 0.243652 3.66871 0.243652H25.3098C26.0227 0.243652 26.7065 0.524543 27.2106 1.02453C27.7148 1.52452 27.998 2.20265 27.998 2.90974C27.998 3.61683 27.7148 4.29496 27.2106 4.79495C26.7065 5.29494 26.0227 5.57583 25.3098 5.57583H3.66871C2.95575 5.57583 2.27198 5.29494 1.76784 4.79495C1.26369 4.29496 0.980469 3.61683 0.980469 2.90974V2.90974Z" fill="black"/>
<path d="M0.980469 19.0001C0.980469 17.5264 2.18545 16.334 3.66871 16.334H52.3273C53.0403 16.334 53.724 16.6149 54.2282 17.1149C54.7323 17.6149 55.0156 18.293 55.0156 19.0001C55.0156 19.7072 54.7323 20.3853 54.2282 20.8853C53.724 21.3853 53.0403 21.6662 52.3273 21.6662H3.66871C2.95575 21.6662 2.27198 21.3853 1.76784 20.8853C1.26369 20.3853 0.980469 19.7072 0.980469 19.0001V19.0001Z" fill="black"/>
<path d="M3.66871 32.4238C2.95575 32.4238 2.27198 32.7047 1.76784 33.2047C1.26369 33.7047 0.980469 34.3828 0.980469 35.0899C0.980469 35.797 1.26369 36.4751 1.76784 36.9751C2.27198 37.4751 2.95575 37.756 3.66871 37.756H36.1168C36.8298 37.756 37.5135 37.4751 38.0177 36.9751C38.5218 36.4751 38.805 35.797 38.805 35.0899C38.805 34.3828 38.5218 33.7047 38.0177 33.2047C37.5135 32.7047 36.8298 32.4238 36.1168 32.4238H3.66871Z" fill="black"/>
</svg>
