<svg width="56" height="38" viewBox="0 0 56 38" fill="none" xmlns="http://www.w3.org/2000/svg">
<path d="M0.982422 2.90974C0.982422 1.43602 2.1874 0.243652 3.67067 0.243652H25.3117C26.0247 0.243652 26.7085 0.524543 27.2126 1.02453C27.7167 1.52452 28 2.20265 28 2.90974C28 3.61683 27.7167 4.29496 27.2126 4.79495C26.7085 5.29494 26.0247 5.57583 25.3117 5.57583H3.67067C2.9577 5.57583 2.27393 5.29494 1.76979 4.79495C1.26565 4.29496 0.982422 3.61683 0.982422 2.90974V2.90974Z" fill="white"/>
<path d="M0.982422 19.0001C0.982422 17.5264 2.1874 16.334 3.67067 16.334H52.3293C53.0422 16.334 53.726 16.6149 54.2301 17.1149C54.7343 17.6149 55.0175 18.293 55.0175 19.0001C55.0175 19.7072 54.7343 20.3853 54.2301 20.8853C53.726 21.3853 53.0422 21.6662 52.3293 21.6662H3.67067C2.9577 21.6662 2.27393 21.3853 1.76979 20.8853C1.26565 20.3853 0.982422 19.7072 0.982422 19.0001V19.0001Z" fill="white"/>
<path d="M3.67067 32.4238C2.9577 32.4238 2.27393 32.7047 1.76979 33.2047C1.26565 33.7047 0.982422 34.3828 0.982422 35.0899C0.982422 35.797 1.26565 36.4751 1.76979 36.9751C2.27393 37.4751 2.9577 37.756 3.67067 37.756H36.1187C36.8317 37.756 37.5155 37.4751 38.0196 36.9751C38.5238 36.4751 38.807 35.797 38.807 35.0899C38.807 34.3828 38.5238 33.7047 38.0196 33.2047C37.5155 32.7047 36.8317 32.4238 36.1187 32.4238H3.67067Z" fill="white"/>
</svg>
