<svg width="46" height="44" viewBox="0 0 46 44" fill="none" xmlns="http://www.w3.org/2000/svg">
<path d="M46 19.25H41.4661C40.8498 15.5066 39.0087 12.0465 36.2073 9.36695C33.4059 6.68736 29.7885 4.92627 25.875 4.33675V0H20.125V4.33675C16.2115 4.92627 12.5941 6.68736 9.79272 9.36695C6.99134 12.0465 5.15019 15.5066 4.53388 19.25H0V24.75H4.53388C5.15019 28.4934 6.99134 31.9535 9.79272 34.6331C12.5941 37.3126 16.2115 39.0737 20.125 39.6633V44H25.875V39.6633C29.7885 39.0737 33.4059 37.3126 36.2073 34.6331C39.0087 31.9535 40.8498 28.4934 41.4661 24.75H46V19.25ZM35.6155 19.25H31.1334C30.7032 18.0903 30.0079 17.037 29.0983 16.1669C28.1886 15.2968 27.0874 14.6317 25.875 14.2203V9.933C28.2488 10.4556 30.4211 11.6065 32.1435 13.254C33.866 14.9016 35.0691 16.9794 35.6155 19.25V19.25ZM23 24.75C22.2375 24.75 21.5062 24.4603 20.9671 23.9445C20.4279 23.4288 20.125 22.7293 20.125 22C20.125 21.2707 20.4279 20.5712 20.9671 20.0555C21.5062 19.5397 22.2375 19.25 23 19.25C23.7625 19.25 24.4938 19.5397 25.0329 20.0555C25.5721 20.5712 25.875 21.2707 25.875 22C25.875 22.7293 25.5721 23.4288 25.0329 23.9445C24.4938 24.4603 23.7625 24.75 23 24.75V24.75ZM20.125 9.933V14.2203C18.9126 14.6317 17.8114 15.2968 16.9017 16.1669C15.9921 17.037 15.2968 18.0903 14.8666 19.25H10.3845C10.9309 16.9794 12.134 14.9016 13.8565 13.254C15.5789 11.6065 17.7512 10.4556 20.125 9.933V9.933ZM10.3845 24.75H14.8666C15.2968 25.9097 15.9921 26.963 16.9017 27.8331C17.8114 28.7032 18.9126 29.3683 20.125 29.7798V34.067C17.7512 33.5444 15.5789 32.3935 13.8565 30.746C12.134 29.0984 10.9309 27.0206 10.3845 24.75V24.75ZM25.875 34.067V29.7798C27.0874 29.3683 28.1886 28.7032 29.0983 27.8331C30.0079 26.963 30.7032 25.9097 31.1334 24.75H35.6155C35.0691 27.0206 33.866 29.0984 32.1435 30.746C30.4211 32.3935 28.2488 33.5444 25.875 34.067V34.067Z" fill="#566CFB"/>
</svg>
