<svg width="82" height="76" viewBox="0 0 82 76" fill="none" xmlns="http://www.w3.org/2000/svg">
<path d="M1.80176 72.1408C2.00763 71.7291 2.4594 71.3402 2.65955 71.1973H20.1584C20.5015 71.1973 20.9876 71.8263 21.1878 72.1408H1.80176Z" fill="#146689"/>
<path d="M0 74.0276V76.0005H22.8172V74.0276C22.8172 73.8217 22.3025 73.3127 22.0451 73.084H0.857788C0.308804 73.2212 0.0571859 73.7702 0 74.0276Z" fill="#146689"/>
<path d="M60.4736 71.7111C60.6795 71.2994 61.1313 70.9105 61.3314 70.7676H78.8303C79.1734 70.7676 79.6595 71.3966 79.8596 71.7111H60.4736Z" fill="#4D200A"/>
<path d="M58.6729 73.5979V75.5708H81.49V73.5979C81.49 73.392 80.9753 72.883 80.718 72.6543H59.5306C58.9817 72.7915 58.73 73.3405 58.6729 73.5979Z" fill="#4D200A"/>
<path d="M15.0117 71.1106H18.014C20.0727 66.307 37.4 47.722 46.2352 41.1738C31.6185 50.7811 19.3293 65.1347 15.0117 71.1106Z" fill="#4D200A"/>
<path d="M48.8938 37.9141C26.7286 47.384 10.8938 63.9336 5.74707 71.0247H13.3814C15.3543 66.9073 35.7696 45.6342 48.8938 37.9141Z" fill="#146689"/>
<path d="M53.5264 23.8457L58.1584 32.5951C27.5526 44.4669 9.95076 62.5319 4.97559 70.0805C6.20508 67.4213 10.5169 58.7062 17.9282 45.1188C28.2216 33.0412 45.9492 25.9044 53.5264 23.8457Z" fill="#4D200A"/>
<path d="M41.1737 0L19.4717 41.86C30.3141 30.1941 46.4062 24.3612 53.097 22.9029L41.1737 0Z" fill="#146689"/>
<path d="M63.3717 42.1646L52.1045 48.242C51.2497 47.807 51.5275 46.6696 51.7733 46.1553C54.6782 44.5565 60.7314 41.2386 61.7054 40.7582C63.1569 40.8733 63.421 41.7438 63.3717 42.1646Z" fill="url(#paint0_linear_969_949)"/>
<path d="M62.3887 67.1346L73.6587 61.0624C74.5132 61.4978 74.2349 62.635 73.9889 63.1492C71.0833 64.7468 65.0285 68.0618 64.0544 68.5418C62.6029 68.426 62.3391 67.5554 62.3887 67.1346Z" fill="#4D210A"/>
<path fill-rule="evenodd" clip-rule="evenodd" d="M32.7175 73.3409C33.5449 73.1567 33.992 73.0572 35.9016 72.0013C36.889 71.4553 39.5371 69.8686 42.7081 67.9686C47.5498 65.0674 53.6105 61.4359 56.8399 59.6635L55.6567 57.4593L33.859 68.5721C33.7503 68.6348 33.6478 68.6931 33.5496 68.749C32.7221 69.2198 32.1957 69.5193 30.751 70.8581C30.7571 70.87 30.7633 70.8821 30.7698 70.8944C29.9329 70.7969 28.0732 71.8669 27.5991 72.8681C26.6845 74.7995 28.7025 75.1939 29.4897 75.1544C29.8095 75.1383 31.303 74.8389 32.3278 73.3804C32.2144 73.1913 32.1034 73.0075 31.996 72.8308C32.1527 73.0691 32.2853 73.2758 32.3672 73.4203C32.4933 73.3908 32.6087 73.3651 32.7175 73.3409Z" fill="url(#paint1_linear_969_949)"/>
<path d="M66.5081 46.6794L54.2376 53.2805C54.5204 53.8486 54.9591 53.9387 55.1431 53.9127C58.8124 51.9482 66.2457 47.9719 66.6244 47.7833C66.8144 47.3737 66.626 46.8767 66.5081 46.6794Z" fill="#CB9435"/>
<path d="M59.5395 62.7647L71.7256 56.009C71.4356 55.4445 70.9958 55.3599 70.8121 55.3882C67.1679 57.399 59.7855 61.469 59.4092 61.6623C59.2245 62.0743 59.4191 62.5689 59.5395 62.7647Z" fill="#CB9435"/>
<path d="M66.5508 47.9608L55.2406 53.9629L55.6697 54.7144L66.9805 48.5941L66.5508 47.9608Z" fill="#654A1A"/>
<path d="M70.3835 54.648L59.0528 60.6112L59.4792 61.3642L70.8111 55.2827L70.3835 54.648Z" fill="#654A1A"/>
<path d="M70.249 54.5419L67.1193 48.6739L55.7796 54.7406C55.8048 54.8329 55.894 55.0966 56.0482 55.4137C55.5348 56.2281 55.5842 57.0118 55.6731 57.3018L56.8321 59.4824C57.3312 59.9924 58.1923 60.0753 58.5605 60.053L58.8313 60.5289L70.249 54.5419Z" fill="#CB9435"/>
<path d="M54.8276 52.3751C56.4437 49.1822 54.1771 48.5547 52.8074 48.5924C55.3372 47.1242 61.5501 43.951 63.3025 42.8753C61.9414 45.7212 63.8938 46.4229 65.6676 46.4229C63.0799 47.8641 56.8502 51.1549 54.8276 52.3751Z" fill="#4D210A"/>
<path d="M62.436 66.4075C63.5791 64.0424 62.0903 62.7675 60.657 62.8069C63.3039 61.2619 69.0586 57.9791 70.8921 56.8471C69.4684 59.8426 71.4793 60.7605 72.8819 60.6919C70.1744 62.2084 64.5522 65.1235 62.436 66.4075Z" fill="#4D210A"/>
<defs>
<linearGradient id="paint0_linear_969_949" x1="56.799" y1="42.2434" x2="57.4691" y2="47.7226" gradientUnits="userSpaceOnUse">
<stop stop-color="#4E210A"/>
<stop offset="1" stop-color="#BF882D" stop-opacity="0.22"/>
</linearGradient>
<linearGradient id="paint1_linear_969_949" x1="50.5717" y1="61.3221" x2="0.274496" y2="88.8363" gradientUnits="userSpaceOnUse">
<stop stop-color="#4E210A"/>
<stop offset="1" stop-color="#D4AB46" stop-opacity="0"/>
</linearGradient>
</defs>
</svg>
