<svg width="83" height="76" viewBox="0 0 83 76" fill="none" xmlns="http://www.w3.org/2000/svg">
<path d="M2.36816 72.1408C2.57403 71.7291 3.0258 71.3402 3.22595 71.1973H20.7248C21.0679 71.1973 21.554 71.8263 21.7542 72.1408H2.36816Z" fill="white"/>
<path d="M0.566406 74.0276V76.0005H23.3836V74.0276C23.3836 73.8217 22.8689 73.3127 22.6115 73.084H1.42419C0.87521 73.2212 0.623592 73.7702 0.566406 74.0276Z" fill="white"/>
<path d="M61.041 71.7092C61.2469 71.2975 61.6987 70.9086 61.8988 70.7656H79.3977C79.7408 70.7656 80.2269 71.3947 80.427 71.7092H61.041Z" fill="white"/>
<path d="M59.2393 73.5979V75.5708H82.0564V73.5979C82.0564 73.392 81.5417 72.883 81.2844 72.6543H60.097C59.5481 72.7915 59.2964 73.3405 59.2393 73.5979Z" fill="white"/>
<path d="M15.5781 71.1106H18.5804C20.6391 66.307 37.9664 47.722 46.8016 41.1738C32.1849 50.781 19.8957 65.1347 15.5781 71.1106Z" fill="white"/>
<path d="M49.4612 37.916C27.2959 47.386 11.4612 63.9356 6.31445 71.0266H13.9488C15.9217 66.9092 36.337 45.6361 49.4612 37.916Z" fill="white"/>
<path d="M54.0928 23.8457L58.7248 32.5951C28.119 44.4669 10.5172 62.5319 5.54199 70.0804C6.77149 67.4213 11.0833 58.7062 18.4946 45.1188C28.788 33.0412 46.5156 25.9044 54.0928 23.8457Z" fill="white"/>
<path d="M41.7401 0L20.0381 41.86C30.8805 30.1941 46.9726 24.3612 53.6634 22.9029L41.7401 0Z" fill="white"/>
<path d="M63.9391 42.1646L52.6719 48.242C51.8171 47.807 52.0949 46.6696 52.3407 46.1553C55.2456 44.5564 61.2988 41.2386 62.2728 40.7582C63.7243 40.8733 63.9884 41.7438 63.9391 42.1646Z" fill="white"/>
<path d="M62.9561 67.1326L74.2261 61.0604C75.0806 61.4958 74.8023 62.6331 74.5563 63.1473C71.6507 64.7448 65.5959 68.0598 64.6217 68.5398C63.1703 68.424 62.9065 67.5534 62.9561 67.1326Z" fill="white"/>
<path fill-rule="evenodd" clip-rule="evenodd" d="M33.2835 73.3389C34.1108 73.1548 34.5579 73.0552 36.4676 71.9993C37.455 71.4534 40.1031 69.8667 43.2741 67.9666C48.1157 65.0655 54.1765 61.434 57.4059 59.6616L56.2227 57.4574L34.425 68.5701C34.3163 68.6328 34.2138 68.6911 34.1156 68.747C33.2881 69.2178 32.7616 69.5174 31.317 70.8561C31.3233 70.8685 31.3298 70.8811 31.3365 70.8939C30.4997 70.7961 28.6397 71.8662 28.1655 72.8676C27.2509 74.799 29.2689 75.1934 30.0561 75.1538C30.3759 75.1378 31.8694 74.8384 32.8942 73.3799C32.7788 73.1874 32.6658 73.0004 32.5567 72.8208C32.7156 73.0625 32.8503 73.2722 32.9331 73.4184C33.0593 73.3889 33.1747 73.3632 33.2835 73.3389Z" fill="white"/>
<path d="M67.0755 46.6794L54.805 53.2805C55.0878 53.8486 55.5265 53.9387 55.7105 53.9127C59.3798 51.9482 66.8131 47.9719 67.1918 47.7833C67.3817 47.3737 67.1934 46.8767 67.0755 46.6794Z" fill="white"/>
<path d="M60.1059 62.7627L72.292 56.007C72.002 55.4425 71.5622 55.358 71.3785 55.3863C67.7344 57.3971 60.3519 61.467 59.9756 61.6604C59.7909 62.0724 59.9855 62.5669 60.1059 62.7627Z" fill="white"/>
<path d="M67.1172 47.9628L55.807 53.9648L56.2361 54.7164L67.5469 48.5961L67.1172 47.9628Z" fill="white"/>
<path d="M70.9509 54.648L59.6202 60.6112L60.0466 61.3642L71.3785 55.2827L70.9509 54.648Z" fill="white"/>
<path d="M70.8154 54.5419L67.6857 48.6739L56.346 54.7406C56.3712 54.8329 56.4604 55.0966 56.6146 55.4137C56.1012 56.2281 56.1506 57.0117 56.2395 57.3018L57.3986 59.4824C57.8976 59.9924 58.7587 60.0753 59.1269 60.053L59.3977 60.5289L70.8154 54.5419Z" fill="white"/>
<path d="M55.394 52.3731C57.0102 49.1802 54.7435 48.5527 53.3738 48.5904C55.9036 47.1223 62.1165 43.949 63.8689 42.8733C62.5078 45.7193 64.4602 46.4209 66.234 46.4209C63.6463 47.8621 57.4166 51.153 55.394 52.3731Z" fill="white"/>
<path d="M63.0024 66.4075C64.1456 64.0424 62.6567 62.7675 61.2234 62.8069C63.8703 61.2619 69.625 57.9791 71.4585 56.8471C70.0348 59.8426 72.0457 60.7605 73.4483 60.6919C70.7408 62.2084 65.1186 65.1235 63.0024 66.4075Z" fill="white"/>
</svg>
