<svg xmlns="http://www.w3.org/2000/svg" viewBox="0 0 926.91 234.19"><defs><style>.cls-1,.cls-2{fill:#fff;}.cls-2{fill-rule:evenodd;}</style></defs><g id="Layer_2" data-name="Layer 2"><g id="Layer_1-2" data-name="Layer 1"><path class="cls-1" d="M5.56,222.25a9.2,9.2,0,0,1,2.64-2.91H62.12c1.09,0,2.55,1.91,3.19,2.91Z"/><path class="cls-1" d="M0,228.08v6.11H70.32v-6.11c0-.63-1.55-2.18-2.37-2.91H2.73A3.73,3.73,0,0,0,0,228.08Z"/><path class="cls-1" d="M186.27,220.89a9.39,9.39,0,0,1,2.65-2.92h53.92c1.09,0,2.55,1.92,3.19,2.92Z"/><path class="cls-1" d="M180.72,226.72v6.1H251v-6.1c0-.64-1.55-2.19-2.37-2.92H183.45A3.88,3.88,0,0,0,180.72,226.72Z"/><path class="cls-1" d="M46.27,219.07h9.29c6.38-14.76,59.76-72,86.9-92.18C97.37,156.49,59.57,200.67,46.27,219.07Z"/><path class="cls-1" d="M150.57,116.87C82.25,146,33.52,197,17.67,218.88h23.5C47.27,206.13,110.22,140.64,150.57,116.87Z"/><path class="cls-1" d="M164.87,73.51l14.3,27C84.89,137,30.61,192.65,15.3,215.88c3.83-8.2,17-35.07,39.9-76.88C86.9,101.84,141.55,79.79,164.87,73.51Z"/><path class="cls-1" d="M126.79,0,59.94,129c33.42-35.89,83-53.92,103.56-58.39Z"/><path class="cls-1" d="M195.2,129.89l-34.7,18.77c-2.64-1.37-1.83-4.83-1-6.47,8.93-4.92,27.6-15.12,30.61-16.67C194.56,126,195.38,128.62,195.2,129.89Z"/><path class="cls-1" d="M192.2,206.86l34.7-18.67c2.64,1.36,1.73,4.82,1,6.46-8.93,4.92-27.6,15.13-30.6,16.58C192.83,210.78,192,208.14,192.2,206.86Z"/><path class="cls-2" d="M100.74,225.9c2.55-.55,3.92-.91,9.84-4.1,3-1.64,11.2-6.56,21-12.39,14.94-8.93,33.61-20.13,43.54-25.59L171.43,177,104.3,211.23a8.28,8.28,0,0,0-.92.55,38.43,38.43,0,0,0-8.65,6.47.09.09,0,0,0,.09.09c-2.55-.28-8.29,3-9.74,6.1-2.83,5.92,3.37,7.2,5.83,7A13.19,13.19,0,0,0,99.65,226a18.26,18.26,0,0,1-1-1.73c.45.73.91,1.36,1.18,1.82A3.2,3.2,0,0,0,100.74,225.9Z"/><path class="cls-1" d="M204.86,143.83l-37.81,20.31c.92,1.73,2.19,2,2.83,1.91,11.29-6,34.16-18.31,35.34-18.85A4.07,4.07,0,0,0,204.86,143.83Z"/><path class="cls-1" d="M183.36,193.38l37.53-20.77a3,3,0,0,0-2.83-1.91c-11.2,6.19-34,18.76-35.16,19.31A4.53,4.53,0,0,0,183.36,193.38Z"/><path class="cls-1" d="M205,147.74l-34.8,18.5,1.37,2.27,34.79-18.85Z"/><path class="cls-1" d="M216.79,168.33l-34.89,18.4,1.28,2.28,34.88-18.77Z"/><path class="cls-1" d="M216.33,168.06l-9.65-18-34.89,18.67a21.44,21.44,0,0,0,.82,2.1,7.85,7.85,0,0,0-1.18,5.83l3.55,6.74a7.43,7.43,0,0,0,5.28,1.73l.82,1.46Z"/><path class="cls-1" d="M168.88,161.32c5-9.84-2-11.75-6.2-11.66,7.84-4.56,27-14.3,32.34-17.58-4.19,8.74,1.82,10.93,7.29,10.93C194.29,147.47,175.07,157.58,168.88,161.32Z"/><path class="cls-1" d="M192.29,204.58c3.55-7.28-1.1-11.2-5.47-11.11,8.2-4.74,25.87-14.85,31.52-18.4-4.37,9.2,1.82,12,6.1,11.84C216.15,191.65,198.84,200.67,192.29,204.58Z"/><path class="cls-1" d="M282.3,100.71a3,3,0,0,0-.2,2.35,2.4,2.4,0,0,0,1.21,1.47,3.26,3.26,0,0,0,1.68.54h.6v.67H270.7v-.67h.61a6.43,6.43,0,0,0,3.28-1,7.51,7.51,0,0,0,2.82-3.35Zm15-44.92.26,8.45-17.23,41.3H275.2l18-40.7c.13-.27.4-.81.73-1.54s.74-1.61,1.14-2.62.74-1.87,1.08-2.81a6.39,6.39,0,0,0,.47-2.15h.67Zm7.3,33.46v2.88H284.18V89.25Zm-7.3-33.46L320,105.34H307.51L293.1,69.2Zm8.31,44.92h12.14a8.41,8.41,0,0,0,2.81,3.35,6.44,6.44,0,0,0,3.29,1h.53v.67H302.28v-.67h.61a3.17,3.17,0,0,0,2.41-1.14A3,3,0,0,0,305.57,100.71Z"/><path class="cls-1" d="M330.91,62.22h-.2a4.46,4.46,0,0,0-1.34-3.08,4.15,4.15,0,0,0-3.08-1.27h-.87V57.2H331v5Zm0,38.49v5.1h-5.56v-.67h.87a4.15,4.15,0,0,0,3.08-1.28,4.48,4.48,0,0,0,1.35-3.08h.26Zm10.2-43.58v48.61h-10.4V57.13Zm4.29,0a31.27,31.27,0,0,1,9.05,1.21,13.13,13.13,0,0,1,6.3,3.82A9.92,9.92,0,0,1,363,69a11.18,11.18,0,0,1-1.21,5.43,9.15,9.15,0,0,1-3.15,3.42,10.4,10.4,0,0,1-4.09,1.47,14.13,14.13,0,0,1,6.3,2,12.67,12.67,0,0,1,4.43,4.42,12.85,12.85,0,0,1,1.61,6.51,11.58,11.58,0,0,1-2.41,7.44,14.56,14.56,0,0,1-6.84,4.56,31.91,31.91,0,0,1-10.26,1.54h-6.84c.07-1.07.07-2.08.07-3.15h3.75a12,12,0,0,0,5.5-1.21,8.61,8.61,0,0,0,3.75-3.69,15.52,15.52,0,0,0,.41-11.6,9.74,9.74,0,0,0-2.49-3.48,11.86,11.86,0,0,0-3.62-2,15.19,15.19,0,0,0-4.35-.61v-.6a10.27,10.27,0,0,0,3.15-.54,7.61,7.61,0,0,0,2.75-1.61,6.94,6.94,0,0,0,1.87-2.95,12.24,12.24,0,0,0,.67-4.42,12.66,12.66,0,0,0-1.07-5.7A7,7,0,0,0,347.88,61a10.23,10.23,0,0,0-4.63-.94h-9.12a5,5,0,0,0-.2-.81c-.13-.46-.27-1.2-.54-2.21h12Z"/><path class="cls-1" d="M377,100.84v5h-5.76v-.67h1.34a4.35,4.35,0,0,0,4.29-4.3Zm-.33-44.72,10,10.6.07,39h-9.93v-41a52.58,52.58,0,0,0-.8-8.65Zm0,0L421,98.3l.8,8.38L377.51,64.57Zm10.06,44.72a4.35,4.35,0,0,0,4.29,4.3h1.34v.67h-5.77v-5Zm19.37-43.71h5.77v5h-.14a4.43,4.43,0,0,0-1.27-3,4.1,4.1,0,0,0-3-1.2h-1.34v-.74Zm15.49,0v40.7c0,1.74.07,3.22.2,4.62s.34,2.82.6,4.29h-.6L411.77,95.48V57.13Zm5.57,0v.67h-1.28a4.32,4.32,0,0,0-3,1.21,4.52,4.52,0,0,0-1.34,3h-.2v-5h5.84Z"/><path class="cls-1" d="M437.72,62.22h-.2a4.51,4.51,0,0,0-1.34-3.08,4.15,4.15,0,0,0-3.08-1.27h-.88V57.2h5.57v5Zm0,38.49v5.1h-5.56v-.67H433a4.15,4.15,0,0,0,3.08-1.28,4.46,4.46,0,0,0,1.34-3.08h.27ZM448,57.13v48.61H437.59V57.13Zm19.11,0v3H447.71v-3Zm-3.35,23.2v2.88h-16V80.33Zm2.54,22.46,1.68,3H447.78v-3Zm5-11.27-3.22,14.22H454.48l2.48-3a13.49,13.49,0,0,0,6.11-1.34,12.44,12.44,0,0,0,4.49-3.89,21.41,21.41,0,0,0,3-6h.73Zm-7.57-17.7v6.64h-6.57v-.13a5.82,5.82,0,0,0,4.22-1.75,5.75,5.75,0,0,0,1.68-4.29v-.47Zm0,9.32v6.64h-.67v-.53A5.51,5.51,0,0,0,461.39,85a6,6,0,0,0-4.22-1.74v-.14Zm3.35-27.22v2l-8.45-.73a26.44,26.44,0,0,0,3.22-.21c1.14-.13,2.21-.26,3.15-.46A14.35,14.35,0,0,0,467.09,55.92Zm0,4v8.11h-.67v-.81a7.07,7.07,0,0,0-1.88-5.16,7.38,7.38,0,0,0-5.16-2V60Z"/><path class="cls-1" d="M474.13,55.86a8.09,8.09,0,0,0,2.14.53c.94.2,2,.34,3.16.47a28.48,28.48,0,0,0,3.21.2l-8.44.74V55.86Zm44.39,1.2V60H474.06V57.06Zm-36.68,2.75V60a7.23,7.23,0,0,0-5.1,2,7,7,0,0,0-1.87,5.17v.73l-.67.07V59.81Zm9.52,40.9v5.1H485.8v-.67h.87a4.16,4.16,0,0,0,3.08-1.28,4.46,4.46,0,0,0,1.34-3.08h.27ZM501.55,57.4v48.41H491.16V57.4Zm-.2,43.31h.2a4.49,4.49,0,0,0,1.34,3.08,4.13,4.13,0,0,0,3.09,1.28h.87v.67h-5.57v-5Zm17.17-44.85v2l-8.45-.74a28.65,28.65,0,0,0,3.22-.2c1.14-.14,2.21-.27,3.15-.47A15.58,15.58,0,0,0,518.52,55.86Zm0,4V68l-.68-.07v-.73A7,7,0,0,0,516,62a7.41,7.41,0,0,0-5.17-2v-.2Z"/><path class="cls-1" d="M556.06,56.19c.94,0,2.08.07,3.42.13s2.75.21,4.23.41,2.74.33,3.82.47a8.7,8.7,0,0,1,2.28.53L569,67.12h-.67a6.93,6.93,0,0,0-2.68-5.77,10.89,10.89,0,0,0-7.11-2.21,10.45,10.45,0,0,0-6.5,1.94,6.31,6.31,0,0,0-2.62,4.7,4.82,4.82,0,0,0,1.35,3.62,15.45,15.45,0,0,0,3.55,2.81l13.27,8.59a12,12,0,0,1,4.83,4.69,12.5,12.5,0,0,1,1.41,6.77,13.4,13.4,0,0,1-5.23,10.6c-3.22,2.54-7.64,3.75-13.21,3.75a34.88,34.88,0,0,1-6-.54,20.5,20.5,0,0,1-5.09-1.47,10.72,10.72,0,0,1-3.55-2.28,8.66,8.66,0,0,1-.47-3.69,19.4,19.4,0,0,1,.67-4.36,14.54,14.54,0,0,1,1.47-3.68h.6a12.17,12.17,0,0,0,1.28,6.57,11.55,11.55,0,0,0,4.56,4.76,13.1,13.1,0,0,0,7.17,1.67c3.09-.06,5.43-.8,7.11-2.34a7,7,0,0,0,2.48-5.43,6.3,6.3,0,0,0-1.27-3.89,13.62,13.62,0,0,0-4.23-3.36l-12.13-8a13,13,0,0,1-5.37-5.36,12.8,12.8,0,0,1-1.34-7.11,13.54,13.54,0,0,1,2.15-6.37,12.83,12.83,0,0,1,5-4.29A25.7,25.7,0,0,1,556.06,56.19Zm13.81.67-.13,1.48h-8.18V56.86Z"/><path class="cls-1" d="M607.62,56.19a31.67,31.67,0,0,1,14.48,3.08A23.12,23.12,0,0,1,631.63,68,26.14,26.14,0,0,1,635,81.47a26.06,26.06,0,0,1-3.35,13.41,22.3,22.3,0,0,1-9.53,8.71,35.47,35.47,0,0,1-29,0,22.47,22.47,0,0,1-9.45-8.71,26,26,0,0,1-3.36-13.48A26,26,0,0,1,583.69,68a22.12,22.12,0,0,1,9.45-8.72A31.7,31.7,0,0,1,607.62,56.19Zm0,47.6a13.44,13.44,0,0,0,8.45-2.74,18.11,18.11,0,0,0,5.5-7.71,33.47,33.47,0,0,0,1.94-11.87,33.44,33.44,0,0,0-1.94-11.87,17.23,17.23,0,0,0-5.5-7.71,13.45,13.45,0,0,0-8.45-2.75,13.74,13.74,0,0,0-8.45,2.75,17,17,0,0,0-5.49,7.71,33.2,33.2,0,0,0-1.95,11.87,33.24,33.24,0,0,0,1.95,11.87,17.21,17.21,0,0,0,5.49,7.71A13.11,13.11,0,0,0,607.62,103.79Z"/><path class="cls-1" d="M646.44,62.22h-.2a4.46,4.46,0,0,0-1.34-3.08,4.15,4.15,0,0,0-3.08-1.27H641V57.2h5.56v5Zm0,38.49v5.1h-5.56v-.67h.87a4.15,4.15,0,0,0,3.08-1.28,4.48,4.48,0,0,0,1.35-3.08h.26Zm10.19-43.58v48.61H646.24V57.13Zm-.2,5.09V57.13H662v.67h-.87A4.16,4.16,0,0,0,658,59.07a4.24,4.24,0,0,0-1.34,3.09h-.27Zm18.51,40.57,1.68,3H656.43v-3ZM680,91.52l-3.21,14.22H663.21l2.48-3a13.47,13.47,0,0,0,6.1-1.34,12.44,12.44,0,0,0,4.49-3.89,21.41,21.41,0,0,0,3-6H680Z"/><path class="cls-1" d="M711.48,56.19A31.67,31.67,0,0,1,726,59.27,23.1,23.1,0,0,1,735.48,68a26,26,0,0,1,3.36,13.48,26,26,0,0,1-3.36,13.41,22.22,22.22,0,0,1-9.52,8.71,35.47,35.47,0,0,1-29,0,22.55,22.55,0,0,1-9.46-8.71,26.14,26.14,0,0,1-3.35-13.48A26.06,26.06,0,0,1,687.54,68,22.2,22.2,0,0,1,697,59.27,31.7,31.7,0,0,1,711.48,56.19Zm0,47.6a13.44,13.44,0,0,0,8.45-2.74,18.2,18.2,0,0,0,5.5-7.71,33.47,33.47,0,0,0,1.94-11.87,33.44,33.44,0,0,0-1.94-11.87,17.3,17.3,0,0,0-5.5-7.71,13.45,13.45,0,0,0-8.45-2.75A13.74,13.74,0,0,0,703,61.89a17.11,17.11,0,0,0-5.5,7.71,33.44,33.44,0,0,0-1.94,11.87,33.47,33.47,0,0,0,1.94,11.87,17.3,17.3,0,0,0,5.5,7.71A13.09,13.09,0,0,0,711.48,103.79Z"/><path class="cls-1" d="M748.89,100.71v5.1h-7.71v-.67h1.14a5.49,5.49,0,0,0,3.35-1.14,4.53,4.53,0,0,0,1.75-3.22h1.47Zm4.23-44.52h.6l2.41,7-4.62,42.65h-4.83Zm-1.21,45.59v.34a3.28,3.28,0,0,0,.8,2.08,2.47,2.47,0,0,0,1.88.94h1.07v.6h-4.22v-4Zm1.81-45.59,22.73,37.28-4,13.68L752,72.62Zm42.24,0,.54,7.58L775.85,99.5a34,34,0,0,0-2.08,4.16,9.2,9.2,0,0,0-.67,3.49h-.67l-2.68-6Zm-4.42,45.59H792v4h-4.23v-.6h1.07a2.5,2.5,0,0,0,1.95-.94,3,3,0,0,0,.74-2.08v-.34Zm5-45.59,6.58,49.55h-11.2l-3.49-31.92,7.44-17.63ZM801,100.71h1.47a4.66,4.66,0,0,0,1.81,3.22,5.43,5.43,0,0,0,3.29,1.14h1.14v.67h-7.64v-5Z"/><path class="cls-1" d="M838.6,56.19a31.72,31.72,0,0,1,14.49,3.08A23.1,23.1,0,0,1,862.61,68,26.14,26.14,0,0,1,866,81.47a26.06,26.06,0,0,1-3.35,13.41,22.27,22.27,0,0,1-9.52,8.71,35.5,35.5,0,0,1-29,0,22.47,22.47,0,0,1-9.45-8.71,26,26,0,0,1-3.35-13.48A26,26,0,0,1,814.67,68a22.12,22.12,0,0,1,9.45-8.72A32.11,32.11,0,0,1,838.6,56.19Zm0,47.6a13.42,13.42,0,0,0,8.45-2.74,18.11,18.11,0,0,0,5.5-7.71,33.47,33.47,0,0,0,1.94-11.87,33.44,33.44,0,0,0-1.94-11.87,17.15,17.15,0,0,0-5.5-7.71,13.43,13.43,0,0,0-8.45-2.75,13.71,13.71,0,0,0-8.44,2.75,17,17,0,0,0-5.5,7.71,33.2,33.2,0,0,0-1.95,11.87,33.24,33.24,0,0,0,1.95,11.87,17.15,17.15,0,0,0,5.5,7.71A13.33,13.33,0,0,0,838.6,103.79Z"/><path class="cls-1" d="M876.82,100.84v5h-5.76v-.67h1.34a4.37,4.37,0,0,0,4.29-4.3Zm-.33-44.72,10,10.6.06,39h-9.92v-41a52.58,52.58,0,0,0-.8-8.65Zm0,0L920.8,98.3l.81,8.38L877.29,64.57Zm10,44.72a4.37,4.37,0,0,0,4.29,4.3h1.35v.67h-5.77v-5Zm19.38-43.71h5.77v5h-.14a4.43,4.43,0,0,0-1.27-3,4.12,4.12,0,0,0-3-1.2h-1.34Zm15.42,0v40.7c0,1.74.07,3.22.2,4.62s.34,2.82.61,4.29h-.61l-10-11.26V57.13Zm5.57,0v.67h-1.28a4.28,4.28,0,0,0-3,1.21,4.48,4.48,0,0,0-1.35,3h-.2v-5h5.84Z"/><path class="cls-1" d="M291.07,158.54h-.34a6.72,6.72,0,0,0-2-4.5,6.14,6.14,0,0,0-4.51-1.85H283v-1h8.08Zm0,55.55v7.28H283v-1h1.27a6.14,6.14,0,0,0,4.51-1.85,6.72,6.72,0,0,0,2-4.5h.34Zm14.79-62.83v70.23h-15V151.26Zm-.23,7.28v-7.28h8.08v1h-1.27a6.1,6.1,0,0,0-4.5,1.85,6.73,6.73,0,0,0-2,4.51h-.34Zm26.79,58.67,2.43,4.28H305.63v-4.28Zm7.28-16.28-4.62,20.56H315.44l3.59-4.28a19.27,19.27,0,0,0,8.77-2,17.78,17.78,0,0,0,6.47-5.66,27.6,27.6,0,0,0,4.27-8.66Z"/><path class="cls-1" d="M354.71,214.09a4.72,4.72,0,0,0-.34,3.47,4.54,4.54,0,0,0,1.73,2.19,4.06,4.06,0,0,0,2.42.81h.93v1H338v-1h.92a8.77,8.77,0,0,0,4.74-1.5,10.19,10.19,0,0,0,4-4.85h7Zm21.6-64.9.35,12.24-25,59.71h-7.28l26-58.79a15.84,15.84,0,0,0,1-2.31c.46-1.15,1-2.31,1.62-3.81s1-2.77,1.5-4a9.64,9.64,0,0,0,.69-3.12h1Zm10.63,48.39v4.16H357.37v-4.16Zm-10.63-48.39,32.8,71.72h-18l-20.9-52.32Zm12.13,64.9H406a11.09,11.09,0,0,0,4.16,4.86,9.92,9.92,0,0,0,4.74,1.5h.81v1H383.82v-1h.92a4.51,4.51,0,0,0,3.47-1.62C389.13,217.79,389.25,216.17,388.44,214.09Z"/><path class="cls-1" d="M435.33,158.43H419a9,9,0,0,0-3.92-4.74,10.71,10.71,0,0,0-5-1.5h-.81v-1H440v1H439a4.44,4.44,0,0,0-3.35,1.62C434.75,154.85,434.64,156.46,435.33,158.43Zm-18.83-6.59h16.4L449,197.23l-6,26.1Zm50.13-2.19,1.85,9.93-22.29,52.55a50.75,50.75,0,0,0-1.74,5.89,39.48,39.48,0,0,0-.69,5.2h-.92l-2.77-11.9,25.64-61.79h.92Zm0,.11,22.06,48.74-4.85,24.83L459.7,169.86Zm38.92,2.08-18.82,60.29a39.61,39.61,0,0,0-1.39,6.12,37.82,37.82,0,0,0-.35,5.08h-1l-2.77-9.93,17.56-61.56Zm-8.78,6.59a5.08,5.08,0,0,0-.46-4.62,4.26,4.26,0,0,0-3.35-1.62H492v-1h21v1h-.81a9.82,9.82,0,0,0-5,1.5,7.6,7.6,0,0,0-3.81,4.74Z"/><path class="cls-1" d="M579.7,149.76c8.09,0,15,1.5,20.91,4.51a32.93,32.93,0,0,1,13.74,12.59c3.23,5.43,4.85,11.89,4.85,19.52s-1.62,14-4.85,19.4a33.17,33.17,0,0,1-13.74,12.7c-5.9,3-12.94,4.51-20.91,4.51s-15-1.5-20.9-4.51a33,33,0,0,1-13.75-12.59c-3.23-5.42-4.85-11.89-4.85-19.51s1.62-14,4.85-19.41a32.55,32.55,0,0,1,13.75-12.7C564.69,151.26,571.73,149.76,579.7,149.76Zm0,69a19.43,19.43,0,0,0,12.24-3.92c3.47-2.66,6-6.35,8-11.21a47.94,47.94,0,0,0,2.77-17.2,48.38,48.38,0,0,0-2.77-17.21,24.79,24.79,0,0,0-8-11.21,21.07,21.07,0,0,0-24.48,0,24.79,24.79,0,0,0-8,11.21,48,48,0,0,0-2.77,17.21,48.36,48.36,0,0,0,2.77,17.2,24.74,24.74,0,0,0,8,11.21A20.11,20.11,0,0,0,579.7,218.71Z"/><path class="cls-1" d="M635.83,158.54h-.35a6.67,6.67,0,0,0-2-4.5,6.1,6.1,0,0,0-4.5-1.85h-1.27v-1h8.08Zm0,55.55v7.28h-8.08v-1H629a6.1,6.1,0,0,0,4.5-1.85,6.67,6.67,0,0,0,2-4.5h.35Zm14.79-62.83v70.23h-15V151.26Zm27.71,0v4.28h-28v-4.28Zm-5,33.5v4.16h-23.1v-4.16Zm-23.1,29.33h.35a6.68,6.68,0,0,0,2,4.51,6.1,6.1,0,0,0,4.5,1.85h1.27v1h-8.08Zm23.1-38.8v9.58h-9.59v-.23a8.88,8.88,0,0,0,6.12-2.54,8.33,8.33,0,0,0,2.43-6.12v-.69Zm0,13.51v9.59h-1v-.81a8.33,8.33,0,0,0-2.43-6.12,8.88,8.88,0,0,0-6.12-2.54v-.23h9.59Zm5-39.38v2.88l-12.24-1.15a32.51,32.51,0,0,0,4.62-.35c1.62-.23,3.12-.46,4.62-.69A11.71,11.71,0,0,0,678.33,149.42Zm0,5.77v11.09h-1v-1a9.15,9.15,0,0,0-9.81-9.82v-.34h10.85Z"/><path class="cls-1" d="M695.66,158.54h-.35a6.67,6.67,0,0,0-2-4.5,6.11,6.11,0,0,0-4.51-1.85h-1.27v-1h8.09Zm0,55.55v7.28h-8.09v-1h1.27a6.11,6.11,0,0,0,4.51-1.85,6.67,6.67,0,0,0,2-4.5h.35Zm14.78-62.83v70.23h-15V151.26Zm27.72,0v4.28H710.1v-4.28Zm-5,33.5v4.16H710.1v-4.16ZM710.1,214.09h.34a6.73,6.73,0,0,0,2,4.51,6.1,6.1,0,0,0,4.5,1.85h1.27v1H710.1Zm23.09-38.8v9.58h-9.58v-.23a8.92,8.92,0,0,0,6.12-2.54,8.33,8.33,0,0,0,2.43-6.12v-.69Zm0,13.51v9.59h-1v-.81a8.33,8.33,0,0,0-2.43-6.12,8.92,8.92,0,0,0-6.12-2.54v-.23h9.58Zm5-39.38v2.88l-12.24-1.15a32.51,32.51,0,0,0,4.62-.35c1.62-.23,3.12-.46,4.62-.69A11.81,11.81,0,0,0,738.16,149.42Zm0,5.77v11.09h-1v-1a9.15,9.15,0,0,0-9.82-9.82v-.34h10.86Z"/><path class="cls-1" d="M755.49,158.54h-.35a6.72,6.72,0,0,0-2-4.5,6.12,6.12,0,0,0-4.51-1.85H747.4v-1h8.09Zm0,55.55v7.28H747.4v-1h1.27a6.12,6.12,0,0,0,4.51-1.85,6.72,6.72,0,0,0,2-4.5h.35Zm14.78-62.83v70.23h-15V151.26Zm-.35,7.28v-7.28H778v1h-1.27a6.11,6.11,0,0,0-4.51,1.85,6.68,6.68,0,0,0-2,4.51h-.35Zm0,55.55h.35a6.68,6.68,0,0,0,2,4.51,6.11,6.11,0,0,0,4.51,1.85H778v1h-8.09Z"/><path class="cls-1" d="M854.58,192.15l.93,17.21a27.22,27.22,0,0,1-5.89,6.7,30.46,30.46,0,0,1-9.24,4.85,40.52,40.52,0,0,1-13.06,1.85c-8.2-.12-15.36-1.5-21.48-4.51a32.49,32.49,0,0,1-14.2-12.47c-3.35-5.43-5-12-5-19.64s1.62-14,5-19.4a31.86,31.86,0,0,1,14.09-12.59c6.12-2.89,13.39-4.39,21.94-4.39a61.37,61.37,0,0,1,14.44,1.62,48,48,0,0,1,10.74,3.93l.11,17.21H852c-1.85-6.59-4.73-11.32-8.78-14.21A24.08,24.08,0,0,0,828.94,154,23.52,23.52,0,0,0,815.2,158a24.24,24.24,0,0,0-8.78,11.09,42.25,42.25,0,0,0-3.12,17.09,45.89,45.89,0,0,0,3,17.21,24.79,24.79,0,0,0,8.44,11.21,23.39,23.39,0,0,0,12.93,4.27,29.58,29.58,0,0,0,13.05-2.54,19.19,19.19,0,0,0,8.55-8.32c2.19-3.92,3.81-9.12,4.85-15.7h.46Z"/><path class="cls-1" d="M872.6,158.54h-.35a6.67,6.67,0,0,0-2-4.5,6.11,6.11,0,0,0-4.51-1.85h-1.27v-1h8.09Zm0,55.55v7.28h-8.09v-1h1.27a6.11,6.11,0,0,0,4.51-1.85,6.67,6.67,0,0,0,2-4.5h.35Zm14.78-62.83v70.23h-15V151.26Zm27.72,0v4.28h-28v-4.28Zm-5,33.5v4.16H887v-4.16Zm3.69,32.45,2.43,4.28H887v-4.28Zm7.39-16.28-4.62,20.56H897l3.58-4.28a19.28,19.28,0,0,0,8.78-2,17.75,17.75,0,0,0,6.46-5.66,27.61,27.61,0,0,0,4.28-8.66Zm-11.08-25.64v9.58h-9.59v-.23a8.92,8.92,0,0,0,6.12-2.54A8.33,8.33,0,0,0,909.1,176v-.69Zm0,13.51v9.59h-1v-.81a8.33,8.33,0,0,0-2.43-6.12,8.92,8.92,0,0,0-6.12-2.54v-.23h9.59Zm5-39.38v2.88l-12.24-1.15a32.51,32.51,0,0,0,4.62-.35c1.62-.23,3.12-.46,4.62-.69A10.71,10.71,0,0,0,915.1,149.42Zm0,5.77V167h-1v-1.15a9.9,9.9,0,0,0-2.77-7.39,10.28,10.28,0,0,0-7.51-2.89v-.23H915.1Z"/></g></g></svg>