<svg width="44" height="44" viewBox="0 0 44 44" fill="none" xmlns="http://www.w3.org/2000/svg">
<g clip-path="url(#clip0_1051_899)">
<path d="M33.7278 32.8148L35.596 44L22 35.651L8.404 44L11.1173 27.7457L0 17.061L15.2753 14.9527L22 0L27.5862 12.4172C26.5632 13.3815 25.7143 14.5218 25.0837 15.7942L22 8.93933L17.787 18.3058L7.99333 19.6588L15.0535 26.4422L13.3467 36.663L22 31.35L30.6533 36.663L29.7715 31.3793C30.9742 32.0797 32.307 32.5728 33.7278 32.8148V32.8148ZM44 21.0833C44 25.6392 40.3003 29.3333 35.75 29.3333C31.196 29.3333 27.5 25.6392 27.5 21.0833C27.5 16.5275 31.196 12.8333 35.75 12.8333C40.3003 12.8333 44 16.5275 44 21.0833ZM40.3333 20.1667H36.6667V16.5H34.8333V20.1648L31.1667 20.1667V22H34.8333V25.6667H36.6667V22H40.3333V20.1667Z" fill="#566CFB"/>
</g>
<defs>
<clipPath id="clip0_1051_899">
<rect width="44" height="44" fill="white"/>
</clipPath>
</defs>
</svg>
