<svg width="43" height="43" viewBox="0 0 43 43" fill="none" xmlns="http://www.w3.org/2000/svg">
<circle cx="21.5" cy="21.5" r="21.5" fill="#F5F5F5"/>
<path d="M26.4814 20.923H25.074C25.0734 20.3723 24.8508 19.8443 24.4551 19.455C24.0593 19.0656 23.5226 18.8466 22.9629 18.846V17.4614C23.8957 17.4625 24.79 17.8276 25.4496 18.4765C26.1092 19.1254 26.4803 20.0052 26.4814 20.923Z" fill="#566CFB"/>
<path d="M29.2962 20.9232H27.8888C27.8873 19.6383 27.3679 18.4065 26.4444 17.498C25.5209 16.5895 24.2689 16.0785 22.9629 16.077V14.6924C24.642 14.6942 26.2518 15.3513 27.4392 16.5194C28.6265 17.6875 29.2943 19.2712 29.2962 20.9232Z" fill="#566CFB"/>
<path d="M27.8886 32H27.769C13.9413 31.2177 11.9779 19.7392 11.7035 16.2362C11.6606 15.687 11.8412 15.1435 12.2055 14.7253C12.5699 14.3072 13.0882 14.0485 13.6464 14.0062C13.7022 14.0021 13.7583 14 13.8146 14H17.5231C17.805 13.9997 18.0804 14.0827 18.3138 14.2383C18.5472 14.3938 18.7277 14.6147 18.832 14.8723L19.9016 17.4615C20.0046 17.7132 20.0302 17.9891 19.9751 18.255C19.9201 18.5208 19.7868 18.7649 19.592 18.9569L18.0931 20.4454C18.3263 21.7548 18.9631 22.9619 19.9173 23.9031C20.8715 24.8443 22.0968 25.4741 23.4272 25.7069L24.9542 24.2185C25.1523 24.0289 25.4027 23.9009 25.6743 23.8504C25.9458 23.7999 26.2265 23.8292 26.4812 23.9346L29.1342 24.98C29.3921 25.0858 29.6122 25.2648 29.7663 25.4942C29.9205 25.7235 30.0017 25.9928 29.9997 26.2677V29.9231C29.9997 30.4739 29.7773 31.0022 29.3814 31.3917C28.9855 31.7812 28.4485 32 27.8886 32ZM13.8146 15.3846C13.7222 15.3843 13.6306 15.402 13.5451 15.4365C13.4596 15.4711 13.3819 15.5218 13.3164 15.5859C13.2508 15.65 13.1988 15.7262 13.1631 15.8101C13.1275 15.894 13.109 15.9839 13.1088 16.0748C13.1088 16.0942 13.1095 16.1134 13.1109 16.1323C13.4346 20.2308 15.5105 29.9231 27.8464 30.6154C28.0327 30.6264 28.2157 30.5641 28.3553 30.4423C28.495 30.3206 28.5797 30.1492 28.5909 29.966L28.5923 29.9231V26.2677L25.9394 25.2223L23.9198 27.1954L23.582 27.1538C17.4598 26.3992 16.6294 20.3762 16.6294 20.3138L16.5872 19.9815L18.5857 17.9946L17.5301 15.3846H13.8146Z" fill="#566CFB"/>
</svg>
