<svg width="54" height="56" viewBox="0 0 54 56" fill="none" xmlns="http://www.w3.org/2000/svg">
<path d="M32.7128 13.7095C34.1739 13.7095 35.6022 13.3074 36.8171 12.5542C38.032 11.801 38.9788 10.7305 39.538 9.47794C40.0971 8.2254 40.2434 6.84712 39.9584 5.51744C39.6733 4.18775 38.9697 2.96637 37.9366 2.00772C36.9034 1.04907 35.5871 0.39621 34.154 0.131719C32.721 -0.132773 31.2356 0.00295945 29.8857 0.521778C28.5358 1.0406 27.382 1.91919 26.5702 3.04645C25.7585 4.17371 25.3252 5.499 25.3252 6.85473C25.3288 8.6717 26.1083 10.4133 27.4929 11.6981C28.8776 12.9829 30.7546 13.7061 32.7128 13.7095V13.7095ZM32.7128 1.95789C33.7566 1.95789 34.7769 2.24509 35.6448 2.78316C36.5127 3.32123 37.1891 4.08601 37.5885 4.98079C37.988 5.87557 38.0925 6.86018 37.8888 7.81007C37.6852 8.75996 37.1826 9.63251 36.4445 10.3173C35.7064 11.0022 34.7661 11.4685 33.7423 11.6575C32.7186 11.8464 31.6575 11.7495 30.6932 11.3788C29.7288 11.0082 28.9046 10.3806 28.3247 9.57528C27.7448 8.77 27.4353 7.82324 27.4353 6.85473C27.4377 5.5567 27.9945 4.31247 28.9837 3.39462C29.9729 2.47677 31.3138 1.96012 32.7128 1.95789V1.95789Z" fill="#566CFB"/>
<path d="M53.5955 20.9387C53.4969 20.8204 53.3703 20.7248 53.2256 20.6591C53.0808 20.5934 52.9217 20.5594 52.7606 20.5597H48.5404V18.1008C48.5436 17.2006 48.3543 16.3088 47.9835 15.4769C47.6127 14.6451 47.0679 13.8897 46.3804 13.2545L44.0117 11.0439L42.5369 12.4418L44.9056 14.6397C45.3966 15.0934 45.7857 15.6328 46.0506 16.2269C46.3154 16.821 46.4506 17.4579 46.4485 18.1008V20.5597H44.2159C43.9683 18.9289 43.0958 17.4355 41.7582 16.3529C40.4207 15.2704 38.7076 14.6712 36.9327 14.665H28.4923C26.7172 14.6703 25.0036 15.2692 23.6658 16.3519C22.3281 17.4347 21.4559 18.9286 21.2092 20.5597H12.6599C12.4999 20.5605 12.3421 20.5949 12.1985 20.6605C12.0549 20.726 11.9292 20.8209 11.8309 20.9381C11.7326 21.0553 11.6643 21.1916 11.631 21.3368C11.5977 21.4821 11.6004 21.6324 11.6389 21.7766L13.749 29.6124C13.8064 29.8235 13.9379 30.0109 14.1227 30.1451C14.3076 30.2793 14.5353 30.3526 14.77 30.3534V33.3008C14.77 33.561 14.8814 33.8105 15.0797 33.9945C15.278 34.1785 15.5469 34.2818 15.8273 34.2818C16.1077 34.2818 16.3767 34.1785 16.5749 33.9945C16.7732 33.8105 16.8846 33.561 16.8846 33.3008V30.3534H48.5404V53.8524H15.8273C15.5469 53.8524 15.278 53.9557 15.0797 54.1397C14.8814 54.3237 14.77 54.5732 14.77 54.8334C14.77 55.0936 14.8814 55.3432 15.0797 55.5271C15.278 55.7111 15.5469 55.8145 15.8273 55.8145H49.5977C49.7364 55.8145 49.8736 55.7891 50.0017 55.7397C50.1297 55.6904 50.2459 55.618 50.3438 55.5269C50.4416 55.4357 50.519 55.3275 50.5717 55.2085C50.6243 55.0895 50.6511 54.9621 50.6505 54.8334V30.3534C50.886 30.3535 51.1147 30.2806 51.3005 30.1464C51.4863 30.0121 51.6185 29.8242 51.6761 29.6124L53.7861 21.7766C53.8247 21.6326 53.8276 21.4825 53.7946 21.3373C53.7616 21.1922 53.6935 21.0559 53.5955 20.9387V20.9387ZM28.4923 16.6439H36.9327C38.1488 16.645 39.3274 17.035 40.2697 17.7483C41.212 18.4616 41.8605 19.4545 42.1058 20.5597H23.3192C23.5645 19.4545 24.213 18.4616 25.1554 17.7483C26.0977 17.035 27.2762 16.645 28.4923 16.6439ZM49.8201 28.3955H15.5959L14.0122 22.5008H51.4129L49.8201 28.3955Z" fill="#566CFB"/>
<path d="M20.0476 49.9368C19.7798 49.9531 19.5286 50.0633 19.3452 50.2451C19.1617 50.4269 19.0596 50.6667 19.0596 50.9157C19.0596 51.1648 19.1617 51.4046 19.3452 51.5863C19.5286 51.7681 19.7798 51.8784 20.0476 51.8947H45.3777C45.6569 51.8947 45.9247 51.7918 46.1222 51.6086C46.3196 51.4254 46.4305 51.1769 46.4305 50.9178V33.2926C46.4311 33.1639 46.4043 33.0365 46.3517 32.9175C46.299 32.7985 46.2216 32.6903 46.1238 32.5991C46.0259 32.508 45.9097 32.4356 45.7817 32.3863C45.6536 32.3369 45.5164 32.3115 45.3777 32.3115H20.0476C19.7798 32.3278 19.5286 32.4381 19.3452 32.6199C19.1617 32.8017 19.0596 33.0414 19.0596 33.2905C19.0596 33.5395 19.1617 33.7793 19.3452 33.9611C19.5286 34.1429 19.7798 34.2531 20.0476 34.2694H44.3204V49.9368H20.0476Z" fill="#566CFB"/>
<path d="M16.8035 51.2931C16.8834 51.1136 16.904 50.9161 16.8628 50.7257C16.8216 50.5354 16.7204 50.3606 16.5721 50.2236L12.6605 46.5941V39.9668C13.1019 39.8204 13.503 39.5851 13.8348 39.2779C14.1667 38.9707 14.4212 38.5992 14.58 38.1899H17.3934L14.8568 43.6636C14.7989 43.7855 14.771 43.9178 14.7751 44.051V44.051C14.8111 45.0678 15.2717 46.0319 16.0596 46.7394C16.8475 47.447 17.9011 47.8425 18.9976 47.8425C20.0941 47.8425 21.1476 47.447 21.9355 46.7394C22.7235 46.0319 23.1841 45.0678 23.22 44.051V44.051C23.213 43.984 23.1993 43.9177 23.1792 43.8531C23.1699 43.7919 23.1563 43.7315 23.1383 43.672V43.672L19.9619 36.8173C19.8811 36.6426 19.747 36.4936 19.576 36.3888C19.405 36.2841 19.2047 36.2281 18.9998 36.2278H14.5845C14.3688 35.6561 13.9668 35.1607 13.4343 34.8102C12.9018 34.4598 12.2651 34.2715 11.6123 34.2715C10.9594 34.2715 10.3227 34.4598 9.7902 34.8102C9.25771 35.1607 8.85578 35.6561 8.64 36.2278H4.22471C4.01918 36.2278 3.81813 36.2836 3.64637 36.3884C3.47461 36.4931 3.33966 36.6422 3.25815 36.8173V36.8173L0.0816843 43.672C0.0719379 43.7081 0.0643618 43.7447 0.0589938 43.7815C0.0237642 43.8692 0.00384771 43.9616 0 44.0552C0 45.0937 0.444624 46.0897 1.23606 46.8241C2.02749 47.5584 3.10091 47.971 4.22017 47.971C5.33943 47.971 6.41285 47.5584 7.20428 46.8241C7.99572 46.0897 8.44034 45.0937 8.44034 44.0552V44.0552C8.4343 43.9619 8.41445 43.8698 8.38135 43.7815C8.38135 43.7478 8.38135 43.7057 8.38135 43.672L5.84924 38.1983H8.66269C8.82104 38.6072 9.07482 38.9784 9.40587 39.2856C9.73692 39.5928 10.1371 39.8283 10.5777 39.9752V46.6026L6.66605 50.232C6.51902 50.3698 6.41906 50.5448 6.3787 50.735C6.33834 50.9253 6.35937 51.1223 6.43916 51.3015C6.51839 51.4799 6.65303 51.6324 6.82596 51.7397C6.99888 51.8469 7.20227 51.904 7.41025 51.9036H15.8551C16.0601 51.8986 16.2591 51.8382 16.4276 51.7297C16.596 51.6212 16.7267 51.4695 16.8035 51.2931ZM20.5608 43.0868H17.4252L18.9953 39.6931L20.5608 43.0868ZM18.9908 46.0341C18.6221 46.0323 18.2605 45.9408 17.9419 45.7686C17.6234 45.5965 17.3591 45.3497 17.1756 45.0531H20.8286C20.6411 45.3502 20.3724 45.5962 20.0498 45.7662C19.7271 45.9362 19.3618 46.0243 18.9908 46.0215V46.0341ZM11.6077 36.2405C11.8168 36.2405 12.0213 36.298 12.1951 36.4058C12.369 36.5136 12.5045 36.6668 12.5846 36.8461C12.6646 37.0253 12.6855 37.2226 12.6447 37.4129C12.6039 37.6032 12.5032 37.778 12.3554 37.9152C12.2075 38.0524 12.0191 38.1458 11.814 38.1837C11.6089 38.2216 11.3963 38.2021 11.2031 38.1279C11.0099 38.0536 10.8448 37.9279 10.7286 37.7665C10.6124 37.6052 10.5504 37.4155 10.5504 37.2215C10.5486 37.0916 10.5746 36.9627 10.627 36.8422C10.6793 36.7217 10.7569 36.612 10.8552 36.5196C10.9536 36.4272 11.0708 36.3538 11.1999 36.3037C11.3291 36.2536 11.4677 36.2278 11.6077 36.2278V36.2405ZM4.22017 39.6762L5.78571 43.0657H2.65462L4.22017 39.6762ZM4.22017 45.992C3.85173 45.9894 3.49042 45.8975 3.17204 45.7254C2.85366 45.5534 2.58926 45.3071 2.40504 45.011H6.06252C5.88007 45.3162 5.61316 45.5708 5.2893 45.7485C4.96545 45.9261 4.59638 46.0204 4.22017 46.0215V45.992ZM9.93328 49.9078L11.6077 48.3541L13.2822 49.9078H9.93328Z" fill="#566CFB"/>
</svg>
