<svg width="14" height="10" viewBox="0 0 14 10" fill="none" xmlns="http://www.w3.org/2000/svg">
<g clip-path="url(#clip0_916_988)">
<path fill-rule="evenodd" clip-rule="evenodd" d="M-0.000893593 4.99965C-0.000893593 4.86705 0.0517844 4.73987 0.145553 4.6461C0.239321 4.55233 0.366498 4.49965 0.499106 4.49965H12.2921L9.14511 1.35366C9.09862 1.30717 9.06174 1.25198 9.03658 1.19124C9.01142 1.1305 8.99847 1.0654 8.99847 0.999655C8.99847 0.933911 9.01142 0.868811 9.03658 0.808072C9.06174 0.747332 9.09862 0.692143 9.14511 0.645655C9.19159 0.599167 9.24678 0.562291 9.30752 0.537132C9.36826 0.511973 9.43336 0.499023 9.49911 0.499023C9.56485 0.499023 9.62995 0.511973 9.69069 0.537132C9.75143 0.562291 9.80662 0.599167 9.85311 0.645655L13.8531 4.64565C13.8997 4.6921 13.9366 4.74728 13.9618 4.80802C13.987 4.86877 14 4.93389 14 4.99965C14 5.06542 13.987 5.13054 13.9618 5.19129C13.9366 5.25203 13.8997 5.30721 13.8531 5.35365L9.85311 9.35365C9.80662 9.40014 9.75143 9.43702 9.69069 9.46218C9.62995 9.48734 9.56485 9.50029 9.49911 9.50029C9.43336 9.50029 9.36826 9.48734 9.30752 9.46218C9.24678 9.43702 9.19159 9.40014 9.14511 9.35365C9.09862 9.30717 9.06174 9.25198 9.03658 9.19124C9.01142 9.1305 8.99847 9.0654 8.99847 8.99965C8.99847 8.93391 9.01142 8.86881 9.03658 8.80807C9.06174 8.74733 9.09862 8.69214 9.14511 8.64565L12.2921 5.49965H0.499106C0.366498 5.49965 0.239321 5.44698 0.145553 5.35321C0.0517844 5.25944 -0.000893593 5.13226 -0.000893593 4.99965Z" fill="#566CFB"/>
</g>
<defs>
<clipPath id="clip0_916_988">
<rect width="14.0009" height="10" fill="white" transform="matrix(-1 0 0 1 14 0)"/>
</clipPath>
</defs>
</svg>
