<svg width="186" height="25" viewBox="0 0 186 25" fill="none" xmlns="http://www.w3.org/2000/svg">
<path d="M22.5 0L25.3064 8.63729H34.3882L27.0409 13.9754L29.8473 22.6127L22.5 17.2746L15.1527 22.6127L17.9591 13.9754L10.6118 8.63729H19.6936L22.5 0Z" fill="#E8C445"/>
<path d="M57.5 0L60.3064 8.63729H69.3882L62.0409 13.9754L64.8473 22.6127L57.5 17.2746L50.1527 22.6127L52.9591 13.9754L45.6118 8.63729H54.6936L57.5 0Z" fill="#E8C445"/>
<path d="M92.5 0L95.3064 8.63729H104.388L97.0409 13.9754L99.8473 22.6127L92.5 17.2746L85.1527 22.6127L87.9591 13.9754L80.6118 8.63729H89.6936L92.5 0Z" fill="#E8C445"/>
<path d="M127.5 0L130.306 8.63729H139.388L132.041 13.9754L134.847 22.6127L127.5 17.2746L120.153 22.6127L122.959 13.9754L115.612 8.63729H124.694L127.5 0Z" fill="#E8C445"/>
<path d="M162.5 0L165.306 8.63729H174.388L167.041 13.9754L169.847 22.6127L162.5 17.2746L155.153 22.6127L157.959 13.9754L150.612 8.63729H159.694L162.5 0Z" fill="#E8C445"/>
</svg>
